<?xml version="1.0" encoding="UTF-8"?>
<svg xmlns="http://www.w3.org/2000/svg" width="89" height="89" viewBox="0 0 89 89" fill="none">
  <path d="M40.0002 0C18.1405 0 0.320014 17.6136 0.00423313 39.3846C-0.316548 61.4956 17.6353 79.8174 39.7633 79.9453C46.5975 79.9848 53.1788 78.3152 59.0241 75.1411C59.5939 74.8318 59.682 74.0487 59.197 73.619L55.4541 70.3031C54.6934 69.6293 53.6106 69.4388 52.6752 69.8365C48.5953 71.5716 44.1617 72.4574 39.5934 72.4015C21.7128 72.1829 7.26626 57.3158 7.55142 39.4483C7.83283 21.8068 22.2808 7.54193 40.0002 7.54193L72.453 7.54256V65.1853L54.0405 48.8367C53.4447 48.3075 52.5313 48.411 52.0511 49.0465C49.0955 52.9569 44.2817 55.3897 38.9339 55.0205C31.5161 54.5085 25.5059 48.5409 24.9494 41.1317C24.2855 32.2933 31.2939 24.889 40.0002 24.889C47.8741 24.889 54.3581 30.9453 55.0353 38.6411C55.0955 39.3256 55.4052 39.9642 55.9197 40.4203L60.7145 44.6682C61.2589 45.1501 62.1223 44.8548 62.2561 44.1408C62.602 42.2934 62.7231 40.3677 62.5875 38.3931C61.8152 27.1388 52.6934 18.085 41.4266 17.3911C28.5092 16.5955 17.7105 26.6927 17.3672 39.3515C17.0325 51.6869 27.1467 62.3216 39.4916 62.5939C44.6458 62.7076 49.4225 61.0879 53.2836 58.2825L77.3414 79.5949C78.373 80.5084 80 79.7767 80 78.3995V1.51726C80 0.679384 79.3206 0.000312289 78.4822 0.000312289L40.0002 0Z" fill="#7B7B7B"></path>
</svg>
