<?xml version="1.0" encoding="UTF-8"?>
<svg xmlns="http://www.w3.org/2000/svg" width="89" height="89" viewBox="0 0 89 89" fill="none">
  <path d="M46.5 2.79163L9 16.1062L14.7197 65.4744L46.5 83L78.2803 65.4744L84 16.1062L46.5 2.79163ZM61.1214 63.9906L56.4087 52.2802H36.5107L31.7981 63.9906H23.0575L46.5 11.6546L69.862 63.9906H61.1214Z" fill="#848484"></path>
  <path d="M39.6525 45.0615H53.3474L46.4999 28.6589L39.6525 45.0615Z" fill="#7B7B7B"></path>
  <path d="M46.5403 28.6589L46.4597 28.8514V45.0615H53.3878L46.5403 28.6589Z" fill="#5C5C5C"></path>
  <path d="M46.4597 2.79163V11.6546V11.6948V11.8351L46.5403 11.6546L69.9023 63.9906H61.1617L56.449 52.2802H46.4597V83L78.2401 65.4744L83.9597 16.1062L46.4597 2.79163Z" fill="#5C5C5C"></path>
</svg>
