<?xml version="1.0" encoding="UTF-8"?>
<svg xmlns="http://www.w3.org/2000/svg" width="89" height="89" viewBox="0 0 89 89" fill="none">
  <path d="M23.525 39.8182H21.4195L18.3783 47.6937H20.2845L20.7784 46.3537H23.6549L23.1351 44.8841H21.2376L22.4679 41.4953L24.66 47.6937H26.5662L23.525 39.8182ZM55.5227 47.6937V39.8182H57.2123V46.2154H60.5481V47.6937H55.5227ZM65.2702 47.6937V39.8182H66.9685V46.2154H70.3043V47.6937H65.2702ZM46.1478 41.2273C47.5515 41.2273 48.6865 42.3598 48.6865 43.7602C48.6865 45.1607 47.5515 46.2932 46.1478 46.2932C44.7442 46.2932 43.6091 45.1607 43.6091 43.7602C43.6091 42.3598 44.7529 41.2273 46.1478 41.2273ZM46.1478 39.6885C43.8951 39.6885 42.0669 41.5126 42.0669 43.7602C42.0669 46.0079 43.8951 47.832 46.1478 47.832C48.4006 47.832 50.2288 46.0079 50.2288 43.7602C50.2288 41.5126 48.4006 39.6885 46.1478 39.6885ZM78.0849 41.2273C79.4886 41.2273 80.6236 42.3598 80.6236 43.7602C80.6236 45.1607 79.4886 46.2932 78.0849 46.2932C76.6813 46.2932 75.5463 45.1607 75.5463 43.7602C75.5463 42.3598 76.6813 41.2273 78.0849 41.2273ZM78.0849 39.6885C75.8322 39.6885 74.004 41.5126 74.004 43.7602C74.004 46.0079 75.8322 47.832 78.0849 47.832C80.3377 47.832 82.1659 46.0079 82.1659 43.7602C82.1659 41.5126 80.3377 39.6885 78.0849 39.6885ZM35.17 39.8182H31.4876V47.6937H33.1685V44.9792H35.17C36.5736 44.9792 37.7087 43.7948 37.7087 42.3943C37.7087 41.0025 36.5736 39.8182 35.17 39.8182ZM35.17 43.4404H33.1685V41.357H35.17C35.7158 41.357 36.1664 41.8497 36.1664 42.3943C36.1664 42.939 35.7158 43.4404 35.17 43.4404Z" fill="#848484"></path>
  <path d="M30.0406 50.0796C29.8933 50.0796 29.7634 50.1488 29.6854 50.2611C29.6854 50.2611 29.3042 50.6934 29.1049 50.9009C28.2384 51.7654 27.2334 52.4397 26.1156 52.9151C24.9546 53.4079 23.7243 53.65 22.4506 53.65C21.1769 53.65 19.9466 53.3992 18.7855 52.9151C17.6678 52.4397 16.6541 51.7654 15.7963 50.9009C14.9298 50.0364 14.254 49.0336 13.7775 47.9184C13.2836 46.7599 13.041 45.5324 13.041 44.2615C13.041 42.9907 13.2923 41.7632 13.7775 40.6047C14.2454 39.4895 14.9212 38.4781 15.7876 37.6222C16.6541 36.7577 17.6591 36.0834 18.7769 35.608C19.9379 35.1152 21.1682 34.8731 22.4419 34.8731C23.7156 34.8731 24.9459 35.1238 26.107 35.608C26.9214 35.9538 27.6752 36.4033 28.3597 36.9566C28.3251 37.0603 28.2991 37.1813 28.2991 37.3024C28.2991 37.8902 28.7756 38.3657 29.3648 38.3657C29.954 38.3657 30.4305 37.8902 30.4305 37.3024C30.4305 36.7145 29.954 36.239 29.3648 36.239C29.2175 36.239 29.0789 36.265 28.9576 36.3255C27.1814 34.8731 24.9199 34 22.4419 34C16.7667 34 12.1659 38.5905 12.1659 44.2615C12.1659 49.9326 16.7667 54.5231 22.4506 54.5231C25.6304 54.5231 28.4637 53.088 30.3525 50.8231C30.4305 50.7453 30.4825 50.6329 30.4825 50.5205C30.4739 50.2784 30.2746 50.0796 30.0406 50.0796Z" fill="#848484"></path>
</svg>
