<svg width="17" height="17" viewBox="0 0 17 17" fill="none" xmlns="http://www.w3.org/2000/svg">
<path d="M0.853553 0.146447C0.658291 -0.0488155 0.341709 -0.0488155 0.146447 0.146447C-0.0488155 0.341709 -0.0488155 0.658291 0.146447 0.853553L7.79289 8.5L0.146446 16.1464C-0.0488148 16.3417 -0.0488148 16.6583 0.146446 16.8536C0.341709 17.0488 0.658291 17.0488 0.853554 16.8536L8.5 9.20711L16.1464 16.8536C16.3417 17.0488 16.6583 17.0488 16.8536 16.8536C17.0488 16.6583 17.0488 16.3417 16.8536 16.1464L9.20711 8.5L16.8536 0.853553C17.0488 0.658291 17.0488 0.341709 16.8536 0.146447C16.6583 -0.0488155 16.3417 -0.0488155 16.1464 0.146447L8.5 7.79289L0.853553 0.146447Z" fill="black"/>
</svg>
