<?xml version="1.0" encoding="UTF-8"?>
<svg xmlns="http://www.w3.org/2000/svg" width="89" height="89" viewBox="0 0 89 89" fill="none">
  <path d="M11.0373 39.0499C10.8815 39.0499 10.8426 38.972 10.9205 38.8552L11.7384 37.8035C11.8163 37.6867 12.0111 37.6088 12.1669 37.6088H26.0723C26.2281 37.6088 26.2671 37.7256 26.1892 37.8425L25.527 38.8552C25.4491 38.972 25.2543 39.0889 25.1375 39.0889L11.0373 39.0499Z" fill="#7B7B7B"></path>
  <path d="M5.1558 42.6334C5 42.6334 4.96105 42.5555 5.03895 42.4387L5.85692 41.387C5.93482 41.2702 6.12957 41.1923 6.28537 41.1923H24.0469C24.2027 41.1923 24.2806 41.3091 24.2417 41.426L23.93 42.3608C23.8911 42.5166 23.7353 42.5945 23.5795 42.5945L5.1558 42.6334Z" fill="#7B7B7B"></path>
  <path d="M14.5819 46.2168C14.4261 46.2168 14.3871 46.1 14.465 45.9831L15.0103 45.0093C15.0882 44.8925 15.2441 44.7756 15.3999 44.7756H23.19C23.3458 44.7756 23.4237 44.8925 23.4237 45.0483L23.3458 45.9831C23.3458 46.1389 23.19 46.2558 23.0731 46.2558L14.5819 46.2168Z" fill="#7B7B7B"></path>
  <path d="M55.0127 38.3488C52.5588 38.972 50.8839 39.4394 48.469 40.0627C47.8847 40.2185 47.8458 40.2574 47.3394 39.6731C46.7552 39.011 46.3267 38.5825 45.5087 38.193C43.0548 36.9855 40.6788 37.3361 38.4587 38.7773C35.81 40.4911 34.4467 43.0229 34.4857 46.1779C34.5246 49.294 36.6669 51.8647 39.744 52.2932C42.3927 52.6437 44.6129 51.7089 46.3657 49.7224C46.7162 49.294 47.0278 48.8266 47.4173 48.2813C46.0151 48.2813 44.2623 48.2813 39.8998 48.2813C39.0819 48.2813 38.8871 47.7749 39.1598 47.1127C39.6661 45.9053 40.6009 43.8798 41.1463 42.8671C41.2631 42.6334 41.5358 42.2439 42.12 42.2439C44.1065 42.2439 51.4292 42.2439 56.2981 42.2439C56.2202 43.2956 56.2202 44.3472 56.0644 45.3989C55.6359 48.2034 54.5843 50.7741 52.8704 53.0332C50.066 56.7336 46.4046 59.0317 41.7695 59.6549C37.9523 60.1612 34.4078 59.4212 31.2917 57.0841C28.4094 54.9029 26.7734 52.0205 26.345 48.4371C25.8386 44.1914 27.085 40.3743 29.6558 37.0245C32.4213 33.4021 36.0827 31.104 40.562 30.286C44.2234 29.6239 47.7289 30.0523 50.8839 32.1946C52.9483 33.5579 54.4285 35.4275 55.4022 37.6867C55.6359 38.0372 55.4801 38.232 55.0127 38.3488Z" fill="#7B7B7B"></path>
  <path d="M67.9054 59.8886C64.3609 59.8107 61.128 58.798 58.4014 56.4609C56.1033 54.4745 54.6622 51.9427 54.1948 48.9435C53.4936 44.542 54.7011 40.647 57.3498 37.1803C60.1932 33.4411 63.6208 31.4935 68.256 30.6756C72.2289 29.9745 75.9682 30.364 79.3569 32.6621C82.434 34.7654 84.3426 37.6088 84.849 41.3481C85.5111 46.6064 83.9921 50.891 80.3696 54.5524C77.7989 57.1621 74.6439 58.798 71.0215 59.5381C69.9698 59.7328 68.9181 59.7718 67.9054 59.8886ZM77.1757 44.1525C77.1367 43.6462 77.1367 43.2567 77.0588 42.8671C76.3577 39.011 72.8132 36.8298 69.1129 37.6867C65.4905 38.5047 63.1534 40.8028 62.2965 44.4641C61.5954 47.5023 63.0755 50.5794 65.88 51.8258C68.0223 52.7606 70.1646 52.6438 72.2289 51.5921C75.306 49.9951 76.9809 47.5023 77.1757 44.1525Z" fill="#7B7B7B"></path>
</svg>
