<?xml version="1.0" encoding="UTF-8"?>
<svg xmlns="http://www.w3.org/2000/svg" width="89" height="89" viewBox="0 0 89 89" fill="none">
  <path fill-rule="evenodd" clip-rule="evenodd" d="M44.0017 15.3599L69.4193 30.0347V59.3845L44.0017 74.0594L18.584 59.3845V30.0347L44.0017 15.3599ZM21.4359 31.6813V53.2395L40.1059 20.9022L21.4359 31.6813ZM44.0017 19.8583L22.4798 57.1353H65.5236L44.0017 19.8583ZM62.6717 59.9872H25.3317L44.0017 70.7663L62.6717 59.9872ZM66.5674 53.2395L47.8975 20.9022L66.5674 31.6813V53.2395Z" fill="#7B7B7B"></path>
  <path d="M44.0017 23.0132C47.319 23.0132 50.0083 20.3239 50.0083 17.0066C50.0083 13.6892 47.319 11 44.0017 11C40.6843 11 37.9951 13.6892 37.9951 17.0066C37.9951 20.3239 40.6843 23.0132 44.0017 23.0132Z" fill="#7B7B7B"></path>
  <path d="M67.9934 36.8647C71.3107 36.8647 74 34.1755 74 30.8581C74 27.5408 71.3107 24.8516 67.9934 24.8516C64.6761 24.8516 61.9868 27.5408 61.9868 30.8581C61.9868 34.1755 64.6761 36.8647 67.9934 36.8647Z" fill="#7B7B7B"></path>
  <path d="M67.9934 64.5683C71.3107 64.5683 74 61.8791 74 58.5618C74 55.2444 71.3107 52.5552 67.9934 52.5552C64.6761 52.5552 61.9868 55.2444 61.9868 58.5618C61.9868 61.8791 64.6761 64.5683 67.9934 64.5683Z" fill="#7B7B7B"></path>
  <path d="M44.0017 78.4199C47.319 78.4199 50.0083 75.7307 50.0083 72.4133C50.0083 69.096 47.319 66.4067 44.0017 66.4067C40.6843 66.4067 37.9951 69.096 37.9951 72.4133C37.9951 75.7307 40.6843 78.4199 44.0017 78.4199Z" fill="#7B7B7B"></path>
  <path d="M20.0066 64.5683C23.3239 64.5683 26.0132 61.8791 26.0132 58.5618C26.0132 55.2444 23.3239 52.5552 20.0066 52.5552C16.6892 52.5552 14 55.2444 14 58.5618C14 61.8791 16.6892 64.5683 20.0066 64.5683Z" fill="#7B7B7B"></path>
  <path d="M20.0066 36.8647C23.3239 36.8647 26.0132 34.1755 26.0132 30.8581C26.0132 27.5408 23.3239 24.8516 20.0066 24.8516C16.6892 24.8516 14 27.5408 14 30.8581C14 34.1755 16.6892 36.8647 20.0066 36.8647Z" fill="#7B7B7B"></path>
</svg>
