<svg width="41" height="40" viewBox="0 0 41 40" fill="none" xmlns="http://www.w3.org/2000/svg">
<path d="M37.2249 20C37.2249 18.1593 36.9311 16.3868 36.3876 14.7265L38.7203 12.4066C39.6872 14.7479 40.2204 17.312 40.2204 20C40.2204 31.0457 31.2167 40 20.1102 40C9.00364 40 0 31.0457 0 20C0 8.95431 9.00364 0 20.1102 0C25.0637 0 29.5989 1.78115 33.1036 4.7346L30.9769 6.84963C28.0214 4.43122 24.2363 2.97909 20.1102 2.97909C10.658 2.97909 2.99551 10.5996 2.99551 20C2.99551 29.4004 10.658 37.0209 20.1102 37.0209C29.5624 37.0209 37.2249 29.4004 37.2249 20Z" fill="#fff"/>
<path d="M40.5613 6.05334C41.1462 5.47163 41.1462 4.5285 40.5613 3.9468C39.9764 3.36509 39.0281 3.36509 38.4432 3.9468L17.9531 24.3246L11.8299 18.264C11.2436 17.6837 10.2953 17.686 9.7118 18.269C9.12829 18.8521 9.13055 19.7953 9.71685 20.3756L17.9581 28.5327L40.5613 6.05334Z" fill="#fff"/>
</svg>
