<?xml version="1.0" encoding="UTF-8"?>
<svg xmlns="http://www.w3.org/2000/svg" width="89" height="89" viewBox="0 0 89 89" fill="none">
  <path d="M45.13 13.2V75.58L67.56 69.0999L72.43 13.29L45.13 13.2ZM66.11 28.61H55.18V41.65H66.11L64.78 67.97L47.61 71.9599V63.72L59.21 59.7299L59.88 48.84L47.61 50.6199V20.66H67.44L66.11 28.61Z" fill="#7B7B7B"></path>
  <path fill-rule="evenodd" clip-rule="evenodd" d="M17.52 74.38L12 7L77.89 7.14L72.06 74.38L45.2 82.15L17.52 74.38ZM45.13 75.58L67.56 69.1L72.43 13.29L45.13 13.2V75.58ZM35.08 62.1199V20.6599H42.24V71.9599L22.88 66.9099V54.4199L29.51 55.4799V61.0599L35.08 62.1199Z" fill="#5C5C5C"></path>
</svg>
