<?xml version="1.0" encoding="UTF-8"?>
<svg xmlns="http://www.w3.org/2000/svg" width="89" height="89" viewBox="0 0 89 89" fill="none">
  <path d="M46.2217 3.01844C44.2657 3.18427 42.7995 3.45648 41.4206 3.90391C40.5782 4.17925 38.7408 4.87698 38.0731 5.17422C37.5334 5.41202 35.1781 6.7105 33.6869 7.58345C31.0851 9.11033 29.7405 10.5621 29.1134 12.5333C28.9886 12.9182 28.9356 13.012 28.8108 13.0809C28.1931 13.4188 27.6066 13.9444 27.2104 14.517C26.6021 15.4087 26.1653 16.7886 26.0281 18.2654C25.9969 18.6096 25.9563 19.0101 25.9438 19.1602L25.9189 19.4293L25.3105 19.9644C23.6384 21.4443 21.8477 23.4624 20.525 25.3679C17.7828 29.3134 15.9421 34.0255 15.287 38.75C15.053 40.4521 15 41.2531 15 43.2024C15 45.1517 15.053 45.9496 15.287 47.6548C15.7113 50.7367 16.7002 53.9688 18.0854 56.8536C19.7107 60.2328 22.1035 63.4806 24.7833 65.9555L25.5476 66.6595L25.61 67.6388C25.6475 68.1739 25.6974 69.2565 25.7192 70.0449C25.7754 71.8659 25.8502 72.1788 26.2995 72.5637C26.5584 72.7858 26.9733 72.9892 27.8219 73.3083C28.165 73.4397 29.2507 73.9372 30.2365 74.4159C32.7385 75.6393 33.5496 75.9679 34.7944 76.2682C35.6679 76.481 35.8675 76.506 37.0062 76.5436L38.095 76.5749L38.4475 77.7983C39.087 79.9853 39.6205 81.7594 39.9169 82.6668C40.285 83.7869 40.7685 85.0979 40.8465 85.1698C40.9245 85.2543 41.692 85.4827 42.4968 85.6642C45.3982 86.3213 49.9217 86.4089 54.2456 85.8895C55.7087 85.7111 56.7163 85.1605 57.0751 84.3438C57.1687 84.1342 57.1749 84.0622 57.1281 83.7493C57.1032 83.5554 57.0595 83.0985 57.0439 82.7387L57.0065 82.0817L57.4682 81.9941C58.9781 81.7031 59.7331 81.3057 60.0638 80.6299C60.173 80.4015 60.2041 80.2513 60.226 79.8132C60.2634 79.1405 60.201 78.7087 59.8735 77.2507C59.4305 75.3296 59.3431 74.6006 59.4585 73.9091L59.5241 73.5336L59.8516 73.4241C60.5535 73.1894 60.8655 72.8421 60.8655 72.2852V72.0161L61.1931 71.8659C61.973 71.5124 62.8278 71.3497 64.085 71.309L64.9929 71.284L65.1395 71.5405C65.2237 71.6751 65.3735 71.8941 65.4826 72.0192C65.6761 72.2445 65.6854 72.2476 66.2189 72.3415C67.8505 72.6231 69.5257 72.6262 70.8017 72.3572C71.7938 72.1475 72.1244 71.9817 72.6298 71.4404C73.5688 70.4235 74.2177 68.4711 74.2146 66.6345C74.2146 65.821 74.1678 65.5362 73.8403 64.3942C73.3848 62.8079 72.792 61.1934 72.3491 60.3329C72.0745 59.7979 71.6471 59.3286 71.1854 59.0532C71.0201 58.9594 70.8859 58.8592 70.8859 58.8342C70.8859 58.8123 71.0045 58.5839 71.1511 58.3242C71.566 57.5858 72.3959 55.8305 72.7515 54.9607C73.9651 51.9257 74.6607 48.9157 74.9415 45.4677C75.0195 44.5009 75.0195 41.9165 74.9415 40.9371C74.667 37.5173 73.9713 34.4917 72.7515 31.4473C72.3459 30.4367 71.3352 28.3716 70.783 27.4267C69.5257 25.2866 67.994 23.2716 66.2657 21.4912L65.4577 20.659L65.3641 19.6296C65.049 16.0157 64.2005 13.0652 62.9245 11.1065C61.9948 9.67979 60.0762 7.61787 58.3511 6.19736C56.3014 4.50465 53.8182 3.55347 50.3304 3.11543C49.7127 3.03721 46.8051 2.96838 46.228 3.01531L46.2217 3.01844ZM50.1432 4.98336C52.1304 5.30564 54.0989 5.92515 55.8678 6.79498C57.1125 7.40823 57.7427 7.8713 58.7597 8.92573C59.471 9.66414 61.2929 11.9388 61.3959 12.2204C61.4333 12.308 61.4115 12.3143 61.1868 12.283C60.2385 12.1578 59.7705 12.1954 59.2246 12.4551C58.5538 12.768 58.1764 13.2999 58.1483 13.9601C58.142 14.079 58.1545 14.1947 58.1701 14.2104C58.1857 14.226 58.2855 14.1791 58.3947 14.1071C58.8034 13.8255 59.1216 13.7411 59.7955 13.7411C60.3601 13.7411 60.4662 13.7567 60.9123 13.9131C61.6236 14.1541 62.1539 14.4857 62.703 15.0364C63.7044 16.0345 64.0476 17.2235 64.2348 20.3742C64.3284 21.8949 64.3596 24.9392 64.2909 25.8936C63.9946 30.0956 62.884 33.991 61.1463 36.951C60.7626 37.608 59.4242 39.6167 59.0998 40.0235C58.6693 40.5585 58.1077 41.0654 57.4838 41.4722C55.6089 42.6955 53.6372 43.4934 51.7935 43.7844C51.0416 43.9002 49.6378 43.9002 48.9702 43.7844C48.2589 43.6592 47.2013 43.2838 46.2436 42.8176C43.7478 41.5942 42.0695 39.9734 39.3772 36.1781L39.0465 35.7088L39.0777 35.9685C39.2368 37.1356 39.9138 38.3308 41.2833 39.8983C42.865 41.7006 44.0255 42.7612 45.0269 43.3244C45.2141 43.4277 45.4013 43.5497 45.4418 43.5904C45.5105 43.653 45.4824 43.6592 45.2609 43.6279C45.1143 43.6123 44.7118 43.581 44.3531 43.5654C43.2986 43.5122 42.5998 43.7312 42.2504 44.2162L42.0944 44.4352L41.5485 44.4039C38.5224 44.2318 36.6911 43.6686 35.5992 42.5704C34.4106 41.3783 32.7073 37.4203 32.3329 34.9735C32.2081 34.1819 32.2393 34.1037 32.8321 33.4591C33.4872 32.752 33.5995 32.4923 33.4435 32.0386C33.3874 31.8759 33.3749 31.8728 33.1534 31.9041C32.8508 31.9448 32.6823 32.0355 32.127 32.461C31.8712 32.655 31.5936 32.8428 31.5031 32.8709C31.0196 33.0586 30.2272 33.0274 29.6656 32.7989C28.268 32.2326 27.0076 30.3991 26.6302 28.3935C26.521 27.8272 26.521 26.8103 26.6302 26.3691C26.8797 25.3523 27.5442 24.4386 28.3959 23.938C29.0136 23.5719 29.8653 23.4061 30.5984 23.4937C31.7714 23.6439 32.4203 24.4324 32.8976 26.294L33.0692 26.9605L33.6307 26.9511C34.5604 26.9417 35.3122 26.6914 35.5992 26.3003C35.7022 26.1658 35.7022 26.1501 35.6148 25.5713C35.5618 25.249 35.4245 24.5826 35.2997 24.0976C34.707 21.7478 34.7133 21.3755 35.3996 18.0839C35.7178 16.5633 35.7989 15.9375 35.8051 15.1428C35.8114 14.3981 35.7178 13.8099 35.5088 13.1904C35.437 12.9807 35.3777 12.7492 35.3777 12.6741C35.3777 12.502 35.724 11.8669 36.1577 11.2536C36.5882 10.6341 37.9546 9.25426 38.7532 8.641C39.5113 8.05278 40.9089 7.12663 41.8168 6.61037C44.5278 5.06784 45.4855 4.7925 48.0187 4.83631C49.0919 4.85195 49.4569 4.87698 50.1463 4.98649L50.1432 4.98336ZM39.7609 6.42577C40.0354 6.64479 39.8233 7.02964 39.3397 7.18608C39.1526 7.2424 38.9872 7.35191 38.7844 7.5459C38.6222 7.69609 38.2541 8.00272 37.9577 8.22174C37.1435 8.83499 36.8721 9.14475 36.2606 10.1648C35.5961 11.2692 35.2748 11.6948 34.9722 11.8888C34.6665 12.0859 34.3857 12.1234 33.7929 12.0515C33.169 11.967 32.8477 12.0202 31.7277 12.3894C30.7513 12.7054 30.3894 12.7805 30.3894 12.6647C30.3894 12.624 30.5048 12.3925 30.6483 12.161C31.6497 10.4683 33.5309 8.88506 36.0204 7.63038C36.9189 7.1767 37.4586 6.94829 38.46 6.59786C39.3335 6.29123 39.5456 6.2662 39.7578 6.42577H39.7609ZM34.445 13.278C34.6477 13.813 34.7164 14.2292 34.7413 15.0802C34.7663 16.0689 34.7195 16.6321 34.4668 18.2654C34.186 20.0989 34.1611 20.3523 34.1611 21.2847C34.1611 22.2703 34.1985 22.5144 34.498 23.5406C34.732 24.3416 34.8037 24.9612 34.7008 25.2177C34.629 25.3929 34.4606 25.5024 34.1767 25.5556L33.9895 25.5932L33.952 25.2396C33.8585 24.3072 33.3905 23.4687 32.6324 22.8648C31.8837 22.2703 31.0601 21.9793 30.1055 21.9793C29.441 21.9793 28.973 22.0826 28.321 22.3861C28.0871 22.4893 27.8905 22.5676 27.8749 22.5519C27.8063 22.4831 27.7283 21.0782 27.7252 19.908C27.7252 18.8411 27.7408 18.475 27.8188 18.0651C28.0746 16.6759 28.5207 15.8781 29.5252 15.0301C30.5797 14.1447 31.7464 13.5783 33.0754 13.2999C33.7337 13.1653 33.7929 13.1528 34.1205 13.1434C34.3701 13.1372 34.395 13.1497 34.4481 13.278H34.445ZM26.1185 21.8135C26.1716 21.8604 26.2028 21.995 26.2059 22.1733C26.2059 22.3298 26.2277 22.4581 26.2527 22.4581C26.2745 22.4581 26.2901 22.5738 26.2901 22.7178C26.2901 22.8586 26.2683 22.9775 26.2433 22.9775C26.2215 22.9775 26.2121 23.0338 26.2215 23.0963C26.2371 23.1683 26.2121 23.2591 26.1653 23.306C26.1185 23.3467 26.0811 23.4092 26.0811 23.4405C26.0811 23.4718 26.0593 23.4968 26.0281 23.4968C26.0031 23.4968 25.975 23.5281 25.975 23.5688C25.975 23.6095 25.9376 23.6533 25.897 23.6721C25.8565 23.6877 25.819 23.7346 25.819 23.7753C25.819 23.816 25.7879 23.8754 25.7473 23.8942C25.6787 23.9349 25.3012 25.0237 25.3012 25.1864C25.3012 25.2271 25.2856 25.2646 25.2637 25.2646C25.2388 25.2646 25.2232 25.3429 25.2169 25.4305C25.2169 25.5243 25.1858 25.8842 25.1483 26.2283C24.9861 27.749 25.4072 29.8516 26.1903 31.4348C27.0888 33.2432 28.6299 34.5104 30.3582 34.8671L30.6701 34.936L30.6857 35.1393C30.7637 36.247 31.2317 37.6268 31.865 38.6218C32.5139 39.6418 32.7167 40.2456 32.5669 40.7056C32.4577 41.0435 32.1614 41.2625 30.7232 42.0854C27.6815 43.8282 25.5539 45.1142 24.5462 45.8275C24.2623 46.0309 23.6072 46.4158 23.0987 46.6755C21.7697 47.3638 21.361 47.7799 21.2706 48.5403C21.2082 49.0753 21.4733 50.1422 22.0598 51.7411C22.247 52.2573 22.5371 53.0677 22.7025 53.5433C22.8678 54.022 23.2266 54.9795 23.498 55.6772C24.2031 57.4982 24.3871 58.1146 24.724 59.7478C24.9518 60.8367 25.3511 63.5056 25.3511 63.9061C25.3511 64.2033 23.8755 62.5982 22.637 60.9525C19.9852 57.4325 18.1634 53.3493 17.3117 49.019C17.0933 47.9114 16.928 46.7756 16.9623 46.6285C16.9841 46.5503 16.9716 46.5034 16.9373 46.5034C16.8968 46.5034 16.8843 46.4251 16.9061 46.2437C16.928 46.0716 16.9155 45.984 16.8812 45.984C16.8469 45.984 16.8344 45.8745 16.8593 45.6461C16.8843 45.4083 16.8749 45.3081 16.8344 45.3081C16.7938 45.3081 16.7876 45.1736 16.8125 44.8138C16.8375 44.4696 16.8344 44.3194 16.7907 44.3194C16.747 44.3194 16.7345 43.9752 16.7345 43.1993C16.7345 42.4233 16.7501 42.0792 16.7907 42.0792C16.8313 42.0792 16.8375 41.929 16.8125 41.5848C16.7876 41.225 16.7907 41.0904 16.8344 41.0904C16.878 41.0904 16.8874 40.9903 16.8593 40.7525C16.8344 40.5241 16.8437 40.4146 16.8812 40.4146C16.9186 40.4146 16.928 40.327 16.9061 40.1549C16.8843 39.9922 16.8968 39.8952 16.928 39.8952C16.9654 39.8952 16.9748 39.8013 16.9529 39.6605C16.9436 39.5291 16.9529 39.4259 16.9779 39.4259C17.0028 39.4259 17.0153 39.3414 17.0028 39.2444C16.9935 39.1443 17.0028 39.0629 17.0278 39.0629C17.0527 39.0629 17.0652 38.9785 17.0527 38.8815C17.0434 38.7813 17.0527 38.7 17.0777 38.7C17.1027 38.7 17.1183 38.628 17.1027 38.5435C17.0933 38.4559 17.1027 38.3871 17.1245 38.3871C17.1495 38.3871 17.1775 38.2526 17.1807 38.0899C17.1869 37.924 17.2119 37.7832 17.2368 37.7738C17.2618 37.7676 17.2742 37.7019 17.2586 37.633C17.2493 37.5611 17.2586 37.5016 17.2805 37.5016C17.3054 37.5016 17.3335 37.3921 17.3335 37.2576C17.3398 37.123 17.3647 37.001 17.3959 36.9916C17.4271 36.9822 17.4427 36.9447 17.4271 36.9071C17.3554 36.7257 18.3162 33.3465 18.4504 33.2933C18.4753 33.2839 18.4972 33.2245 18.4972 33.1682C18.4972 33.018 18.7093 32.4485 18.7623 32.4485C18.7873 32.4485 18.8091 32.3922 18.8091 32.3171C18.8091 32.242 18.8341 32.1857 18.8622 32.1857C18.8934 32.1857 18.9152 32.1294 18.9152 32.0543C18.9152 31.9792 18.9402 31.9229 18.9682 31.9229C18.9994 31.9229 19.0213 31.8665 19.0213 31.7977C19.0213 31.7257 19.0587 31.635 19.0993 31.5881C19.1398 31.5474 19.1773 31.4848 19.1773 31.4473C19.1773 31.3378 19.302 31.0374 19.3426 31.0374C19.3644 31.0374 19.3831 30.9999 19.3831 30.9592C19.3831 30.8591 19.6546 30.2927 19.7201 30.2458C19.7513 30.2239 19.8293 30.0831 19.8979 29.9329C20.2099 29.2133 20.2879 29.0631 20.3565 29.0381C20.3939 29.0224 20.4251 28.9598 20.4251 28.9035C20.4251 28.8472 20.4719 28.7565 20.5281 28.7095C20.5842 28.6563 20.631 28.5781 20.631 28.5281C20.631 28.4811 20.6716 28.3966 20.7308 28.3466C20.7839 28.2934 20.84 28.1901 20.8619 28.1088C20.8775 28.0306 20.918 27.968 20.9461 27.968C20.9773 27.968 20.9991 27.9304 20.9991 27.8898C20.9991 27.8491 21.021 27.8115 21.0459 27.8115C21.0709 27.8115 21.1083 27.7552 21.1239 27.6801C21.1458 27.6082 21.1801 27.5487 21.2082 27.5487C21.2394 27.5487 21.2612 27.5112 21.2612 27.4705C21.2612 27.4298 21.283 27.3923 21.308 27.3923C21.3329 27.3923 21.3704 27.336 21.386 27.2609C21.4078 27.1889 21.4421 27.1295 21.4702 27.1295C21.5014 27.1295 21.5232 27.0919 21.5232 27.0512C21.5232 27.0106 21.5482 26.973 21.5763 26.973C21.6075 26.973 21.6293 26.9355 21.6293 26.8948C21.6293 26.8541 21.6543 26.8166 21.6824 26.8166C21.7135 26.8166 21.7354 26.779 21.7354 26.7383C21.7354 26.6977 21.7603 26.6601 21.7884 26.6601C21.8196 26.6601 21.8415 26.6226 21.8415 26.5819C21.8415 26.535 21.8789 26.488 21.9194 26.4724C21.96 26.4505 21.9974 26.4098 21.9974 26.3691C21.9974 26.3285 22.0224 26.2972 22.0505 26.2972C22.0817 26.2972 22.1035 26.2659 22.1035 26.2252C22.1035 26.1845 22.1409 26.1407 22.1815 26.122C22.2221 26.1063 22.2595 26.0594 22.2595 26.0124C22.2595 25.9718 22.2844 25.9342 22.3125 25.9342C22.3437 25.9342 22.3656 25.9029 22.3656 25.8623C22.3656 25.8216 22.403 25.7778 22.4436 25.759C22.4841 25.7434 22.5215 25.6964 22.5215 25.6558C22.5215 25.6182 22.559 25.5713 22.5995 25.5525C22.6401 25.5369 22.6775 25.4899 22.6775 25.4493C22.6775 25.4117 22.715 25.3648 22.7555 25.346C22.7961 25.3304 22.8335 25.2834 22.8335 25.2427C22.8335 25.1958 22.8803 25.1395 22.9365 25.1082C22.9926 25.0769 23.0394 25.0237 23.0394 24.9893C23.0394 24.9549 23.0862 24.8954 23.1424 24.8579C23.1985 24.8204 23.2453 24.764 23.2453 24.7265C23.2453 24.6889 23.2921 24.6326 23.3483 24.5951C23.4044 24.5575 23.4512 24.5012 23.4512 24.4637C23.4512 24.4261 23.523 24.3448 23.6072 24.2822C23.6945 24.2134 23.7632 24.1383 23.7632 24.1007C23.7632 24.0632 23.8474 23.9693 23.9441 23.8911C24.044 23.8129 24.1251 23.719 24.1251 23.6877C24.1251 23.6564 24.2654 23.5 24.437 23.3498C24.6086 23.1933 24.749 23.0432 24.749 23.015C24.749 22.943 25.7504 21.9262 25.819 21.9262C25.8565 21.9262 25.8908 21.8792 25.9064 21.8229C25.9376 21.6977 26.0249 21.6884 26.1341 21.801L26.1185 21.8135ZM66.2345 24.0569C70.0904 28.575 72.4083 33.991 73.0915 40.108C73.2007 41.128 73.2475 44.1286 73.1695 45.2925C72.9106 49.0409 71.9747 52.6015 70.3774 55.9869C70.0717 56.6284 69.3698 57.9394 69.1015 58.3618L68.9673 58.5745L68.4651 58.6433C67.1673 58.8061 65.2892 59.4412 63.6171 60.2829C63.1148 60.5363 63.0462 60.5551 63.0462 60.4393C63.0462 60.3986 63.2178 59.8886 63.4299 59.3098C64.2254 57.1227 65.0022 54.7698 65.8539 51.9789C66.1128 51.1341 66.534 49.7762 66.7898 48.9595C67.3545 47.1542 67.4761 46.616 67.448 45.9402C67.4168 44.9295 67.1049 44.5822 63.5703 41.5347C62.5907 40.6899 61.8108 39.914 61.6704 39.6355C61.4676 39.2444 61.6548 38.6624 62.3754 37.4391C62.9214 36.5192 63.2115 35.8777 63.5578 34.8202C64.3377 32.4767 64.8961 29.911 65.1925 27.3266C65.3079 26.3723 65.4296 24.7015 65.4296 24.1758C65.4296 23.6283 65.4764 23.3435 65.5575 23.3435C65.5887 23.3435 65.8976 23.6658 66.2345 24.0569ZM60.7314 41.4127C60.903 41.5598 61.6392 42.2606 62.3661 42.974C63.093 43.6874 63.9509 44.4696 64.2597 44.7137C65.0958 45.3707 65.5014 45.7806 65.6917 46.178C65.857 46.5096 65.857 46.5159 65.8258 47.0979C65.7884 47.7017 65.6074 48.6247 65.1925 50.3519C64.659 52.5452 63.7918 55.1359 62.5096 58.3555C61.6735 60.4487 61.4863 60.7334 60.8437 60.9212C60.3133 61.0713 60.201 61.087 58.8096 61.1402C57.5275 61.1934 57.0969 61.256 56.707 61.4531C56.4637 61.5782 56.395 61.5845 56.395 61.475C56.395 61.3655 56.7631 60.7366 58.7317 57.4982C60.2665 54.9732 61.3959 53.0771 61.6018 52.6704C61.6798 52.5296 61.6735 52.5045 61.5862 52.3637C61.5331 52.2792 61.3428 52.0414 61.1557 51.8318C60.8187 51.4501 60.6503 51.181 60.6503 51.0152C60.6503 50.9683 60.7345 50.6867 60.8281 50.4019C61.5612 48.2399 61.1868 44.7105 60.1012 43.4965C59.8641 43.2306 59.4461 42.9709 59.2589 42.9709C59.1185 42.9709 58.7285 42.6987 58.7285 42.6017C58.7285 42.5485 58.9563 42.3357 59.262 42.0979C59.5521 41.8726 59.8953 41.566 60.0263 41.4221C60.1573 41.2813 60.2977 41.1624 60.3383 41.1561C60.3788 41.1561 60.5567 41.2719 60.7283 41.4158L60.7314 41.4127ZM33.6962 42.9803C33.8241 43.1054 34.2422 43.5528 34.6103 43.9846C34.9784 44.4133 35.4152 44.917 35.5743 45.0985C36.1046 45.7086 37.2963 46.4251 39.945 47.7268L41.5797 48.534L41.6483 48.9564C41.8105 50.0014 42.7589 53.3086 43.1333 54.094C43.6262 55.1453 44.2189 55.4519 45.1205 55.1234C45.317 55.0514 45.5105 54.992 45.5417 54.992C45.7226 54.992 45.5011 55.4926 45.055 56.0839C44.4685 56.8662 44.3437 57.3636 44.6245 57.7923C44.7742 58.0207 45.2422 58.3492 45.8848 58.6778C47.4634 59.4913 49.3726 60.4049 50.3116 60.796C50.9137 61.0463 51.4129 61.2841 51.4129 61.3154C51.4129 61.3623 51.1852 61.3874 50.5987 61.4155C46.2436 61.597 43.673 61.8004 39.608 62.2854C38.46 62.4199 37.7643 62.4825 37.7175 62.4512C37.599 62.3792 37.4586 61.9506 37.3962 61.4875C37.3088 60.7678 37.3338 58.49 37.4492 57.0195C37.5054 56.2904 37.5522 55.4895 37.5522 55.2454C37.5522 53.9344 36.9251 53.9438 36.6849 55.2611C36.6007 55.746 36.6131 56.1246 36.7722 57.8737C36.8877 59.0564 36.9064 60.4863 36.8253 61.0275C36.7941 61.2153 36.7254 61.5219 36.663 61.7159C36.5695 62.0444 36.5476 62.0695 36.4197 62.0695C36.2076 62.0632 35.88 61.8974 35.3153 61.4969C34.6446 61.0244 34.3857 60.893 34.3295 60.9869C34.2047 61.1809 34.3233 61.5063 34.6633 61.9036C34.9909 62.2791 35.0408 62.6076 34.8068 62.8673C34.6883 63.0144 34.5885 63.0488 34.1673 63.1395C33.4872 63.2866 33.1908 63.5025 33.1908 63.8686C33.1908 63.9937 33.2002 64 33.5184 64C33.6962 64 34.2859 63.9749 34.838 63.9374C35.8332 63.8811 36.3261 63.9061 36.8315 64.0532L37.0187 64.1063L37.0561 64.5381C37.1716 65.8961 37.5958 69.4317 38.0264 72.498C38.1917 73.7213 38.3321 74.7476 38.3321 74.7726C38.3321 74.8978 37.0281 74.7726 35.9455 74.5442C34.2016 74.175 32.779 73.5899 29.8466 72.0443C28.9075 71.5499 27.9529 71.0556 27.7345 70.946L27.329 70.7489V70.2765C27.329 69.1939 27.12 66.3028 26.9078 64.366C26.312 58.9187 25.0859 53.9469 23.3763 50.039C23.1798 49.5916 23.0176 49.1911 23.0176 49.1535C23.0176 49.1128 23.5011 48.7155 24.0907 48.2743C27.5286 45.6867 29.8466 44.2349 32.3361 43.1148C32.7666 42.9208 33.194 42.7675 33.2876 42.7612C33.4186 42.7612 33.5153 42.8144 33.6994 42.9803H33.6962ZM59.1341 44.6073C59.6644 44.8795 60.0388 46.0966 60.1979 48.0522C60.2821 49.1191 60.1293 50.161 59.836 50.5615L59.7424 50.6804L58.8908 50.6241C57.515 50.5365 55.7711 50.2768 54.9506 50.0359L54.7229 49.9733L54.7291 49.166C54.7353 48.7249 54.7385 48.3431 54.7385 48.3212C54.7385 48.268 55.0972 48.0928 55.2844 48.049C55.4872 48.0083 56.0737 47.9489 56.2609 47.9552C56.3389 47.9614 56.4013 47.9395 56.4013 47.9176C56.4013 47.8644 55.8366 47.6986 55.5433 47.6736C55.4279 47.6579 55.3062 47.636 55.2688 47.6266C55.2376 47.6172 55.0972 47.6266 54.9631 47.6485C54.6418 47.7111 54.5638 47.6579 54.4795 47.3575C54.4421 47.223 54.3641 47.0196 54.3142 46.9039C54.23 46.738 54.2268 46.6942 54.283 46.6598C54.3204 46.6348 54.3703 46.6129 54.3984 46.6129C54.4203 46.6129 54.8508 46.3438 55.3593 46.0027C56.8817 44.9984 57.5337 44.6386 58.0235 44.5572C58.1171 44.5353 58.1951 44.5197 58.2013 44.5165C58.2543 44.4633 59.0124 44.5384 59.1403 44.6041L59.1341 44.6073ZM55.2033 44.6104C55.2033 44.6511 55.1565 44.7105 55.1035 44.7418C55.0473 44.7668 54.5731 45.1329 54.0553 45.5491L53.1038 46.3031L52.8136 46.3125C51.703 46.35 50.8576 46.2124 50.2025 45.8964C49.7002 45.6461 49.1792 45.2862 49.1792 45.183C49.1792 45.0797 49.4132 45.0328 49.5848 45.0985C49.8437 45.2018 50.4458 45.3113 50.8108 45.3113C51.3131 45.3113 52.1304 45.1799 53.1506 44.9358C54.0022 44.7324 54.9194 44.5447 55.1128 44.5353C55.1596 44.5291 55.2002 44.5666 55.2002 44.6073L55.2033 44.6104ZM38.0887 44.867C38.4662 44.9921 39.1307 45.0922 40.2132 45.183C41.6889 45.3019 41.6577 45.2988 41.6577 45.4802C41.6577 45.5647 41.6109 45.815 41.5578 46.0309C41.5017 46.2562 41.4393 46.5566 41.4174 46.7036C41.3862 46.9602 41.3706 46.979 41.2459 46.979C41.0088 46.979 40.0822 46.7286 39.502 46.5159C38.095 45.984 37.2527 45.33 37.3743 44.8545C37.4367 44.6104 37.4929 44.5791 37.6769 44.6886C37.7705 44.7418 37.9577 44.82 38.0919 44.867H38.0887ZM44.4435 45.0484C44.4997 45.0735 44.559 45.0891 44.5746 45.0797C44.6463 45.0078 46.6866 45.6836 47.3947 46.0153C48.4835 46.5315 48.7705 46.6817 49.3477 47.0634C49.6752 47.2825 50.2305 47.4952 50.5363 47.5265C50.608 47.5328 50.6922 47.5422 50.7234 47.5422C50.7546 47.5484 50.7796 47.6454 50.7858 47.7549C50.7952 47.9489 50.7796 47.9677 50.5581 48.0928C50.3366 48.218 49.8468 48.3901 49.7688 48.3744C49.7314 48.3682 49.5816 48.4057 48.9889 48.5715C48.7144 48.6498 48.652 48.7812 48.9171 48.728C49.2198 48.6654 50.7328 49.0941 50.8888 49.2849C50.92 49.3225 50.9293 49.5509 50.9137 49.8669L50.8825 50.3925L50.6704 50.5427C50.555 50.6303 50.0621 51.0277 49.5754 51.4345C49.0918 51.8349 48.5054 52.3043 48.2776 52.4639C47.3136 53.1616 45.2578 53.9532 44.4061 53.9532C44.1565 53.9532 44.1004 53.9313 43.9756 53.803C43.8913 53.7154 43.8196 53.5934 43.8102 53.5277C43.7946 53.4182 43.4764 52.5077 43.3704 52.2636C43.1457 51.7567 42.7745 50.6241 42.7215 50.2955C42.7059 50.2017 42.684 50.0703 42.6684 49.9983C42.5499 49.4007 42.4906 47.8519 42.5655 47.0321C42.5811 46.8194 42.5967 46.6066 42.6029 46.5628C42.6341 46.178 42.9305 45.4583 43.1426 45.2612C43.361 45.0578 43.6199 44.9702 44.0005 44.9796C44.194 44.9859 44.3936 45.0172 44.4529 45.0484H44.4435ZM53.0133 47.2918C53.2972 47.417 53.3596 47.4858 53.5156 47.8237C53.709 48.2368 53.6965 48.7906 53.4937 49.1723C53.2847 49.579 52.9852 49.7355 52.4393 49.7386C51.806 49.7386 51.8216 49.748 51.6562 48.9877C51.572 48.6279 51.5252 48.3056 51.5408 48.2806C51.5564 48.2493 51.547 48.2274 51.519 48.2274C51.4815 48.2274 51.4628 48.096 51.4628 47.8988C51.4628 47.5953 51.4722 47.5703 51.6094 47.5015C52.2646 47.1729 52.6202 47.1229 53.0102 47.2887L53.0133 47.2918ZM54.1457 50.5678C54.2643 50.6241 54.5513 50.7962 54.779 50.9589C55.2938 51.3187 55.6868 51.5064 56.03 51.5471L56.2952 51.5784V51.8913C56.2952 52.0665 56.2734 52.4701 56.2422 52.783C56.2172 53.1021 56.1704 53.9344 56.1392 54.6353C56.0612 56.4093 55.9739 57.2792 55.718 58.853C55.6089 59.5507 55.4435 60.1296 55.3562 60.1452C55.2563 60.1609 54.6542 58.9312 53.7776 56.9006C52.6732 54.3443 52.0555 53.1678 51.2819 52.1228C51.0947 51.8662 50.9512 51.6284 50.9605 51.5909C50.9699 51.5502 51.0947 51.3781 51.2351 51.1998L51.494 50.8806L51.728 50.9182C52.1117 50.9745 52.2677 50.9495 52.8292 50.7054C53.4407 50.4395 53.7838 50.4051 54.1489 50.5709L54.1457 50.5678ZM58.9688 51.4845C59.3587 51.5878 59.8142 51.8318 60.1199 52.104C60.4319 52.3794 60.7594 52.7955 60.7594 52.9175C60.7594 53.0208 59.2121 55.7179 58.2949 57.2166C57.4183 58.6496 56.2172 60.3705 56.0581 60.4331C55.9551 60.4737 55.9645 60.4018 56.1423 59.7197C56.5167 58.2554 56.8162 56.0996 57.0002 53.5902C57.0408 53.002 57.0782 52.3293 57.0782 52.0915C57.0782 51.6691 57.0845 51.6597 57.2249 51.6065C57.7739 51.3938 58.4509 51.3468 58.975 51.4814L58.9688 51.4845ZM50.3335 52.7955C51.4534 54.385 52.146 55.721 53.5717 59.1221C53.8681 59.8355 54.1114 60.4487 54.1114 60.4925C54.1114 60.6177 53.9617 60.5864 53.0632 60.2797C51.4534 59.7228 49.9591 59.0877 48.1871 58.2022C46.9455 57.5827 45.7538 56.9319 45.7538 56.8818C45.7538 56.8599 45.8006 56.6878 45.863 56.5063C46.1438 55.6365 46.7458 54.7949 47.5913 54.0783C48.0904 53.6559 49.8811 52.4013 49.9903 52.3981C50.0215 52.3981 50.1775 52.5765 50.3335 52.7955ZM69.9157 60.2516C70.4492 60.5113 70.9889 61.0494 71.2447 61.5782C71.5723 62.2541 71.9185 63.4305 72.4239 65.5143C72.6329 66.3779 72.6579 66.5594 72.6829 67.2853C72.7047 67.9893 72.6922 68.1488 72.5986 68.5493C72.3272 69.6945 71.6752 70.5737 70.7923 70.9898C69.9251 71.3997 67.7382 71.5687 66.6182 71.3121C66.3312 71.2495 66.2594 71.212 66.2594 71.1338C66.2594 70.9679 66.9239 70.7583 68.1687 70.5299C69.1701 70.3484 69.6287 70.242 69.6599 70.192C69.6848 70.1513 69.5881 70.12 69.036 69.9823C68.7084 69.8979 67.0518 69.8979 66.1035 69.9761C65.7197 70.0136 65.024 70.0543 64.5623 70.07L63.7263 70.1075L63.6951 69.8259C63.6795 69.6695 63.5921 68.8153 63.5016 67.9298C63.277 65.6395 63.0462 64.1502 62.7498 63.1145L62.6656 62.8298L62.8902 62.6358C63.3207 62.2666 64.3128 61.8223 66.0941 61.2184C67.1017 60.8742 67.7507 60.6083 68.1562 60.3705C68.6335 60.0889 68.7895 60.042 69.1951 60.0576C69.4758 60.0732 69.6412 60.1139 69.9157 60.2453V60.2516ZM61.2773 62.9393C61.4739 63.0582 61.9636 64.3879 62.1851 65.3861C62.4378 66.5312 62.6531 68.6933 62.6157 69.7758L62.6001 70.3109L61.9262 70.5393C61.5581 70.6644 61.1057 70.7833 60.931 70.799L60.6128 70.8365L60.5816 70.6113C60.566 70.4861 60.513 70.0168 60.4724 69.5756C60.4256 69.1344 60.2478 67.8672 60.0762 66.7628C59.7643 64.7384 59.5615 63.2678 59.5615 63.0394C59.5615 62.9205 59.5833 62.9143 59.9671 62.8924C60.5005 62.8611 61.1962 62.8861 61.2742 62.933L61.2773 62.9393ZM50.817 62.9643C52.0056 63.0363 54.1457 63.2835 54.2549 63.3554C54.2799 63.3711 54.4203 64.5381 54.4733 65.1514C54.5451 66.0056 54.5731 66.4843 54.6605 68.6651C54.7385 70.4235 54.7603 70.7176 54.9194 72.4135C55.0192 73.4554 55.091 74.8196 55.1534 76.8658C55.247 79.9384 55.3624 81.4465 55.5995 82.8733C55.6681 83.2988 55.718 83.6555 55.7149 83.6586C55.6619 83.6899 54.8258 83.9027 54.3236 84.0184C52.8323 84.347 51.3755 84.4878 49.5723 84.4878C47.479 84.4815 45.8879 84.3251 43.9912 83.9465C43.1333 83.7744 41.7325 83.4208 41.6826 83.3645C41.6733 83.3551 41.5173 82.8545 41.3301 82.2506C39.9949 77.9328 39.0621 73.6869 38.3383 68.6682C38.0482 66.6751 37.7518 64.1032 37.7986 64.0594C37.8548 64.0062 40.5439 63.5713 41.7606 63.4086C43.4359 63.1958 45.3233 63.03 46.9767 62.9518C47.7972 62.9111 50.0777 62.9174 50.817 62.9643ZM57.8613 63.3022C58.142 64.3473 58.3292 65.8648 58.5788 69.1344C58.6661 70.2483 58.7566 71.3528 58.7816 71.5812C58.8128 71.8534 58.8128 72.0067 58.7753 72.0286C58.7223 72.0599 57.281 72.3259 56.3108 72.4823C55.9208 72.5449 55.7243 72.5543 55.7243 72.523C55.7243 72.4917 55.6869 72.0067 55.6463 71.4498C55.4747 69.1657 55.4092 67.6701 55.3749 65.5769C55.3593 64.3692 55.3593 63.3805 55.3749 63.3805C55.3905 63.3805 55.5527 63.3429 55.7274 63.296C56.1174 63.1958 56.8287 63.1301 57.4027 63.1395C57.8176 63.1458 57.8207 63.1458 57.8613 63.3022ZM57.7271 73.7213C57.8207 73.7464 57.8457 73.8058 57.8737 74.0686C57.8956 74.2439 58.0391 75.001 58.1951 75.7457C58.585 77.6105 58.688 78.277 58.7192 79.1812L58.7504 79.9634L58.1576 80.1574C57.8301 80.2607 57.4526 80.3702 57.306 80.4015C57.0221 80.4578 56.1392 80.536 56.1392 80.5047C56.1392 80.4953 56.0924 79.7225 56.03 78.7932C55.9739 77.8608 55.9115 76.4028 55.8959 75.5486L55.8647 74.0029H56.03C56.1236 74.0029 56.4262 73.9466 56.7007 73.8778C56.9753 73.8058 57.2779 73.737 57.359 73.7276C57.4463 73.7182 57.5399 73.7026 57.5649 73.7026C57.5961 73.6963 57.6678 73.7088 57.7271 73.7245V73.7213ZM44.7181 12.915C44.2813 12.987 43.6698 13.2623 43.0833 13.6534C42.5904 13.9757 41.7918 14.7892 41.458 15.2992C41.0119 15.9813 40.7218 16.8918 40.7997 17.3611C40.8372 17.5708 41.0743 17.8774 41.1991 17.8774C41.2365 17.8774 41.3613 17.6834 41.4736 17.4456C41.9166 16.5383 42.5904 15.6653 43.2081 15.2054C43.5669 14.9394 44.1284 14.686 44.5995 14.5702C44.8959 14.4982 45.1205 14.4857 45.7164 14.5076C46.1219 14.5233 46.5119 14.5483 46.5774 14.5702C46.6772 14.6015 46.7022 14.5796 46.7708 14.42C46.8956 14.129 46.8706 13.91 46.6835 13.6284C46.3185 13.0871 45.4949 12.7836 44.7212 12.915H44.7181ZM61.4863 18.5376C61.4863 19.2447 61.6579 19.9425 62.1196 21.1001C62.26 21.4537 62.3692 21.7916 62.3567 21.8542C62.3318 22.02 61.8638 22.1358 60.9498 22.1984C60.1449 22.2547 60.0669 22.2672 59.6832 22.3642C59.4804 22.4174 59.4585 22.4362 59.4585 22.577C59.4585 23.0776 59.8173 23.5344 60.3196 23.6846C61.1338 23.9192 62.5314 23.4906 63.2677 22.7897C63.72 22.3517 63.7138 22.383 63.3457 21.7697C63.0462 21.2754 62.4441 20.0676 61.8139 18.6972C61.6735 18.3843 61.5425 18.134 61.5238 18.134C61.4988 18.134 61.4832 18.3154 61.4832 18.5345L61.4863 18.5376ZM48.2215 18.4437C48.0967 19.179 48.5584 20.5995 49.3882 22.0263C49.5754 22.3423 49.7002 22.6145 49.6908 22.6833C49.6534 22.9524 48.8548 23.1777 48.1747 23.1089C47.9719 23.087 47.4883 23.015 47.1046 22.9462C46.1687 22.7803 46.0439 22.7803 45.9691 22.9618C45.8224 23.3154 45.8131 23.4499 45.8973 23.6595C46.125 24.2415 47.0485 24.5919 48.3618 24.5919C49.4475 24.5919 49.8686 24.4511 50.4801 23.8848C50.7359 23.6439 50.8077 23.5406 50.8732 23.3029C50.9668 22.9806 50.9449 22.6583 50.8108 22.3955C50.764 22.3016 50.4614 21.9574 50.1463 21.6258C49.4912 20.9374 49.3508 20.709 48.8392 19.5013C48.6457 19.0476 48.4398 18.5783 48.3774 18.45L48.2589 18.2216L48.2215 18.4437ZM54.935 19.3918C54.857 19.4325 54.8414 19.5169 54.8414 19.8236C54.8414 21.2503 55.6681 23.1245 57.1157 25.0081C57.49 25.4868 58.7473 27.0012 59.2589 27.5863C59.7767 28.1808 59.9546 28.6845 59.8235 29.2352C59.7393 29.5887 59.5334 30.0017 59.418 30.0424C59.3712 30.0581 58.8408 30.3021 58.2387 30.5837C56.8474 31.2283 56.3794 31.4222 55.7992 31.5881C55.1097 31.7821 54.5887 31.8478 54.0303 31.8134C53.1256 31.7602 52.9415 31.585 52.6639 30.5055C52.5765 30.1676 52.5017 29.8766 52.5017 29.8703C52.5017 29.8609 52.4829 29.8484 52.4486 29.8484C52.3613 29.8484 52.1429 30.349 52.0836 30.7026C51.9744 31.3159 52.1928 32.0887 52.6171 32.5831L52.798 32.7927L53.5811 32.8083C55.6993 32.8615 57.6554 32.2264 60.045 30.7214L60.8187 30.2333L60.9061 29.8735C60.9529 29.6763 61.0527 29.3478 61.1245 29.1507C61.1962 28.9473 61.2867 28.6501 61.3179 28.4905C61.4208 27.9899 61.3803 27.9117 60.5036 27.0481C58.245 24.8297 55.7836 21.4005 55.4903 20.052C55.4342 19.7985 55.3562 19.5952 55.2657 19.495C55.1315 19.3292 55.0692 19.3136 54.9288 19.3949L54.935 19.3918ZM29.3162 25.055C28.8171 25.2271 28.4427 25.6339 28.2462 26.2252C28.1214 26.5913 28.1307 26.6101 28.3553 26.4067C28.6673 26.1032 28.7796 26.0469 29.076 26.0469C29.2226 26.0469 29.363 26.0688 29.3786 26.1001C29.3942 26.1251 29.3474 26.3441 29.2694 26.5788C29.154 26.9386 29.1259 27.1295 29.1041 27.7177C29.0791 28.5343 29.1602 29.06 29.4004 29.5606C29.7062 30.202 29.6999 30.2114 29.728 28.8535C29.753 27.7928 29.7686 27.5925 29.8684 27.2859C30.0493 26.7196 30.4019 26.4786 30.8324 26.6194C31.0913 26.7071 31.2941 26.9699 31.6466 27.6926C31.8244 28.0525 32.0397 28.4279 32.1333 28.5374L32.2986 28.7314L32.3361 28.3716C32.4983 26.876 31.6497 25.4618 30.3488 25.0613C29.9401 24.9361 29.6687 24.9299 29.3162 25.055ZM61.1993 32.2764C59.2214 33.3277 58.532 33.5999 57.4152 33.7814C57.1625 33.8221 56.9316 33.8847 56.9066 33.9222C56.8598 34.0004 56.8505 35.2551 56.8973 35.5367C56.9285 35.7307 56.9378 35.7338 57.1469 35.7338C57.4994 35.7338 58.2793 35.5461 58.7566 35.3552C59.9546 34.8671 61.1338 33.6844 61.9792 32.1262C62.0822 31.9323 62.1602 31.7789 62.1508 31.7789C62.1446 31.7789 61.7141 32.0042 61.1993 32.2796V32.2764ZM48.3307 33.2933C48.6894 33.9598 49.6378 34.6888 50.7141 35.1049C52.0056 35.6149 54.0365 35.9309 55.6182 35.8809L56.1111 35.8652L56.1018 35.1612C56.0955 34.7764 56.0706 34.354 56.0487 34.2226L56.0019 33.9879L54.2175 33.9566C51.2787 33.9034 49.7688 33.6719 48.2776 33.0493C48.1934 33.0117 48.1996 33.0461 48.3307 33.2933ZM47.2263 34.8546C46.9611 34.9328 46.9268 35.0642 47.1015 35.2958C47.1857 35.4115 47.3729 35.6149 47.5227 35.7589C47.6693 35.8997 48 36.3158 48.2589 36.6787C48.5178 37.0417 48.8704 37.511 49.0482 37.7206C49.9654 38.797 50.9793 39.1693 52.9977 39.1693C54.6542 39.1693 56.1735 38.8627 56.6945 38.4184C56.8567 38.2838 57.228 37.7613 57.228 37.6737C57.228 37.6487 56.3825 37.6362 55.3437 37.6487C52.2396 37.6862 50.9481 37.5079 49.6752 36.8821C48.8142 36.4566 48.2121 35.8778 47.8689 35.1487C47.7192 34.8265 47.688 34.7952 47.5476 34.8014C47.4634 34.8014 47.3136 34.8265 47.2263 34.8546ZM53.8743 52.3888C53.5623 52.5765 53.5218 53.0333 53.787 53.2993C54.1707 53.6841 54.7884 53.4025 54.7884 52.8424C54.7884 52.686 54.7509 52.6078 54.6106 52.467C54.4015 52.2573 54.1332 52.2292 53.8743 52.3888ZM54.6605 55.1453C54.3797 55.2391 54.2206 55.4582 54.2206 55.7429C54.2206 55.9056 54.258 55.9807 54.3984 56.1246C54.5482 56.2748 54.6106 56.303 54.8133 56.303C55.0005 56.303 55.0847 56.2717 55.2189 56.1528C55.3686 56.0182 55.3905 55.9713 55.3905 55.7366C55.3905 55.5114 55.3718 55.4488 55.2345 55.3205C55.0723 55.1641 54.8414 55.0921 54.6636 55.1484L54.6605 55.1453ZM67.5603 62.5482C66.2844 62.7766 65.2455 63.2991 64.6528 64.0062L64.4344 64.2659H64.6778C65.2237 64.2659 65.7946 64.0281 67.0394 63.2772C67.7912 62.8235 68.2373 62.5888 68.5462 62.495C68.8051 62.4105 68.1156 62.448 67.5603 62.5482ZM66.4841 64.7321C66.1222 64.801 65.6948 64.9699 65.5076 65.1232C65.3766 65.2327 65.361 65.264 65.4296 65.311C65.545 65.3892 67.2609 65.3266 68.4651 65.2014C69.011 65.1451 69.4977 65.0982 69.5538 65.0919C69.7254 65.0826 69.1171 64.9042 68.593 64.8166C68.0002 64.7133 66.8553 64.6664 66.4841 64.7321ZM66.0161 66.8942C65.726 66.9724 65.3516 67.1476 65.3048 67.2227C65.258 67.2978 66.038 67.3385 68.1531 67.3698C69.922 67.3885 70.1091 67.3854 69.9594 67.3166C69.716 67.2008 68.802 66.9849 68.203 66.8942C67.5479 66.794 66.378 66.794 66.0161 66.8942Z" fill="#7B7B7B"></path>
</svg>
