<?xml version="1.0" encoding="UTF-8"?>
<svg xmlns="http://www.w3.org/2000/svg" width="89" height="89" viewBox="0 0 89 89" fill="none">
  <path d="M51.4688 48.8987C51.3594 48.8763 51.2479 48.8675 51.1365 48.8726C50.9441 48.8831 50.7557 48.9336 50.5827 49.0211C50.2468 49.1887 49.9865 49.4836 49.856 49.8445C49.7254 50.2055 49.7347 50.6045 49.8819 50.9585L49.8718 50.9734L53.1862 59.2461C56.3571 57.1556 58.7632 54.0329 60.0243 50.3715L51.4835 48.8802L51.4688 48.8987ZM38.1796 50.0711C38.1078 49.745 37.932 49.4532 37.6806 49.2426C37.4292 49.0319 37.1166 48.9144 36.7929 48.9091C36.6974 48.9079 36.6019 48.9166 36.5081 48.9352L36.4937 48.9172L28.0271 50.402C29.2985 54.0345 31.6947 57.132 34.8439 59.214L38.1248 51.0232L38.0991 50.9911C38.2203 50.7012 38.2485 50.3788 38.1796 50.0711ZM45.2703 53.2834C45.1467 53.0452 44.9628 52.8462 44.7382 52.7076C44.5136 52.5689 44.2569 52.4959 43.9953 52.4962C43.7337 52.4965 43.477 52.5702 43.2528 52.7094C43.0286 52.8486 42.8451 53.0481 42.722 53.2866H42.715L38.5515 61.0651C41.5326 62.1137 44.7375 62.284 47.807 61.5569C48.3762 61.4231 48.9322 61.2626 49.475 61.0755L45.3018 53.283L45.2703 53.2834ZM58.4507 35.2145L52.0447 41.1383L52.0482 41.1572C51.8514 41.3349 51.7049 41.5644 51.6241 41.8213C51.5434 42.0782 51.5315 42.3528 51.5897 42.6161C51.6479 42.8794 51.774 43.1216 51.9546 43.3168C52.1352 43.512 52.3637 43.6531 52.6156 43.725L52.6234 43.7607L60.9209 46.2301C61.2795 42.3786 60.4123 38.5114 58.4507 35.2153V35.2145ZM46.5494 35.8782C46.5614 36.148 46.644 36.4094 46.7882 36.6347C46.9325 36.8599 47.1331 37.0406 47.3687 37.1575C47.6044 37.2744 47.8663 37.3233 48.1266 37.2988C48.387 37.2744 48.636 37.1775 48.8474 37.0186L48.8726 37.0298L55.8822 31.8947C53.214 29.1946 49.7611 27.4749 46.0546 27L46.5416 35.8758L46.5494 35.8782ZM39.1263 37.0515C39.3378 37.2103 39.5869 37.3069 39.8473 37.3311C40.1077 37.3552 40.3695 37.3059 40.6049 37.1885C40.8404 37.0711 41.0406 36.8899 41.1842 36.6643C41.3279 36.4387 41.4097 36.177 41.4209 35.9072L41.4566 35.8895L41.9436 27C41.3557 27.0729 40.7719 27.1767 40.1943 27.3112C37.1217 28.0247 34.3033 29.6115 32.0573 31.8923L39.1127 37.0595L39.1263 37.0515ZM35.3651 43.7683C35.6176 43.6971 35.8467 43.5565 36.0279 43.3613C36.2091 43.1661 36.3356 42.9238 36.394 42.6601C36.4523 42.3965 36.4403 42.1214 36.3591 41.8643C36.278 41.6071 36.1308 41.3776 35.9333 41.2001L35.9402 41.1652L29.4989 35.2125C27.5338 38.5171 26.6903 42.4039 27.1018 46.259L35.3585 43.7976L35.3651 43.7683ZM41.6214 46.3831L43.9975 47.5636L46.3667 46.3859L46.9551 43.743L45.3154 41.6245H42.6766L41.0322 43.7398L41.6214 46.3831Z" fill="#7B7B7B"></path>
  <path d="M83.8728 51.4622L76.9996 21.4671C76.8148 20.6911 76.4608 19.966 75.9633 19.3441C75.4657 18.7222 74.837 18.219 74.1224 17.8708L46.301 4.52513C45.58 4.17942 44.7911 4 43.9922 4C43.1932 4 42.4044 4.17942 41.6833 4.52513L13.8674 17.878C13.1527 18.2259 12.5238 18.729 12.0261 19.3508C11.5284 19.9727 11.1743 20.6978 10.9895 21.4738L4.12733 51.4682C3.95809 52.2263 3.95755 53.0127 4.12576 53.7711C4.17529 54.0021 4.24 54.2296 4.31946 54.452C4.45375 54.8316 4.63156 55.1942 4.84929 55.5325C4.94358 55.6772 5.043 55.8179 5.15109 55.9543L24.4049 80.0051C24.4889 80.1097 24.5816 80.2052 24.6735 80.3024C24.9756 80.6256 25.3168 80.9096 25.689 81.1478C26.1598 81.4455 26.6728 81.6696 27.2106 81.8125C27.6516 81.934 28.1065 81.997 28.5638 82H28.8632L59.4395 81.9929C59.6254 81.992 59.8111 81.9811 59.9957 81.96C60.2607 81.9299 60.523 81.8798 60.7804 81.8101C60.9649 81.7613 61.1468 81.7028 61.3252 81.6349C61.4645 81.5814 61.6034 81.5279 61.7375 81.4633C61.9384 81.3667 62.1332 81.2579 62.321 81.1375C62.8054 80.8315 63.2368 80.4479 63.598 80.0019L64.1851 79.2686L82.8451 55.9463C83.2027 55.4957 83.4837 54.9888 83.6767 54.4461C83.7573 54.2229 83.8232 53.9946 83.874 53.7627C84.0425 53.0045 84.042 52.2182 83.8724 51.4602L83.8728 51.4622ZM55.0154 63.1281C55.0936 63.3588 55.1862 63.5843 55.2928 63.8031C55.1226 64.1024 55.0762 64.4568 55.1638 64.7901C55.5686 65.7215 56.063 66.611 56.64 67.4458C56.963 67.8726 57.2611 68.3178 57.5328 68.7791C57.5999 68.904 57.6875 69.0974 57.751 69.2294C57.8708 69.4307 57.9474 69.6549 57.9759 69.8876C58.0043 70.1204 57.9839 70.3566 57.9161 70.5809C57.8482 70.8053 57.7344 71.013 57.5818 71.1905C57.4293 71.368 57.2415 71.5115 57.0305 71.6117C56.8195 71.712 56.5899 71.7667 56.3566 71.7724C56.1232 71.7782 55.8913 71.7348 55.6756 71.6451C55.4599 71.5554 55.2654 71.4213 55.1044 71.2515C54.9434 71.0817 54.8196 70.8799 54.7408 70.6591C54.6773 70.5283 54.589 70.3539 54.5349 70.2302C54.3447 69.7289 54.1833 69.217 54.0516 68.6971C53.7629 67.7243 53.3803 66.7821 52.9091 65.8841C52.7042 65.6064 52.3991 65.4204 52.0593 65.366C52.0061 65.2737 51.8088 64.9106 51.7031 64.7227C46.7505 66.6071 41.2806 66.593 36.3377 64.6831L35.9609 65.3692C35.692 65.4111 35.4419 65.5335 35.2433 65.7204C34.6755 66.6565 34.2415 67.6681 33.954 68.7256C33.8236 69.2456 33.6631 69.7575 33.4735 70.2588C33.4202 70.3817 33.3311 70.5537 33.2676 70.6841V70.6877L33.2648 70.6908C33.1862 70.9119 33.0624 71.114 32.9013 71.284C32.7402 71.4541 32.5454 71.5883 32.3295 71.6781C32.1136 71.7678 31.8814 71.8111 31.6478 71.8052C31.4142 71.7992 31.1845 71.7441 30.9734 71.6435C30.7623 71.5428 30.5745 71.3988 30.4222 71.2208C30.2699 71.0427 30.1565 70.8346 30.0892 70.6098C30.0219 70.385 30.0022 70.1485 30.0315 69.9156C30.0607 69.6827 30.1382 69.4585 30.259 69.2576C30.3217 69.1248 30.4058 68.9325 30.472 68.8077C30.7436 68.3451 31.0416 67.8987 31.3644 67.4707C31.9519 66.6139 32.4565 65.7026 32.8715 64.7493C32.9156 64.4261 32.864 64.097 32.7231 63.8031L33.0261 63.0738C28.4691 60.3716 25.0538 56.0875 23.4245 51.0294L22.699 51.1535C22.4175 50.9528 22.0857 50.8354 21.7411 50.8146C20.7484 51.0054 19.7765 51.2928 18.8391 51.6727C18.3523 51.8926 17.8535 52.0845 17.3451 52.2474C17.2247 52.2807 17.0511 52.314 16.9139 52.3441C16.9028 52.3481 16.8933 52.3529 16.8823 52.3556C16.8738 52.3569 16.8652 52.3577 16.8567 52.358C16.6357 52.4311 16.4019 52.4569 16.1704 52.434C15.9389 52.411 15.7147 52.3397 15.5121 52.2247C15.3096 52.1097 15.1332 51.9535 14.9942 51.766C14.8553 51.5785 14.7568 51.364 14.7051 51.1361C14.6534 50.9082 14.6497 50.672 14.6941 50.4425C14.7385 50.2131 14.8301 49.9955 14.963 49.8037C15.096 49.6118 15.2673 49.45 15.4661 49.3286C15.6648 49.2071 15.8867 49.1287 16.1173 49.0983L16.1414 49.0923L16.156 49.0884C16.2953 49.0555 16.4736 49.0091 16.6006 48.9845C17.1303 48.9106 17.6638 48.8675 18.1984 48.8553C19.2067 48.7891 20.2061 48.6242 21.1825 48.363C21.4718 48.1778 21.7164 47.93 21.8981 47.6377L22.5952 47.4331C21.8388 42.154 23.0488 36.7802 25.9932 32.3422L25.4594 31.8642C25.4399 31.5173 25.324 31.1827 25.1248 30.8987C24.358 30.2364 23.5286 29.6509 22.6485 29.1507C22.1733 28.9072 21.7124 28.6364 21.2681 28.3397C21.1671 28.264 21.033 28.1502 20.9233 28.0607L20.8984 28.0432C20.5197 27.7699 20.2641 27.3571 20.1873 26.895C20.1106 26.4329 20.219 25.9591 20.4889 25.577C20.6484 25.3809 20.8516 25.2253 21.0821 25.1228C21.3126 25.0203 21.564 24.9739 21.8157 24.9872C22.2394 25.0055 22.6462 25.1597 22.9763 25.4272C23.0895 25.5164 23.2446 25.6357 23.3452 25.7225C23.7328 26.0908 24.099 26.4812 24.4419 26.8918C25.1224 27.6429 25.8742 28.3255 26.6867 28.9299C26.9912 29.0907 27.3462 29.1253 27.6757 29.0262C27.8741 29.1716 28.0742 29.3145 28.2762 29.4551C31.2021 26.3306 34.9907 24.156 39.1556 23.2107C40.147 22.9852 41.1528 22.8298 42.1658 22.7458L42.2052 22.0386C42.4638 21.8077 42.6514 21.5074 42.7457 21.173C42.782 20.1581 42.7199 19.142 42.5603 18.1392C42.4544 17.6136 42.3785 17.0824 42.333 16.5482C42.3287 16.4265 42.3354 16.2584 42.337 16.1197C42.337 16.1038 42.333 16.0884 42.333 16.0729C42.3094 15.8391 42.3348 15.6028 42.4077 15.3794C42.4806 15.1561 42.5992 14.9505 42.756 14.7761C42.9129 14.6016 43.1043 14.4622 43.3181 14.3667C43.5319 14.2712 43.7632 14.2218 43.9972 14.2217C44.2312 14.2215 44.4626 14.2707 44.6764 14.366C44.8903 14.4613 45.0819 14.6006 45.2389 14.7749C45.3959 14.9492 45.5147 15.1546 45.5878 15.3779C45.6609 15.6012 45.6865 15.8374 45.6631 16.0713C45.6631 16.218 45.6718 16.4126 45.6667 16.547C45.6211 17.0812 45.5448 17.6122 45.4383 18.1376C45.2776 19.1406 45.2145 20.1569 45.2497 21.1722C45.3155 21.5116 45.5107 21.8117 45.7937 22.0085C45.7996 22.1294 45.8193 22.5329 45.8339 22.7553C51.0975 23.2362 56.0085 25.6203 59.6545 29.4646L60.2881 29.01C60.6284 29.0686 60.9782 29.0305 61.298 28.8998C62.1104 28.2944 62.8622 27.611 63.5428 26.8593C63.8865 26.4485 64.2536 26.0581 64.6423 25.69C64.7445 25.602 64.8987 25.4839 65.0116 25.3943C65.1786 25.2288 65.3785 25.1004 65.5981 25.0175C65.8178 24.9347 66.0523 24.8991 66.2866 24.9132C66.5208 24.9273 66.7494 24.9907 66.9577 25.0993C67.1659 25.2079 67.3491 25.3593 67.4953 25.5437C67.6415 25.7281 67.7476 25.9413 67.8065 26.1694C67.8654 26.3976 67.8759 26.6357 67.8373 26.8682C67.7987 27.1008 67.7118 27.3225 67.5824 27.5191C67.4529 27.7158 67.2838 27.8828 67.0859 28.0095C66.9743 28.1003 66.8267 28.2267 66.7194 28.3068C66.2742 28.6037 65.8122 28.8745 65.3359 29.1178C64.4559 29.6183 63.6265 30.2037 62.8595 30.8658C62.6362 31.1284 62.5241 31.4684 62.547 31.8131C62.4543 31.8987 62.1289 32.1884 61.9565 32.3454C64.9092 36.7675 66.1434 42.1248 65.425 47.4006L66.0973 47.5972C66.2652 47.9012 66.5138 48.1524 66.8153 48.323C67.7922 48.5845 68.7921 48.7498 69.8009 48.8165C70.335 48.8288 70.8679 48.8717 71.3971 48.9449C71.5372 48.9707 71.7396 49.0269 71.8824 49.0598C72.1131 49.0903 72.3349 49.1688 72.5336 49.2904C72.7323 49.4119 72.9036 49.5738 73.0365 49.7657C73.1693 49.9576 73.2608 50.1753 73.3052 50.4048C73.3495 50.6342 73.3456 50.8705 73.2938 51.0984C73.242 51.3263 73.1434 51.5408 73.0043 51.7282C72.8653 51.9156 72.6888 52.0717 72.4862 52.1866C72.2836 52.3016 72.0593 52.3727 71.8278 52.3955C71.5962 52.4184 71.3625 52.3923 71.1415 52.3192L71.1174 52.316C71.1064 52.3132 71.0961 52.3073 71.0847 52.3045C70.9474 52.2744 70.775 52.2443 70.6547 52.2125C70.1462 52.0484 69.6477 51.855 69.1614 51.6331C68.2232 51.2529 67.2503 50.9655 66.2566 50.7749C65.9128 50.764 65.5783 50.8888 65.3248 51.1225C65.0881 51.0774 64.8509 51.0356 64.6131 50.9973C63.0032 56.0868 59.5874 60.4042 55.0154 63.1281Z" fill="#7B7B7B"></path>
</svg>
