<svg xmlns="http://www.w3.org/2000/svg" width="63" height="85" viewBox="0 0 63 85">
  <path fill="#FFF" d="M745.008702,66 L747,66.0081069 L746.977424,67.9104269 C746.853698,78.3361331 738.651169,86.9135639 727.543143,89.308253 C738.803294,94.1893678 746.636969,105.643576 746.636969,119.104096 C746.636969,136.94261 732.82015,151 715.318529,151 C697.816838,151 684,136.942628 684,119.104096 C684,103.173155 694.972975,90.0525707 709.614335,87.3119289 L709.605346,87.5906854 C709.861997,75.5461721 720.956882,66.1887644 734.940934,66.0028207 L735.365569,66 L745.008702,66 Z M715.318529,90.5584477 C700.023888,90.5584477 687.784438,103.231886 687.784438,119.104096 C687.784438,120.184473 687.841426,121.248866 687.95255,122.294392 C691.201898,119.402753 695.518878,117.727605 700.14183,117.727605 C710.092274,117.727605 718.077607,125.389999 718.077607,134.973797 C718.077607,139.669182 716.135064,143.989709 712.801992,147.11568 C713.62934,147.189433 714.468957,147.227035 715.318529,147.227035 C730.721659,147.227035 742.852531,134.866733 742.852531,119.104096 C742.852531,103.231904 730.613099,90.5584477 715.318529,90.5584477 Z M700.14183,121.50057 C695.603075,121.50057 691.445826,123.516987 688.811829,126.874343 C691.378963,136.300106 698.536248,143.588828 707.763067,146.19179 L707.640872,146.264623 C711.695613,143.933552 714.173246,139.865204 714.28893,135.308098 L714.293168,134.973797 C714.293168,127.491843 708.018083,121.50057 700.14183,121.50057 Z M743.055318,69.7727339 L735.365569,69.7729649 C723.998095,69.7729649 714.830935,76.6487679 713.540639,85.7956547 L713.488506,86.2019942 L721.219158,86.2022664 C732.382649,86.2022664 741.558308,79.2963586 742.998159,70.1790318 L743.055318,69.7727339 Z" transform="translate(-684 -66)"/>
</svg>
