<?xml version="1.0" encoding="UTF-8"?>
<svg xmlns="http://www.w3.org/2000/svg" width="98" height="53" viewBox="0 0 98 53" fill="none">
  <g clip-path="url(#clip0_138_10604)">
    <path fill-rule="evenodd" clip-rule="evenodd" d="M46.8195 22.0856V22.8604C48.5959 22.793 49.769 22.7594 50.3388 22.7931C50.9757 22.7931 52.0818 22.8267 53.6906 22.8941V22.1192C52.9502 22.1192 52.481 22.0983 52.283 22.0894H52.283L52.2829 22.0894C52.23 22.0871 52.1965 22.0856 52.1823 22.0856C52.0147 22.0519 51.9142 22.0182 51.8471 21.9508C51.7801 21.8834 51.7131 21.816 51.6796 21.715C51.579 21.4791 51.5455 21.1759 51.512 20.7042C51.512 20.6336 51.5079 20.4315 51.5011 20.0977L51.5011 20.0971C51.4885 19.4754 51.4667 18.3976 51.4449 16.8635V15.2801C51.4449 14.5726 51.4784 14.1009 51.512 13.8651C51.5455 13.6293 51.6125 13.4271 51.7131 13.2587C51.9477 12.9218 52.2158 12.5849 52.551 12.3153C52.8862 12.0458 53.2214 11.81 53.6236 11.6752C54.0258 11.5405 54.4615 11.4731 54.9643 11.4731C55.7687 11.4731 56.4055 11.6415 56.8748 12.0121C57.344 12.3827 57.6457 12.787 57.8133 13.2587C57.9809 13.7303 58.0479 14.5052 58.0479 15.5496V18.885C58.0479 20.1652 57.9809 21.4791 57.8468 22.8267C58.3375 22.8134 58.7599 22.8001 59.1163 22.7888C59.6605 22.7717 60.0505 22.7594 60.2936 22.7594C60.6183 22.7594 61.0714 22.7755 61.6641 22.7966H61.6641H61.6642H61.6642H61.6643C61.928 22.806 62.2193 22.8164 62.5393 22.8267V22.0519C61.857 22.0519 61.4213 22.0312 61.2321 22.0222L61.232 22.0222L61.231 22.0222L61.1836 22.02L61.1597 22.019C61.147 22.0184 61.1376 22.0182 61.1315 22.0182C60.9639 21.9845 60.8634 21.9508 60.7963 21.8834C60.7293 21.816 60.6623 21.7486 60.6288 21.6476C60.5282 21.4454 60.4947 21.1422 60.4612 20.7042C60.4612 20.5695 60.4612 19.8957 60.4276 18.7165L60.3941 16.8298V14.4378C60.3941 13.2587 60.2601 12.3827 59.9584 11.7763C59.6903 11.2036 59.154 10.6982 58.4166 10.2939C57.6457 9.88963 56.8748 9.68749 56.0368 9.68749C55.6011 9.68749 55.1319 9.75487 54.6626 9.88963C54.6024 9.90777 54.5444 9.92483 54.4888 9.94119L54.4877 9.94153L54.4876 9.94154L54.4875 9.94156L54.4874 9.94161C54.2336 10.0162 54.029 10.0764 53.8917 10.1592C53.7912 10.2265 53.6571 10.3276 53.4895 10.4961L53.4895 10.4961C53.3889 10.5972 53.0537 10.9341 52.4505 11.4394L52.1925 11.67L52.1923 11.6702L52.1921 11.6704L52.1919 11.6706L52.1915 11.671L52.1914 11.671C51.749 12.0667 51.4914 12.2972 51.3779 12.3827V8.40725L51.4114 6.28476C51.4114 5.29152 51.4366 4.09565 51.4652 2.74106L51.4652 2.74025L51.4784 2.10715V1.66917C51.512 1.5681 51.512 1.46703 51.512 1.39965C51.512 1.33227 51.4784 1.26489 51.4449 1.2312C51.4114 1.19751 51.3779 1.16382 51.3109 1.16382C51.2438 1.16382 51.1768 1.16382 51.0427 1.2312C50.2383 1.60179 48.8306 1.90501 46.786 2.17453V2.94941C47.8921 2.94941 48.5289 2.9831 48.663 3.05048C48.73 3.08417 48.8306 3.15155 48.8641 3.25262C48.8976 3.35369 48.9646 3.99381 48.9981 5.0719L49.0003 5.17512V5.1752V5.17528V5.17534V5.17542V5.17549V5.17557V5.17565V5.17572V5.17581V5.1759C49.0331 6.75693 49.0652 8.305 49.0652 9.78856V16.8635C48.9981 19.3566 48.9646 20.6369 48.9646 20.7716C48.9646 21.2433 48.8976 21.5802 48.797 21.7486C48.73 21.8497 48.663 21.9171 48.5624 21.9845C48.4283 22.0519 48.2943 22.0856 48.0932 22.0856H46.8195ZM2.60976 22.8604V22.2203C3.17956 21.9508 3.48122 21.7486 3.54826 21.6812C3.61529 21.6139 3.64881 21.4791 3.68233 21.3106C3.74936 21.0411 3.78288 20.4684 3.8164 19.5587C3.8246 19.3445 3.83279 19.1424 3.8405 18.9523C3.86431 18.3653 3.88343 17.8936 3.88343 17.5373V9.35055C3.88343 8.55747 3.85596 7.59868 3.82588 6.54921V6.5492V6.54919V6.54919V6.54918V6.54917V6.54917V6.54916V6.54915V6.54914V6.54914V6.54913V6.54912V6.54911L3.8164 6.21735C3.78288 5.47616 3.71585 5.00449 3.61529 4.80235C3.54826 4.66759 3.4477 4.60021 3.31363 4.53283C3.04549 4.39807 2.44218 4.33069 1.50368 4.33069V3.45474C1.80534 3.48843 2.17403 3.48843 2.60976 3.48843L5.42524 3.55581L10.4194 3.42104C11.7266 3.42104 12.7656 3.55581 13.4695 3.82533C14.1733 4.09485 14.7431 4.53283 15.1454 5.13925C15.5476 5.74568 15.7487 6.45318 15.7487 7.19437C15.7487 7.8008 15.6146 8.37353 15.38 8.87889C15.1454 9.41793 14.8102 9.85591 14.408 10.2602C14.0058 10.6308 13.57 10.9677 13.0673 11.2035C12.5645 11.4394 11.9277 11.6752 11.1232 11.8773C12.1958 11.9784 13.0337 12.1132 13.7041 12.3153C14.3409 12.5175 14.9107 12.787 15.3465 13.1913C15.7822 13.5619 16.1174 14.0335 16.352 14.6063C16.5866 15.1453 16.6872 15.7854 16.6872 16.4592C16.6872 17.8068 16.285 18.986 15.4805 20.0304C14.6761 21.0411 13.6371 21.816 12.3634 22.3214C11.4249 22.6919 10.2853 22.8604 8.97811 22.8604L5.02303 22.7593C4.62082 22.7593 3.8164 22.793 2.60976 22.8604ZM6.49781 11.5067C7.00056 11.5404 7.46979 11.5404 7.83848 11.5404H7.83851C8.9446 11.5404 9.81605 11.4394 10.4194 11.2709C11.0227 11.1025 11.4919 10.8666 11.8271 10.5971C12.1623 10.3276 12.4304 9.92329 12.6651 9.45162C12.8997 8.97996 13.0002 8.40722 13.0002 7.76711C13.0002 6.62163 12.6315 5.81306 11.9277 5.30771C11.2238 4.80235 10.1512 4.56652 8.77701 4.56652C8.0061 4.56652 7.26871 4.6339 6.59836 4.76866C6.53133 5.50985 6.49781 6.68901 6.49781 8.27246V11.5067ZM6.53133 21.4454C7.20168 21.6139 7.93907 21.6812 8.67645 21.6812C9.88309 21.6812 10.8216 21.5128 11.559 21.1422C12.2964 20.7716 12.8662 20.2325 13.2349 19.4577C13.6371 18.7165 13.8382 17.8405 13.8382 16.8972C13.8382 15.9539 13.6371 15.1453 13.2684 14.4715C12.8997 13.8314 12.3299 13.326 11.5925 13.0228C10.8551 12.7196 9.64847 12.5511 7.93907 12.5511C7.62079 12.5511 7.26053 12.5722 6.82508 12.5977C6.71025 12.6045 6.59019 12.6115 6.46429 12.6185V17.8068C6.49781 18.3122 6.53133 19.5251 6.53133 21.4454ZM16.6201 22.8604V22.0855C16.939 22.0752 17.2105 22.068 17.4356 22.0621L17.4362 22.0621H17.4362H17.4362H17.4363H17.4363H17.4363H17.4364H17.4364H17.4364H17.4365H17.4365H17.4366H17.4366H17.4366C17.9445 22.0486 18.2161 22.0415 18.2625 22.0181C18.4301 21.9844 18.5306 21.9508 18.5977 21.8834C18.6647 21.816 18.7317 21.7486 18.7653 21.6475C18.8658 21.4454 18.8993 21.1085 18.9328 20.6705C18.9999 18.2448 18.9999 16.9646 18.9999 16.8635V15.2464V15.2462C18.9999 14.5051 18.9999 13.7303 18.9664 12.888C18.9328 12.349 18.8993 12.0458 18.8658 11.9447C18.7988 11.8436 18.6982 11.7763 18.5641 11.7089C18.4301 11.6752 17.8268 11.6415 16.7877 11.6415V10.8666C18.6312 10.5971 19.9384 10.2939 20.8098 9.8559C20.9774 9.75483 21.1115 9.72114 21.1785 9.72114C21.2456 9.72114 21.2791 9.75483 21.3126 9.78852C21.3461 9.82221 21.3796 9.88959 21.3796 9.99066V10.1928C21.3461 10.7319 21.3126 11.6078 21.3126 12.787C21.7148 12.3153 22.0835 11.8437 22.4521 11.3721L22.4522 11.372C22.7874 10.9003 23.0555 10.5971 23.1896 10.4623C23.4577 10.2265 23.7594 10.0244 24.1281 9.88959C24.4968 9.75483 24.8319 9.68745 25.2342 9.68745C25.6364 9.68745 26.0051 9.75483 26.3738 9.92328L26.4408 10.1254C26.3067 11.3383 26.2397 12.4164 26.2062 13.326H25.6028C25.4017 12.888 25.1671 12.5848 24.8655 12.3827C24.5973 12.1805 24.2286 12.0795 23.8264 12.0795C23.1225 12.0795 22.5192 12.3827 22.05 12.9554C21.5807 13.5282 21.3126 14.4041 21.3126 15.5496V16.9646C21.3126 17.3514 21.3262 17.9302 21.3448 18.7184L21.3448 18.719C21.3554 19.1662 21.3675 19.6809 21.3796 20.2662C21.3796 20.839 21.4131 21.1759 21.4467 21.3443C21.4802 21.5128 21.5137 21.6138 21.5807 21.6812C21.6478 21.7486 21.7483 21.816 21.8824 21.8497C22.1505 21.9171 22.8879 22.0181 24.0946 22.0855V22.8604C22.4857 22.793 21.145 22.7593 20.0054 22.7593C18.8323 22.7593 17.6927 22.793 16.6201 22.8604ZM26.6754 10.8666V11.6415C27.748 11.6415 28.3513 11.6752 28.4854 11.7762C28.6194 11.8436 28.72 11.9447 28.787 12.0795C28.8876 12.349 28.9211 13.1576 28.9211 14.5052V16.8972C28.8971 18.6823 28.8731 19.8456 28.8614 20.4118L28.8614 20.4128L28.8614 20.413L28.8614 20.4141L28.8613 20.4151L28.8613 20.4153V20.4153L28.8613 20.4156C28.8567 20.6378 28.8541 20.7672 28.8541 20.8053C28.8205 21.2769 28.7535 21.6138 28.653 21.7823C28.5859 21.8834 28.5189 21.9507 28.4183 22.0181C28.3178 22.0855 28.1837 22.1192 27.9826 22.1192H26.6754V22.8941C28.3178 22.8267 29.4909 22.793 30.2283 22.793C31.0327 22.793 32.1388 22.8267 33.513 22.8941V22.1192C32.7726 22.1192 32.3034 22.0982 32.1054 22.0894H32.1054L32.1053 22.0894L32.1051 22.0894C32.0523 22.087 32.0188 22.0855 32.0047 22.0855C31.8371 22.0518 31.7366 22.0181 31.6695 21.9507C31.6025 21.9171 31.5355 21.816 31.5019 21.7486C31.4349 21.5128 31.3679 21.2096 31.3679 20.7379C31.3679 20.6673 31.3638 20.4652 31.357 20.1317V20.1316V20.1315V20.1314C31.3445 19.5098 31.3227 18.4317 31.3008 16.8972V14.4041C31.3008 13.3597 31.3344 11.8773 31.4014 9.92327L31.0997 9.72113C29.8931 10.2939 28.4183 10.6645 26.6754 10.8666ZM31.0662 4.09484C30.7646 3.79162 30.4294 3.65686 29.9937 3.65686C29.5579 3.65686 29.2228 3.82531 28.9211 4.09484C28.6194 4.36436 28.4854 4.73495 28.4854 5.17293C28.4854 5.57721 28.653 5.94781 28.9211 6.25102C29.1892 6.55423 29.5579 6.689 29.9937 6.689C30.3959 6.689 30.7646 6.55423 31.0662 6.25102C31.3679 5.94781 31.5019 5.57721 31.5019 5.17293C31.5019 4.76864 31.3679 4.39805 31.0662 4.09484ZM47.2552 10.7992L47.3558 11.0687C47.1144 11.4217 46.9448 11.7024 46.8189 11.9109L46.8189 11.911L46.8188 11.911L46.8185 11.9116L46.8181 11.9123C46.752 12.0216 46.698 12.111 46.6519 12.1805H44.1381C44.3392 12.7196 44.4398 13.2249 44.4398 13.6966C44.4398 14.4041 44.2722 15.0779 43.9035 15.718C43.5348 16.3918 43.032 16.9309 42.3282 17.4025C41.6243 17.8742 40.9204 18.1774 40.116 18.3459C39.6132 18.4469 38.9094 18.5143 38.0714 18.4806C37.4681 18.9523 37.0994 19.3229 36.9653 19.5587C36.8648 19.7272 36.8313 19.8956 36.8313 20.0978C36.8313 20.2999 36.8983 20.502 37.0324 20.6705C37.1664 20.8389 37.3675 20.94 37.6357 21.0074C38.0379 21.1085 38.7753 21.1758 39.8143 21.1758L42.7639 21.1085C43.8029 21.1085 44.5738 21.2432 45.1101 21.5127C45.6464 21.7823 46.0151 22.1866 46.2832 22.7256C46.5514 23.2646 46.6519 23.9048 46.6519 24.5786C46.6519 25.5219 46.3503 26.4652 45.7469 27.4423C45.1436 28.4193 44.2387 29.1605 43.032 29.7332C41.8254 30.3059 40.4847 30.5755 38.9764 30.5755C37.7362 30.5755 36.6637 30.3733 35.7922 30.0027C34.9208 29.5984 34.2504 29.0931 33.8482 28.4193C33.4125 27.7792 33.2114 27.0717 33.2114 26.3642C33.2114 25.9599 33.2784 25.5893 33.3789 25.2524C33.513 24.9155 33.7141 24.5112 33.9823 24.1406C35.0883 23.6352 35.8928 23.1973 36.362 22.793C35.6246 22.5572 35.1219 22.3213 34.9208 22.0855C34.7197 21.8833 34.5856 21.6475 34.5856 21.4454C34.5856 21.2769 34.7197 20.7716 34.9878 19.963C35.4235 19.5924 36.1274 19.0534 37.0659 18.3795C36.2615 18.1437 35.6246 17.8742 35.1889 17.571C34.7532 17.2678 34.418 16.8635 34.1499 16.3244C33.9152 15.7854 33.7812 15.2126 33.7812 14.6062C33.7812 13.6629 34.0158 12.8543 34.485 12.1131C34.9543 11.3719 35.7587 10.7992 36.8648 10.3275C37.9709 9.85587 39.0099 9.65373 39.9484 9.65373C40.5517 9.65373 41.155 9.7548 41.6913 9.95694C42.2611 10.1591 42.7639 10.4623 43.2666 10.8666C43.7523 10.8574 44.2028 10.8482 44.6196 10.8396L44.6207 10.8396H44.6207H44.6207C45.7283 10.817 46.5979 10.7992 47.2552 10.7992ZM40.116 23.0288C38.7753 23.0288 37.9038 23.0625 37.5686 23.0962C37.4011 23.1299 37.2 23.231 36.9988 23.3657C36.295 23.8711 35.8928 24.1743 35.8592 24.208C35.7587 24.3091 35.6581 24.4775 35.5576 24.7807C35.3565 25.2861 35.2559 25.7914 35.2559 26.3305C35.2559 27.2738 35.6246 28.0824 36.362 28.7562C37.0994 29.43 38.1049 29.7332 39.4121 29.7332C40.3841 29.7332 41.2556 29.5311 42.0265 29.1605C42.8309 28.7562 43.4007 28.2508 43.8029 27.577C44.2051 26.9032 44.4062 26.2294 44.4062 25.5556C44.3727 24.9829 44.3057 24.5449 44.1381 24.2417C44.004 23.9385 43.8029 23.7026 43.6018 23.5342C43.4007 23.3657 43.0991 23.231 42.7304 23.0962C42.5628 23.0288 41.6913 23.0288 40.116 23.0288ZM36.1609 13.865C36.1609 14.5051 36.295 15.1453 36.5296 15.7517C36.7642 16.3581 37.1329 16.8298 37.6022 17.133C38.0714 17.4362 38.6077 17.6047 39.211 17.6047C39.9819 17.6047 40.6858 17.3688 41.2891 16.8635C41.8924 16.3581 42.1941 15.5495 42.1941 14.4378C42.1941 13.2923 41.8924 12.3827 41.2891 11.7088C40.6858 11.035 39.9819 10.6981 39.144 10.6981C38.2725 10.6981 37.5686 10.9677 37.0324 11.5404C36.4291 12.0457 36.1609 12.8206 36.1609 13.865ZM61.3997 12.1468V11.5741C62.3046 11.2372 63.0085 10.934 63.5448 10.6308C63.5448 8.47459 63.5113 7.09328 63.4778 6.48686C64.4163 6.14995 65.1872 5.81305 65.757 5.44246L66.0921 5.71198C65.9916 6.45317 65.891 8.13769 65.757 10.6982H67.0641C67.1312 10.6982 67.6004 10.6982 68.4719 10.6645C68.9411 10.6645 69.3098 10.6308 69.5444 10.5971L69.645 10.6982L69.3433 11.9784H67.768H65.757L65.6899 17.5373C65.6564 18.8849 65.6564 19.6935 65.7234 19.963C65.757 20.2325 65.8575 20.4684 65.9916 20.6368C66.1256 20.839 66.2932 20.9737 66.4943 21.1085C66.6954 21.2432 67.0306 21.3106 67.5334 21.378H67.5335C67.9021 21.378 68.2038 21.378 68.4384 21.3443C68.673 21.3106 68.9746 21.2432 69.3098 21.1085L69.4774 21.6475C69.0417 21.9844 68.6395 22.3213 68.2373 22.6919C67.9353 22.8134 67.6333 22.8801 67.3558 22.9414L67.2653 22.9615C66.9636 22.9951 66.6284 23.0288 66.2262 23.0288C65.757 23.0288 65.3547 22.9615 65.0866 22.8604C64.7849 22.7593 64.5503 22.5909 64.3157 22.3887C64.0811 22.1866 63.88 21.9507 63.7459 21.6475C63.5783 21.3443 63.4778 20.8727 63.4442 20.2325C63.4442 19.6261 63.4778 18.9186 63.5113 18.2111V17.7394V12.0795H62.9415C62.525 12.0795 62.0822 12.106 61.5895 12.1355L61.3997 12.1468ZM71.0863 11.6078C69.7791 12.888 69.1422 14.5389 69.1422 16.594C69.1422 17.7058 69.3433 18.7839 69.712 19.7609C69.9467 20.3336 70.2818 20.8727 70.7511 21.4117C71.2203 21.9508 71.7901 22.3887 72.5275 22.7593C73.2649 23.1299 74.1699 23.2984 75.2089 23.2984C76.5831 23.2984 77.7898 22.9615 78.9294 22.355C80.069 21.7149 80.9404 20.8727 81.5438 19.7609C82.1806 18.6828 82.4823 17.4362 82.4823 16.1223C82.4823 14.2357 81.9125 12.6522 80.7058 11.473C79.4992 10.2939 77.9574 9.68745 76.0469 9.68745C74.0358 9.68745 72.3599 10.3276 71.0863 11.6078ZM72.2594 18.986C71.8907 17.8405 71.6896 16.6951 71.6896 15.5833C71.6896 13.8651 72.0583 12.6185 72.7621 11.8099C73.466 11.0014 74.371 10.5971 75.4771 10.5971C76.248 10.5971 76.9854 10.7992 77.6222 11.2372C78.259 11.6752 78.7953 12.4164 79.231 13.4608C79.6668 14.5052 79.8679 15.7517 79.8679 17.2004C79.8679 18.9523 79.4992 20.2325 78.7953 21.0748C78.0914 21.9171 77.1865 22.3214 76.1474 22.3214C75.343 22.3214 74.5721 22.0518 73.8682 21.5128C73.1643 20.9737 72.6281 20.1315 72.2594 18.986ZM82.1471 22.8603V22.0855H83.4207C83.6218 22.0855 83.7559 22.0518 83.8565 21.9844C83.957 21.917 84.0241 21.8496 84.0911 21.7486C84.1916 21.5801 84.2587 21.2432 84.2922 20.7715C84.2922 20.7335 84.2949 20.6041 84.2995 20.3818C84.3111 19.8169 84.3352 18.6525 84.3592 16.8635V15.2463C84.3592 14.5051 84.3592 13.7303 84.3257 12.888C84.2922 12.3489 84.2587 12.0457 84.1917 11.9447C84.1246 11.8436 84.0241 11.7762 83.89 11.7088C83.7559 11.6751 83.1526 11.6414 82.1136 11.6414V10.8666C83.957 10.597 85.2642 10.2938 86.1021 9.85586C86.2697 9.75478 86.4038 9.72109 86.4708 9.72109C86.5379 9.72109 86.5714 9.75478 86.6049 9.78848C86.6384 9.82217 86.672 9.88955 86.672 9.99062V10.1928C86.6384 10.5297 86.6049 11.2035 86.6049 12.2816L89.1187 10.1254C89.8561 9.85586 90.56 9.72109 91.2303 9.72109C91.9677 9.72109 92.6716 9.85585 93.3084 10.1591C93.9788 10.4623 94.448 10.8329 94.7832 11.3045C95.1184 11.7762 95.3195 12.3489 95.4536 13.0228C95.5206 13.427 95.5541 14.5725 95.5541 16.4592V18.8849C95.5541 20.064 95.5876 20.8726 95.6547 21.3106C95.6882 21.5801 95.7552 21.7823 95.8558 21.8833C95.9563 21.9844 96.0904 22.0518 96.2915 22.0855L97.7328 22.1192V22.894C96.8613 22.8267 96.1239 22.793 95.5206 22.793C95.0178 22.793 94.1799 22.8267 93.0068 22.894C93.1408 20.6368 93.2079 19.2218 93.2079 18.649V16.3581C93.2079 14.9431 93.1409 13.9998 93.0403 13.5618C92.8727 12.9554 92.5375 12.45 92.0013 12.0794C91.465 11.7088 90.7946 11.5067 90.0237 11.5067C89.3534 11.5067 88.7165 11.6751 88.1467 11.9784C87.5769 12.3153 87.1747 12.6858 86.9401 13.0901C86.7055 13.5281 86.5714 14.2356 86.5714 15.2463V16.8971C86.6384 19.2555 86.6384 20.5357 86.6384 20.7379C86.672 21.2095 86.7055 21.5127 86.806 21.7486C86.8395 21.8159 86.9066 21.917 86.9736 21.9507C87.0406 22.0181 87.1747 22.0518 87.3088 22.0855C87.3227 22.0855 87.3541 22.0869 87.4037 22.0892C87.5928 22.098 88.0472 22.1192 88.8171 22.1192V22.894C87.711 22.8267 86.7055 22.793 85.834 22.793C85.0966 22.7593 83.8565 22.793 82.1471 22.8603ZM0.833322 51.0929L0.799805 52.0363C1.00091 52.0699 1.20202 52.1036 1.40312 52.0699C2.07347 52.0699 2.74383 51.8678 3.4477 51.4635C4.18508 51.0929 4.82192 50.4865 5.42524 49.7116C6.02855 48.9367 6.43077 48.1282 6.69891 47.2522C6.93353 46.3763 7.0676 45.1971 7.0676 43.7147V33.9108C7.09023 32.2957 7.11286 31.1722 7.12517 30.5608L7.12518 30.5607L7.12519 30.56C7.1311 30.2664 7.13463 30.0911 7.13463 30.0364C7.13463 29.3626 7.20167 28.8909 7.33574 28.7225C7.40278 28.554 7.57036 28.453 7.80499 28.3856C8.03961 28.3182 8.67645 28.2845 9.74901 28.2508V27.3749C8.4083 27.4086 7.03408 27.4423 5.72689 27.4423H5.72679C4.48667 27.4423 3.146 27.4423 1.70478 27.3749V28.2508C2.77734 28.2508 3.41418 28.3182 3.6488 28.3856C3.88343 28.4867 4.05101 28.5877 4.15157 28.7562C4.25212 28.9246 4.31915 29.43 4.35267 30.2723C4.38619 31.4514 4.41971 32.6643 4.41971 33.9108V45.7698C4.41971 47.5217 4.38619 48.6335 4.25212 49.0378C4.15157 49.4421 3.95046 49.7453 3.68232 49.9474C3.41418 50.1496 3.04549 50.2507 2.54272 50.2507C2.27458 50.2507 2.03996 50.217 1.80533 50.1496C1.57071 50.0822 1.33609 49.9474 1.06795 49.7453L0.799805 49.9138C0.833322 50.3517 0.833322 50.6886 0.833322 50.8908V51.0929ZM9.11218 40.5142C9.11218 38.4591 9.74901 36.8082 11.0562 35.528C12.3299 34.2478 14.0058 33.6076 16.0168 33.6076C17.9273 33.6076 19.4691 34.2141 20.6758 35.3932C21.8824 36.5724 22.4522 38.1558 22.4522 40.0425C22.4522 41.3564 22.1505 42.603 21.5137 43.6811C20.9104 44.7929 20.0389 45.6351 18.8993 46.2752C17.7597 46.8817 16.5531 47.2186 15.1789 47.2186C14.1398 47.2186 13.2348 47.0501 12.4975 46.6795C11.7601 46.3089 11.1903 45.8709 10.721 45.3319C10.2518 44.7929 9.9166 44.2538 9.68198 43.6811C9.31328 42.704 9.11218 41.626 9.11218 40.5142ZM11.6595 39.5035C11.6595 40.6152 11.8606 41.7607 12.2293 42.9062C12.598 44.0517 13.1343 44.8939 13.8382 45.433C14.542 45.972 15.3129 46.2415 16.1174 46.2415C17.1564 46.2415 18.0614 45.8373 18.7653 44.995C19.4691 44.1527 19.8378 42.8725 19.8378 41.1206C19.8378 39.6719 19.6367 38.4254 19.201 37.381C18.7653 36.3366 18.229 35.5954 17.5921 35.1574C16.9553 34.7194 16.2179 34.4836 15.4135 34.4836C14.3074 34.4836 13.4024 34.8879 12.6986 35.6964C12.0282 36.5387 11.6595 37.7852 11.6595 39.5035ZM22.117 46.0057V46.7805C23.8264 46.7132 25.0666 46.6795 25.8375 46.7132C26.7089 46.7132 27.7145 46.7468 28.8205 46.8142V46.0393C28.0507 46.0393 27.5962 46.0182 27.4072 46.0094H27.4071H27.4071H27.407C27.3575 46.0071 27.3262 46.0057 27.3123 46.0057L27.3122 46.0056C27.1782 45.972 27.0441 45.9383 26.9771 45.8709C26.91 45.8372 26.843 45.7361 26.8095 45.6688C26.7089 45.4329 26.6754 45.1297 26.6419 44.658C26.6419 44.4559 26.6419 43.1757 26.5749 40.8173V39.1665C26.5749 38.1558 26.7089 37.4483 26.9436 37.0103C27.1782 36.606 27.5804 36.2354 28.1502 35.8985C28.72 35.5953 29.3568 35.4269 30.0272 35.4269C30.7981 35.4269 31.4684 35.629 32.0047 35.9996C32.541 36.3702 32.8762 36.8756 33.0438 37.482C33.1443 37.92 33.2114 38.8633 33.2114 40.2783V42.5692C33.2114 43.142 33.1443 44.557 33.0102 46.8142C34.1834 46.7468 35.0213 46.7132 35.5241 46.7132C36.0939 46.7132 36.8648 46.7468 37.7362 46.8142V46.0393L36.295 46.0057C36.0939 45.972 35.9598 45.9046 35.8592 45.8035C35.7587 45.7024 35.6917 45.5003 35.6581 45.2308C35.5911 44.7928 35.5576 43.9842 35.5576 42.8051V40.3794C35.5576 38.4927 35.5241 37.3472 35.457 36.9429C35.323 36.2691 35.1219 35.6964 34.7867 35.2247C34.4515 34.7531 33.9823 34.3825 33.3119 34.0793C32.6751 33.776 31.9712 33.6413 31.2338 33.6413C30.5635 33.6413 29.8596 33.776 29.1222 34.0456L26.6084 36.2018C26.6084 35.1237 26.6419 34.4499 26.6754 34.1129V33.9108C26.6754 33.8097 26.6419 33.7424 26.6084 33.7087C26.5749 33.675 26.5413 33.6413 26.4743 33.6413C26.4073 33.6413 26.2732 33.675 26.1056 33.776C25.2677 34.214 23.9605 34.5172 22.117 34.7868V35.5616C23.1561 35.5616 23.7594 35.5953 23.8935 35.629C24.0275 35.6964 24.1281 35.7638 24.1951 35.8648C24.2621 35.9659 24.2957 36.2691 24.3292 36.8082C24.3627 37.6504 24.3627 38.4253 24.3627 39.1665V40.7836C24.3387 42.5723 24.3146 43.7366 24.3029 44.3016L24.3029 44.3021C24.2983 44.5243 24.2957 44.6537 24.2957 44.6917C24.2621 45.1634 24.1951 45.5003 24.0946 45.6688C24.0275 45.7698 23.9605 45.8372 23.8599 45.9046C23.7594 45.972 23.6253 46.0057 23.4242 46.0057H22.117ZM48.3613 44.6582L47.9256 45.6352C47.2888 46.0395 46.853 46.2753 46.5514 46.4101C46.1156 46.6122 45.6464 46.747 45.0766 46.8817C44.5403 47.0165 43.937 47.0839 43.3337 47.0839C42.127 47.0839 41.0545 46.8481 40.0825 46.3427C39.1105 45.8373 38.3731 45.0962 37.8368 44.0854C37.3005 43.0747 37.0324 41.9293 37.0324 40.5816C37.0324 39.5372 37.1664 38.5939 37.4681 37.7517C37.7698 36.9094 38.0714 36.303 38.4401 35.8987C38.7082 35.5955 39.1105 35.2586 39.6467 34.888C40.183 34.5174 40.7528 34.2142 41.2891 33.9783C41.993 33.6751 42.7639 33.5404 43.6018 33.5404C44.6073 33.5404 45.5458 33.7762 46.3503 34.2479C47.1547 34.7195 47.758 35.3596 48.1602 36.1345C48.5289 36.9431 48.73 37.8527 48.73 38.8634C48.73 39.0867 48.707 39.3331 48.6801 39.6218L48.67 39.7296L48.663 39.8068C48.0261 39.9415 47.4228 40.0089 46.9201 40.0426C45.9481 40.11 44.976 40.1437 43.9705 40.1437H39.6132C39.6467 41.4576 39.8478 42.502 40.2836 43.3106C40.7193 44.1191 41.3226 44.7256 42.06 45.0962C42.8309 45.4668 43.6018 45.6689 44.4062 45.6689C44.9425 45.6689 45.5123 45.5678 46.0486 45.3994C46.5849 45.2309 47.2888 44.894 48.0932 44.4224L48.3613 44.6582ZM39.6467 39.0656C39.9149 39.0993 40.3841 39.133 41.088 39.133C41.5481 39.1445 41.9608 39.1561 42.3248 39.1663L42.327 39.1663L42.3277 39.1664C43.0229 39.1858 43.5402 39.2003 43.87 39.2003C45.0766 39.2003 45.881 39.1667 46.2497 39.133V38.6276C46.2497 37.1789 45.9481 36.1345 45.3783 35.4607C44.8085 34.7869 44.0375 34.45 43.0655 34.45C42.0265 34.45 41.2221 34.8206 40.5852 35.5618C39.9819 36.3367 39.6467 37.4821 39.6467 39.0656ZM50.5064 42.6703H49.702C49.6685 43.8494 49.6685 44.6242 49.6685 44.8938V44.8939C49.6398 45.211 49.5866 45.528 49.5299 45.8662L49.5298 45.8663L49.5009 46.0394C49.4674 46.1405 49.4674 46.2078 49.4674 46.2752C49.4674 46.3426 49.5009 46.3763 49.5344 46.41C49.5679 46.4774 49.9702 46.5784 50.674 46.7132C51.9812 46.949 53.0203 47.0838 53.7912 47.0838C55.5006 47.0838 56.8413 46.6121 57.8468 45.7025C58.8523 44.7928 59.3551 43.7147 59.3551 42.5019C59.3551 41.8955 59.221 41.3564 58.9529 40.9184C58.6847 40.4805 58.3496 40.1436 57.9138 39.9414C57.4781 39.7393 56.7072 39.5034 55.5676 39.2002L53.3219 38.6275C52.8862 38.4927 52.551 38.358 52.3164 38.1895C52.0818 38.0548 51.8807 37.8526 51.7466 37.5831C51.6125 37.3473 51.5455 37.044 51.5455 36.6735C51.5455 36.067 51.8136 35.4943 52.2829 35.0226C52.7521 34.551 53.389 34.3151 54.1934 34.3151C54.7297 34.3151 55.2324 34.3825 55.6011 34.5173C55.6523 34.5406 55.7028 34.5634 55.7524 34.5857L55.755 34.5868L55.7558 34.5872C56.0629 34.7253 56.3383 34.8492 56.5396 35.0226C56.7742 35.2248 56.9418 35.3932 57.0424 35.5617C57.1429 35.7301 57.21 35.9322 57.277 36.1343L57.277 36.1344C57.344 36.3365 57.4111 36.7745 57.4446 37.4483H58.249C58.2825 36.4039 58.316 35.3595 58.3831 34.3488C57.9138 34.113 57.277 33.9108 56.5396 33.7424C55.8022 33.5739 55.1319 33.5066 54.5621 33.5066C53.5901 33.5066 52.7186 33.7087 51.9142 34.0793C51.1098 34.4499 50.5064 34.9552 50.1377 35.5617C49.7691 36.1681 49.5679 36.8419 49.5679 37.5494C49.5679 38.0548 49.6685 38.5264 49.8361 38.9307C50.0037 39.3687 50.2383 39.7056 50.54 39.9751C50.8416 40.2446 51.2438 40.4805 51.7466 40.6826C52.0818 40.7837 52.8192 40.9858 53.9588 41.2553C55.0984 41.5249 55.8693 41.727 56.2044 41.8955C56.5396 42.0639 56.8078 42.2661 57.0089 42.5693C57.1764 42.8725 57.277 43.2094 57.277 43.58C57.277 44.4222 56.9753 45.0961 56.372 45.6014C55.7687 46.1068 55.0313 46.3426 54.0928 46.3426C53.5565 46.3426 53.1208 46.3089 52.8527 46.2752C52.5845 46.2415 52.3164 46.1405 52.0482 46.0394C51.7801 45.9383 51.5455 45.7699 51.3109 45.5677C51.0762 45.3656 50.9086 45.1297 50.8081 44.8265C50.7075 44.5233 50.607 44.2201 50.5735 43.9169C50.54 43.6137 50.5064 43.2094 50.5064 42.6703ZM63.5448 36.2692C63.5113 36.2692 63.4778 36.2355 63.4107 36.1681L63.4107 36.1681C63.394 36.1344 63.3688 36.1091 63.3479 36.0881C63.3269 36.067 63.3102 36.0502 63.3102 36.0333C63.2599 35.9828 63.218 35.9238 63.1761 35.8649C63.1342 35.8059 63.0923 35.747 63.042 35.6964C63.0113 35.6501 62.9735 35.6038 62.9384 35.5607L62.9384 35.5606C62.8969 35.5097 62.8591 35.4634 62.8409 35.4269C63.0085 35.3932 63.1091 35.3258 63.2096 35.2248C63.2766 35.1574 63.3102 35.0226 63.3102 34.8879C63.3102 34.7194 63.2431 34.6183 63.1091 34.551C62.975 34.4836 62.8074 34.4499 62.5393 34.4499H61.4667V34.551C61.5002 34.551 61.5337 34.551 61.5672 34.5847C61.584 34.5847 61.6008 34.5931 61.6175 34.6015C61.6343 34.6099 61.651 34.6183 61.6678 34.6183C61.7013 34.6183 61.7348 34.652 61.7348 34.6857V34.7531V36.1344C61.7348 36.1681 61.7348 36.2018 61.7013 36.2355C61.7013 36.2563 61.6885 36.2643 61.6708 36.2752C61.6599 36.282 61.6471 36.29 61.6343 36.3029C61.6236 36.3029 61.6164 36.3029 61.6093 36.3039C61.594 36.3062 61.5795 36.3135 61.5338 36.3365L61.5337 36.3365H61.4332V36.4376H62.4722V36.3365H62.3717C62.3382 36.3365 62.3046 36.3365 62.3046 36.3029C62.2711 36.3029 62.2376 36.2692 62.2376 36.2355C62.2376 36.2018 62.2041 36.1681 62.2041 36.1681V35.4943H62.2711C62.2991 35.5294 62.3256 35.5631 62.3509 35.5952L62.351 35.5953L62.3511 35.5955C62.4472 35.7176 62.5268 35.8186 62.6063 35.8986C62.7068 36.0333 62.8074 36.1681 62.9415 36.3702H63.6789V36.2692H63.6118H63.5448ZM62.6733 35.2585C62.6063 35.3258 62.5057 35.3595 62.3717 35.3595H62.2711V34.551H62.3717C62.5057 34.551 62.6063 34.5847 62.6733 34.652C62.7404 34.7194 62.7739 34.8205 62.7739 34.9216C62.7739 35.09 62.7404 35.1911 62.6733 35.2585ZM60.4612 35.4269C60.4612 34.2815 61.3662 33.3718 62.5058 33.3718C63.6454 33.3718 64.5503 34.3152 64.5503 35.4269C64.5503 36.5724 63.6454 37.4821 62.5058 37.4821C61.3662 37.4821 60.4612 36.5724 60.4612 35.4269ZM60.8299 35.4269C60.8299 36.3703 61.6008 37.1115 62.5058 37.1115C63.4443 37.1115 64.1816 36.3703 64.1816 35.4269C64.1816 34.4836 63.4107 33.7424 62.5058 33.7424C61.5673 33.7424 60.8299 34.5173 60.8299 35.4269Z" fill="#7B7B7B"></path>
  </g>
  <defs>
    <clipPath id="clip0_138_10604">
      <rect width="97" height="52" fill="white" transform="translate(0.799805 0.47998)"></rect>
    </clipPath>
  </defs>
</svg>
