<svg xmlns="http://www.w3.org/2000/svg" width="63" height="85" viewBox="0 0 63 85">
  <path fill="#221137" d="M187.008702,66 L189,66.0081069 L188.977424,67.9104269 C188.853698,78.3361331 180.651168,86.9135639 169.543143,89.308253 C180.803294,94.1893678 188.636969,105.643576 188.636969,119.104096 C188.636969,136.94261 174.82015,151 157.318529,151 C139.816837,151 126,136.942628 126,119.104096 C126,103.173155 136.972975,90.0525707 151.614335,87.3119289 L151.605346,87.5906854 C151.861997,75.5461721 162.956882,66.1887644 176.940934,66.0028207 L177.365569,66 L187.008702,66 Z M157.318529,90.5584477 C142.023888,90.5584477 129.784438,103.231886 129.784438,119.104096 C129.784438,120.184473 129.841426,121.248866 129.95255,122.294392 C133.201898,119.402753 137.518878,117.727605 142.14183,117.727605 C152.092274,117.727605 160.077607,125.389999 160.077607,134.973797 C160.077607,139.669182 158.135064,143.989709 154.801992,147.11568 C155.62934,147.189433 156.468957,147.227035 157.318529,147.227035 C172.721659,147.227035 184.852531,134.866733 184.852531,119.104096 C184.852531,103.231904 172.613099,90.5584477 157.318529,90.5584477 Z M142.14183,121.50057 C137.603075,121.50057 133.445826,123.516987 130.811829,126.874343 C133.378963,136.300106 140.536248,143.588828 149.763067,146.19179 L149.640872,146.264623 C153.695613,143.933552 156.173246,139.865204 156.28893,135.308098 L156.293168,134.973797 C156.293168,127.491843 150.018083,121.50057 142.14183,121.50057 Z M185.055318,69.7727339 L177.365569,69.7729649 C165.998095,69.7729649 156.830935,76.6487679 155.540639,85.7956547 L155.488506,86.2019942 L163.219158,86.2022664 C174.382649,86.2022664 183.558308,79.2963586 184.998158,70.1790318 L185.055318,69.7727339 Z" transform="translate(-126 -66)"/>
</svg>
