<?xml version="1.0" encoding="UTF-8"?>
<svg xmlns="http://www.w3.org/2000/svg" width="89" height="89" viewBox="0 0 89 89" fill="none">
  <g clip-path="url(#clip0_279_3650)">
    <path d="M12.045 42.4433C10.7923 36.9284 8.18145 35.4603 7.51543 34.4224C7.2408 33.9652 6.99751 33.49 6.78724 33C6.75205 33.4899 6.68741 33.7986 6.27013 34.1701C5.4323 34.9156 1.87394 37.8095 1.57448 44.0756C1.29548 49.918 5.87821 53.5206 6.48368 53.8929C6.94924 54.1216 7.51625 53.8978 7.7928 53.688C10.0019 52.1749 13.0203 48.1412 12.0474 42.4433" fill="#7B7B7B"></path>
    <path d="M6.97703 50.7817C6.86167 52.2278 6.77903 53.0681 6.48611 53.8944C6.48611 53.8944 6.67839 55.2711 6.81339 56.7295H7.29122C7.4052 55.7025 7.57923 54.6831 7.81242 53.6764C7.19386 53.3726 7.00076 52.0506 6.97703 50.7817Z" fill="#B8C4C2"></path>
    <path d="M7.81162 53.6773C7.18651 53.389 7.00569 52.0393 6.97787 50.7818C7.13246 48.7075 7.17753 46.6265 7.11288 44.5475C7.08015 43.4566 7.12842 34.4436 6.84369 33.124C7.03846 33.5709 7.26287 34.0044 7.51543 34.4215C8.18145 35.4602 10.7931 36.9283 12.045 42.4433C13.0203 48.1313 10.0183 52.1544 7.81162 53.6773Z" fill="#5C5C5C"></path>
    <path d="M90.2044 51.6834C89.9367 51.6834 89.675 51.6044 89.4522 51.4564C89.2294 51.3083 89.0555 51.0979 88.9522 50.8514C88.8489 50.605 88.821 50.3336 88.8718 50.0713C88.9227 49.8091 89.0501 49.5677 89.2381 49.3775C89.4261 49.1873 89.6661 49.0569 89.9282 49.0025C90.1903 48.9481 90.4626 48.9723 90.7109 49.0719C90.9593 49.1716 91.1725 49.3423 91.3239 49.5626C91.4753 49.7829 91.5581 50.0429 91.5618 50.31C91.5666 50.4901 91.535 50.6693 91.4687 50.8369C91.4025 51.0045 91.303 51.157 91.1762 51.2853C91.0494 51.4135 90.898 51.5149 90.731 51.5833C90.564 51.6518 90.3849 51.6858 90.2044 51.6834ZM90.2044 49.0966C89.9598 49.095 89.7203 49.1658 89.5161 49.3002C89.3119 49.4345 89.1523 49.6263 89.0574 49.8513C88.9626 50.0763 88.9368 50.3243 88.9832 50.5639C89.0297 50.8035 89.1464 51.024 89.3185 51.1974C89.4907 51.3707 89.7105 51.4892 89.9501 51.5378C90.1898 51.5865 90.4385 51.563 90.6648 51.4704C90.8911 51.3778 91.0848 51.2203 91.2213 51.0178C91.3578 50.8153 91.431 50.5769 91.4317 50.3329C91.4349 50.1706 91.4054 50.0094 91.345 49.8587C91.2846 49.708 91.1945 49.571 91.08 49.4557C90.9656 49.3404 90.8291 49.2492 90.6787 49.1875C90.5283 49.1259 90.367 49.0949 90.2044 49.0966ZM90.5316 51.1853L90.1815 50.4317H89.8992V51.1853H89.6938V49.4706H90.2003C90.5775 49.4706 90.7346 49.6339 90.7346 49.9499C90.7346 50.2014 90.6159 50.3582 90.395 50.4063L90.7567 51.1829L90.5316 51.1853ZM89.9074 50.2545H90.2044C90.4449 50.2545 90.5366 50.1728 90.5366 49.954C90.5366 49.7351 90.449 49.6608 90.1782 49.6608H89.9074V50.2545Z" fill="#7B7B7B"></path>
    <path d="M70.0022 50.4487C70.3696 50.7419 71.1035 50.8627 71.7507 50.8627C72.5893 50.8627 73.4116 50.7076 74.2151 49.9833C75.0333 49.2411 75.5962 48.1052 75.5962 46.2917C75.5962 44.5492 74.9318 43.1349 73.5687 42.3069C72.7996 41.8244 71.803 41.6341 70.6666 41.6341C70.3393 41.6341 70.0022 41.6513 69.8107 41.7378C69.7322 41.7997 69.6767 41.8859 69.6528 41.9828C69.6185 42.2931 69.6184 44.6562 69.6184 46.0533C69.6184 47.4855 69.6185 49.4828 69.6528 49.7277C69.6708 49.9351 69.7755 50.2993 70.0022 50.452M66.5134 40.8584C66.8104 40.8584 67.9395 40.9098 68.4648 40.9098C69.4466 40.9098 70.1249 40.8584 71.9601 40.8584C73.4984 40.8584 74.7927 41.2724 75.7181 42.0653C76.8374 43.032 77.4364 44.3769 77.4364 46.0157C77.4364 48.3445 76.3727 49.6902 75.3033 50.4487C74.2396 51.2424 72.8561 51.6907 70.885 51.6907C69.8361 51.6907 68.0352 51.6564 66.5322 51.6392H66.5011C66.4307 51.5013 66.6296 50.9631 66.7523 50.9493C67.1614 50.9035 67.2694 50.8872 67.4576 50.8096C67.775 50.6798 67.8495 50.5181 67.8847 49.949C67.937 48.8793 67.9199 47.6031 67.9199 46.1537C67.9199 45.1191 67.937 43.1006 67.9027 42.4621C67.8495 41.9281 67.6237 41.7901 67.1663 41.6864C66.842 41.6176 66.5142 41.5658 66.1845 41.5312C66.1501 41.4275 66.4185 40.9597 66.506 40.8584" fill="#7B7B7B"></path>
    <path d="M81.7687 41.7338C81.6992 41.7509 81.6116 41.9241 81.6116 42.0098C81.5936 42.6312 81.5764 44.252 81.5764 45.3731C81.5809 45.3946 81.5915 45.4142 81.6071 45.4296C81.6227 45.445 81.6425 45.4555 81.664 45.4597C81.8906 45.4768 82.4503 45.4948 82.9224 45.4948C83.5868 45.4948 83.9713 45.4083 84.1808 45.3045C84.7404 45.0286 84.999 44.4243 84.999 43.7694C84.999 42.2686 83.95 41.6995 82.3946 41.6995C82.1844 41.6969 81.9742 41.7083 81.7654 41.7338M85.7337 48.6336C85.7337 47.1156 84.6144 46.2534 82.5689 46.2534C82.4822 46.2534 81.8325 46.2362 81.6779 46.2705C81.6255 46.2877 81.5732 46.322 81.5732 46.3571C81.5732 47.4439 81.5552 49.1856 81.6083 49.8756C81.6435 50.1687 81.8538 50.5827 82.1148 50.7035C82.3946 50.8587 83.0238 50.893 83.4608 50.893C84.6668 50.893 85.7337 50.221 85.7337 48.6336ZM78.6105 40.8887C78.7684 40.8887 79.2331 40.9401 80.422 40.9401C81.5404 40.9401 82.4495 40.9058 83.5311 40.9058C84.8771 40.9058 86.7295 41.3892 86.7295 43.3897C86.7295 44.3696 86.0307 45.1666 85.1217 45.5462C85.0693 45.5634 85.0693 45.5977 85.1217 45.6148C86.4153 45.9415 87.5509 46.736 87.5509 48.2539C87.5509 49.7376 86.6247 50.6693 85.2788 51.2555C84.4606 51.6181 83.4436 51.7381 82.4151 51.7381C81.6288 51.7381 79.5211 51.6565 78.3495 51.6695C78.2267 51.6181 78.4615 51.0653 78.5663 50.9795C78.8347 50.9713 79.1011 50.9296 79.3591 50.8554C79.778 50.7525 79.8279 50.6178 79.8803 49.9964C79.9155 49.4616 79.9155 47.5468 79.9155 46.184C79.9155 44.3206 79.9335 43.0623 79.9155 42.4409C79.8983 41.9583 79.7232 41.8024 79.391 41.7166C79.1292 41.6644 78.6923 41.6129 78.3429 41.5615C78.2554 41.475 78.5245 40.9573 78.6113 40.8887" fill="#7B7B7B"></path>
    <path d="M15.9159 51.6835C15.8709 51.5731 15.8526 51.4536 15.8627 51.3348C15.8588 51.2539 15.8772 51.1734 15.9159 51.1021C16.142 51.0696 16.366 51.0241 16.5868 50.9658C16.8961 50.889 17.0123 50.7208 17.0303 50.3272C17.081 49.3972 17.0843 47.6522 17.0663 46.4258V46.3898C17.0663 46.2576 17.0663 46.0779 16.9026 45.9514C16.615 45.7713 16.3028 45.6338 15.9756 45.5431C15.8291 45.4998 15.7481 45.423 15.7522 45.3332C15.7563 45.2434 15.8488 45.1373 16.0394 45.0997C16.5459 45.0483 17.873 44.7323 18.3942 44.4922C18.4479 44.562 18.4728 44.6496 18.4638 44.7372C18.4638 44.791 18.4556 44.8482 18.4498 44.907C18.4351 45.0801 18.4188 45.2769 18.4188 45.4729C18.422 45.4967 18.4318 45.5191 18.447 45.5377C18.4623 45.5562 18.4825 45.5701 18.5053 45.5778C18.5281 45.5856 18.5526 45.5868 18.576 45.5814C18.5995 45.5759 18.621 45.5641 18.638 45.5472C19.6305 44.7706 20.5199 44.4938 20.9756 44.4938C21.7259 44.4938 22.3101 44.8515 22.7626 45.588C22.773 45.6058 22.7877 45.6206 22.8055 45.631C22.8233 45.6415 22.8434 45.6472 22.864 45.6476C22.8828 45.6474 22.9012 45.6427 22.9177 45.6339C22.9342 45.6251 22.9484 45.6124 22.9589 45.597C23.8712 44.9062 24.7753 44.4938 25.3808 44.4938C26.811 44.4938 27.666 45.5627 27.666 47.3517C27.666 47.8662 27.6611 48.5186 27.6562 49.1269C27.6521 49.6609 27.6481 50.1615 27.6481 50.5077C27.6481 50.5893 27.761 50.8245 27.9303 50.871C28.1398 50.9731 28.4417 51.0254 28.8238 51.0907H28.8385C28.8672 51.1936 28.8066 51.5929 28.7485 51.6745C28.6536 51.6745 28.5227 51.6664 28.3591 51.6582C28.0621 51.6435 27.6546 51.6231 27.1809 51.6231C26.2301 51.6231 25.7335 51.641 25.2589 51.6721C25.2229 51.5537 25.2106 51.1715 25.254 51.0915C25.4505 51.0608 25.645 51.0186 25.8366 50.9649C26.1393 50.8653 26.2268 50.7281 26.2457 50.3272C26.253 50.0422 26.3078 47.5314 26.2105 46.9353C26.1205 46.3172 25.6541 45.5937 24.6338 45.5937C24.255 45.5937 23.6438 45.7513 23.0612 46.1922C23.0251 46.2331 23.0048 46.2855 23.0039 46.34V46.3523C23.0727 46.674 23.0727 47.0496 23.0727 47.6171C23.0727 47.9437 23.0727 48.2842 23.0686 48.6247C23.0645 49.3172 23.0612 49.9704 23.0727 50.4644C23.0727 50.8008 23.2764 50.8817 23.4409 50.9462C23.53 50.9658 23.6004 50.9829 23.6716 50.9992C23.8082 51.0327 23.9506 51.067 24.1625 51.1005C24.1939 51.2439 24.1911 51.3927 24.1543 51.5349C24.1457 51.5882 24.1247 51.6388 24.093 51.6827C23.5644 51.6647 23.0219 51.6492 22.2389 51.6492C22.0017 51.6492 21.6146 51.659 21.2726 51.668C20.9953 51.6753 20.7334 51.6827 20.5845 51.6835C20.5443 51.5887 20.5263 51.4859 20.5322 51.383C20.5238 51.2861 20.5428 51.1888 20.587 51.1021L20.7973 51.0637C20.9805 51.0311 21.1393 51.0033 21.2882 50.9658C21.5467 50.8841 21.6441 50.7437 21.6629 50.4146C21.7136 49.647 21.7529 47.435 21.6441 46.8814C21.4592 45.993 20.9527 45.5423 20.1378 45.5423C19.6608 45.5423 19.0578 45.7717 18.5652 46.14C18.5178 46.186 18.4805 46.2413 18.4556 46.3025C18.4307 46.3636 18.4187 46.4292 18.4204 46.4952C18.4204 46.7589 18.4204 47.0725 18.4204 47.4089C18.4204 48.5194 18.413 49.9018 18.44 50.4995C18.4564 50.6841 18.5218 50.9029 18.8679 50.9829C18.944 51.005 19.0749 51.0262 19.2271 51.0515C19.3147 51.0662 19.4104 51.0817 19.5094 51.0997C19.5409 51.2952 19.5249 51.4954 19.4628 51.6835C19.3106 51.6835 19.1232 51.6737 18.9089 51.6647C18.5816 51.65 18.1725 51.6321 17.7102 51.6321C17.1636 51.6321 16.7832 51.65 16.478 51.6647C16.2726 51.6745 16.0951 51.6827 15.9175 51.6835" fill="#7B7B7B"></path>
    <path d="M33.4622 45.2318C33.1669 45.2257 32.8764 45.3072 32.6276 45.4661C32.0205 45.8344 31.7112 46.5701 31.7112 47.6512C31.7112 49.6746 32.7266 51.0881 34.1806 51.0881C34.5704 51.1004 34.9506 50.966 35.2459 50.7116C35.6926 50.3483 35.9299 49.6052 35.9299 48.5649C35.9299 46.5717 34.9374 45.2318 33.4605 45.2318M33.7404 51.8385C31.1139 51.8385 30.1787 49.9155 30.1787 48.1166C30.1787 46.86 30.6934 45.8777 31.7088 45.1959C32.42 44.7565 33.2363 44.5157 34.0726 44.4985C36.0763 44.4985 37.4763 45.9365 37.4763 47.9966C37.4763 49.3962 36.9174 50.5018 35.8595 51.1926C35.3514 51.5029 34.4686 51.8385 33.7404 51.8385Z" fill="#7B7B7B"></path>
    <path d="M60.201 45.2318C59.9051 45.2251 59.6139 45.3067 59.3648 45.4661C58.7577 45.8344 58.4484 46.5701 58.4484 47.6512C58.4484 49.6746 59.4638 51.0881 60.9177 51.0881C61.3087 51.1012 61.6902 50.9668 61.9863 50.7116C62.433 50.3483 62.6695 49.6052 62.6695 48.5649C62.6695 46.5717 61.6778 45.2318 60.201 45.2318ZM60.4808 51.8385C57.8544 51.8385 56.9192 49.9155 56.9192 48.1175C56.9192 46.8592 57.4338 45.8777 58.45 45.1959C59.1608 44.7562 59.9769 44.5154 60.813 44.4985C62.8168 44.4985 64.2167 45.9373 64.2167 47.9958C64.2167 49.397 63.6579 50.5018 62.5999 51.1918C62.0918 51.5029 61.209 51.8385 60.4808 51.8385Z" fill="#7B7B7B"></path>
    <path d="M51.3579 45.1634C50.5487 45.1634 50.025 45.8011 50.025 46.7883C50.025 47.7755 50.4758 48.9489 51.7432 48.9489C51.9609 48.9489 52.3553 48.8525 52.5508 48.6378C52.8454 48.3675 53.0417 47.809 53.0417 47.2194C53.0417 45.9318 52.4133 45.1634 51.362 45.1634M51.2572 51.9766C51.0286 51.9742 50.8032 52.0304 50.6027 52.14C49.962 52.5482 49.665 52.9565 49.665 53.4309C49.665 53.8751 49.8377 54.2287 50.2091 54.5422C50.6591 54.9227 51.2662 55.1081 52.064 55.1081C53.6341 55.1081 54.3378 54.2654 54.3378 53.4309C54.3378 52.8495 54.0457 52.46 53.4443 52.2396C52.9812 52.0705 52.2072 51.9775 51.2597 51.9775M51.3644 55.9785C50.4218 55.9785 49.7427 55.7801 49.1626 55.3343C48.5981 54.8999 48.3444 54.2548 48.3444 53.809C48.3505 53.5217 48.4604 53.2462 48.6537 53.0333C48.8174 52.8471 49.1978 52.4984 50.0774 51.895C50.091 51.8892 50.1026 51.8795 50.1108 51.8672C50.1189 51.8548 50.1233 51.8404 50.1232 51.8256C50.1235 51.8091 50.1181 51.793 50.108 51.7799C50.0979 51.7669 50.0836 51.7576 50.0676 51.7537C49.3435 51.4769 49.125 51.0188 49.0587 50.7739C49.0587 50.7649 49.0587 50.751 49.0514 50.7355C49.0309 50.6391 49.0113 50.5477 49.143 50.4538C49.2445 50.3819 49.4065 50.2856 49.5799 50.1835C49.8248 50.0482 50.0597 49.8957 50.2828 49.7271C50.2947 49.7142 50.3036 49.6988 50.3087 49.6819C50.3138 49.6651 50.315 49.6474 50.3121 49.63C50.3093 49.6127 50.3025 49.5962 50.2923 49.5819C50.2821 49.5676 50.2688 49.5558 50.2533 49.5474C49.1815 49.1881 48.6414 48.3936 48.6414 47.1794C48.6381 46.8008 48.7264 46.427 48.8988 46.0897C49.0711 45.7523 49.3225 45.4615 49.6315 45.2418C50.0627 44.9013 51.1451 44.4922 51.8463 44.4922H51.8872C52.6081 44.5093 53.0147 44.6604 53.5776 44.8678C53.8979 44.9833 54.2372 45.0371 54.5775 45.0262C55.174 45.0262 55.435 44.8376 55.6591 44.6179C55.6955 44.7169 55.7149 44.8212 55.7164 44.9266C55.7301 45.1777 55.6618 45.4264 55.5217 45.6354C55.3998 45.8044 55.1126 45.9269 54.8499 45.9269C54.8229 45.9269 54.7968 45.9269 54.7681 45.9228C54.6299 45.9131 54.493 45.8904 54.359 45.855L54.2919 45.8787C54.2707 45.9097 54.2846 45.944 54.3018 45.9881C54.3059 45.9967 54.3092 46.0057 54.3116 46.015C54.3595 46.233 54.392 46.454 54.4089 46.6764C54.4089 47.9462 53.9074 48.499 53.3649 48.9089C52.8404 49.3016 52.2176 49.5423 51.5649 49.6046C51.551 49.6046 51.4831 49.6103 51.3554 49.6217C51.2736 49.6291 51.1672 49.6389 51.1517 49.6389H51.1361C51.0183 49.6715 50.7107 49.8177 50.7107 50.0896C50.7107 50.315 50.8498 50.595 51.515 50.6457L51.9453 50.6759C52.8224 50.7371 53.918 50.8131 54.4335 50.987C54.7754 51.107 55.0707 51.3315 55.2774 51.6287C55.4841 51.9258 55.5916 52.2805 55.5847 52.6421C55.5847 53.7812 54.773 54.8525 53.414 55.5074C52.7731 55.8129 52.0714 55.97 51.3611 55.9671" fill="#7B7B7B"></path>
    <path d="M47.3438 51.0761C46.9592 51.0246 46.6786 50.9724 46.3472 50.8172C46.2822 50.75 46.2393 50.6645 46.2245 50.5723C46.1893 50.0374 46.1893 48.4852 46.1893 47.4694C46.1893 46.6406 46.0502 45.918 45.6984 45.3995C45.2786 44.8124 44.6846 44.4678 43.9155 44.4678C43.2339 44.4678 42.3249 44.9332 41.5738 45.5717C41.5558 45.5889 41.4404 45.6983 41.4429 45.5285C41.4454 45.3586 41.4715 45.014 41.4879 44.7936C41.4952 44.735 41.4886 44.6755 41.4687 44.62C41.4488 44.5644 41.4162 44.5142 41.3734 44.4735C40.8824 44.7185 39.5054 45.0451 38.9957 45.0949C38.6242 45.1667 38.5301 45.5236 38.9269 45.6469H38.9327C39.2503 45.7343 39.5535 45.8674 39.8327 46.0421C39.9898 46.1629 39.9726 46.3352 39.9726 46.4732C39.9898 47.6286 39.9898 49.4054 39.9374 50.3714C39.9202 50.7511 39.8147 50.8891 39.5349 50.9585L39.561 50.9495C39.3479 51.0028 39.1318 51.0432 38.9138 51.0704C38.8263 51.1561 38.8263 51.6566 38.9138 51.7603C39.0889 51.7603 39.9775 51.7089 40.7139 51.7089C41.7268 51.7089 42.2513 51.7603 42.5139 51.7603C42.6195 51.6395 42.6538 51.1741 42.5843 51.0704C42.3423 51.0594 42.1019 51.0247 41.8667 50.9667C41.5877 50.8981 41.5174 50.7593 41.5002 50.4498C41.4658 49.6381 41.4658 47.9136 41.4658 46.7402C41.4658 46.4136 41.5525 46.2576 41.6573 46.1686C42.0066 45.8584 42.5843 45.6518 43.0908 45.6518C43.5817 45.6518 43.909 45.8069 44.1544 46.0135C44.4403 46.2625 44.6196 46.6114 44.6552 46.9884C44.7247 47.6417 44.7067 48.9555 44.7067 50.0913C44.7067 50.7127 44.6551 50.8687 44.4277 50.9373C44.323 50.9887 44.0431 51.041 43.711 51.0753C43.6062 51.179 43.6406 51.6615 43.711 51.7652C44.1651 51.7652 44.6928 51.7138 45.4586 51.7138C46.42 51.7138 47.032 51.7652 47.2767 51.7652C47.3814 51.6444 47.4166 51.1937 47.347 51.0753" fill="#7B7B7B"></path>
  </g>
  <defs>
    <clipPath id="clip0_279_3650">
      <rect width="89" height="89" fill="white"></rect>
    </clipPath>
  </defs>
</svg>
