<?xml version="1.0" encoding="UTF-8"?>
<svg xmlns="http://www.w3.org/2000/svg" width="89" height="89" viewBox="0 0 89 89" fill="none">
  <path fill-rule="evenodd" clip-rule="evenodd" d="M51.3733 7C50.8179 7 50.2914 7.12144 49.8226 7.28574C50.8323 7.95723 51.3949 8.84303 51.6762 9.85741C51.6978 10.0003 51.7339 10.0931 51.7483 10.2289C51.7627 10.3646 51.7916 10.4646 51.7916 10.5861C51.8637 12.3219 51.3372 12.5362 50.9549 13.5649C50.6839 14.1863 50.5679 14.8632 50.6169 15.5384C50.6658 16.2136 50.8783 16.8672 51.2362 17.4438C51.2999 17.597 51.3797 17.743 51.4742 17.8796C50.7169 12.8934 54.9146 12.1433 55.6935 10.5932C55.7512 9.16449 54.6116 8.3287 53.7245 7.69292C53.0206 7.25337 52.2054 7.02053 51.3733 7.02143V7ZM57.6985 8.12153C57.6264 8.57158 57.6769 8.45728 57.6553 8.69302L57.612 9.20735L57.4677 9.67882C57.4238 9.8388 57.3708 9.9962 57.3091 10.1503L57.0927 10.6003C57.035 10.6718 56.9917 10.7575 56.934 10.8361L56.8114 11.0147L56.5229 11.4076C56.4003 11.529 56.3066 11.6647 56.1623 11.7647C56.0181 11.8647 55.9243 12.0005 55.7873 12.1005C55.3689 12.4148 54.8929 12.6505 54.453 12.9577C54.3087 13.0577 54.1645 13.1363 54.0563 13.2434C53.9481 13.3506 53.7966 13.4435 53.6812 13.5578C53.5658 13.6721 53.4432 13.7935 53.3206 13.9292C53.198 14.0649 53.1042 14.1864 53.0321 14.3221L52.7436 14.7364L52.5273 15.1865L52.3686 15.6365L52.2243 16.1366C52.2027 16.208 52.2027 16.3152 52.1811 16.3937C52.1594 16.4723 52.1594 16.5509 52.1378 16.6295L52.1161 17.1295C52.1133 17.249 52.1205 17.3684 52.1378 17.4867C52.1378 17.6439 52.1594 17.801 52.1955 17.9867C52.2315 18.1725 52.2532 18.3011 52.2965 18.4582L52.4551 18.9297C52.4984 19.0297 52.5561 19.1297 52.5994 19.2154L48.0267 17.4581L45.7187 16.8652L44.4638 16.5795C43.2665 16.3441 42.0581 16.1677 40.8432 16.0509C39.6264 15.918 38.4033 15.8512 37.1792 15.8508L34.5828 15.9508C33.3623 16.0377 32.1468 16.1831 30.9405 16.3866L30.0462 16.5438L28.2575 16.9366L27.3632 17.1724L26.4977 17.5438L25.8486 17.8296L25.1994 18.1439C25.1417 18.1653 25.0985 18.1868 25.0552 18.2011L24.4349 18.5154C24.2907 18.5725 24.1464 18.6582 24.0382 18.7154C23.9805 18.7582 23.894 18.7868 23.8579 18.8154L23.3386 19.1011C23.1583 19.2011 22.9996 19.3012 22.8626 19.3869L22.4659 19.6726L22.0332 19.9869L21.6942 20.2727C21.4778 20.4298 21.3769 20.5298 21.2759 20.6084L20.8431 21.0227L20.4465 21.3942L20.1075 21.7514C20.0642 21.7942 20.0065 21.8228 19.9632 21.8728C19.8623 21.9943 19.7469 22.1086 19.6242 22.23L19.0905 22.8015L18.0087 23.823C17.6569 24.1337 17.286 24.4224 16.898 24.6874L15.7007 25.4374C15.2942 25.6587 14.8752 25.8567 14.4457 26.0304C14.0274 26.2089 13.5802 26.3661 13.1475 26.5018C12.3109 26.6804 11.4598 27.0162 10.7169 27.0733C10.5582 27.0733 10.3779 27.1162 10.212 27.1305L9.70718 27.2519L9.23116 27.4305C9.07249 27.4876 8.91381 27.5734 8.75514 27.6448C8.59647 27.7162 8.46664 27.8234 8.3224 27.9305C8.18128 28.0317 8.04863 28.144 7.92571 28.2663C7.78146 28.3663 7.63722 28.502 7.52903 28.6235L7.19005 29.0164C7.08907 29.1735 6.97368 29.3021 6.90155 29.4664C6.82943 29.6307 6.6996 29.7521 6.61306 29.9164L6.39668 30.4308L6.21637 30.9451L6.1154 31.4166C6.0577 31.6523 6.0577 31.8881 6.04327 32.0095C6.02885 32.1309 6 32.2667 6 32.4024C6 32.4738 6 32.581 6.02164 32.6596C6.04327 32.8024 6.06491 32.9167 6.09376 33.031L6.23801 33.3882C6.29571 33.5311 6.38226 33.6454 6.45438 33.7597L6.71403 34.1168L7.05301 34.4311C7.17562 34.5526 7.29102 34.6455 7.42806 34.7455C7.90408 35.1598 8.02669 35.2955 8.63974 35.6027C8.74072 35.6598 8.84169 35.7027 8.95709 35.7598C9.05806 36.0456 9.10134 36.1885 9.1374 36.3528C9.17346 36.5171 9.23837 36.6885 9.29607 36.8242L9.45474 37.1814L9.74324 37.71L10.0317 38.1244L10.3707 38.4958C10.4933 38.6173 10.6087 38.7101 10.7458 38.8316L11.1424 39.1173C11.2819 39.2146 11.429 39.3006 11.5824 39.3745C11.7267 39.4459 11.8709 39.5316 12.0368 39.5888C12.1594 39.6459 12.2964 39.6888 12.4335 39.7316C12.5705 39.7745 12.6931 39.8031 12.7725 39.8317C12.7148 40.9032 12.7003 41.9747 12.8446 42.2605C13.0249 42.6533 13.8976 41.4532 14.7775 40.0745C14.6549 41.5032 14.5756 43.032 14.7775 43.5034C14.9794 43.9749 16.1911 42.4605 17.2297 40.7603C31.3372 37.5314 44.2041 47.1895 45.5745 60.8193C45.3148 58.6906 42.6679 57.5119 41.4634 57.8048C40.8648 59.2621 39.855 61.1337 38.2178 62.3052C38.3594 60.9884 38.2913 59.6578 38.0159 58.362C37.5831 60.1764 36.7177 61.8623 35.5492 63.3267C34.638 63.3881 33.7256 63.226 32.8927 62.8546C32.0599 62.4833 31.3324 61.9143 30.7746 61.198C30.7025 61.1408 30.6737 61.0194 30.616 60.9408L30.4068 60.455C30.3491 60.3122 30.3058 60.1693 30.2842 60.0407C30.2625 59.9121 30.2625 59.755 30.2625 59.6121V59.3263C30.2842 59.1835 30.3202 59.0406 30.3635 58.912L30.5078 58.4977C30.5799 58.3548 30.652 58.212 30.7458 58.0834C31.0848 57.1404 31.0848 56.3689 30.4573 55.9189C30.3347 55.8474 30.2193 55.776 30.0822 55.7189C30.0101 55.6974 29.9019 55.6617 29.8226 55.6474L29.6639 55.5903L29.2456 55.4903C29.1095 55.452 28.9687 55.4327 28.8273 55.4331C28.6818 55.409 28.5348 55.3946 28.3873 55.3903C28.2863 55.3903 28.1854 55.4117 28.0988 55.4117C27.9401 55.4117 27.8103 55.4331 27.6661 55.4688L27.2478 55.5403L26.8294 55.6831L26.4328 55.8617L26.0577 56.0618C21.4201 59.062 24.1825 66.0627 27.3559 68.1057C26.1587 68.32 24.947 68.5772 24.6152 68.8344C25.4302 69.3844 26.3246 69.8202 27.2622 70.2631L30.4861 71.206C32.1321 71.5556 33.8186 71.6806 35.4988 71.5775C44.3123 70.9631 51.5392 64.3268 52.8518 55.576L52.9744 56.0903L53.1547 57.1904C53.198 57.3904 53.2124 57.5619 53.2268 57.7191L53.2701 58.312L53.3134 58.9549V59.2692C53.3134 59.3692 53.335 59.4835 53.335 59.5835C53.335 59.6835 53.3134 59.8192 53.3134 59.9407V60.2264C53.3134 60.3693 53.2918 60.4836 53.2918 60.6193C53.2918 60.6908 53.2918 60.7765 53.2701 60.8765L53.2485 61.3051C53.2269 61.3622 53.2268 61.4265 53.2268 61.4837L53.1692 61.9337C53.1692 61.9909 53.1692 62.0552 53.1475 62.1123L53.0754 62.6838V62.7195L52.9528 63.2696L52.8302 63.8625L52.5128 65.0769L52.3109 65.7055L51.8781 66.8485L51.6401 67.42L51.3516 67.97C51.33 68.0272 51.3084 68.07 51.2939 68.1129C49.9677 70.7438 48.0387 73.0311 45.661 74.7921C45.5024 74.8921 45.3437 75.0064 45.185 75.1278C45.1417 75.1707 45.084 75.185 45.0408 75.2278L44.608 75.5136L44.6657 75.635H44.6874L45.524 75.5136H45.5456L47.0963 75.2278C47.2406 75.2064 47.3848 75.1707 47.5291 75.1278L47.8175 75.0707L48.2359 74.9992L48.5965 74.8992C50.5681 74.423 52.4976 73.7899 54.3664 73.0062C51.1698 77.3206 46.9184 80.7596 42.0116 83C44.3089 82.8493 46.5838 82.459 48.7984 81.8356C56.8186 79.4925 63.5622 74.1492 67.6012 66.9556C66.7862 71.5061 64.9542 75.8422 62.2496 79.6283C64.1825 78.3638 65.9495 76.9137 67.5651 75.2564C72.0224 70.6417 74.9506 64.7911 75.9315 58.5048C76.6095 61.6194 76.797 64.834 76.5085 68.0057C90.8756 48.161 77.7058 27.5876 72.1811 22.1657C72.1089 22.3086 72.0801 22.5372 72.0657 22.7801L71.8637 24.1016L71.5247 25.4017L71.0487 26.6661L70.4501 27.8662L69.7288 28.9878L68.9138 30.0593C68.6253 30.4165 68.2936 30.7308 67.9762 31.0451L67.3992 31.5452L66.9449 31.9381C66.5908 32.2174 66.2199 32.475 65.8341 32.7096L64.6585 33.381L63.4036 33.9311C62.9802 34.0898 62.5494 34.2281 62.1125 34.3454L60.7782 34.6312C60.3239 34.7026 59.8623 34.7526 59.4223 34.7883L58.4703 34.8312C58.0159 34.8312 57.5543 34.7883 57.1143 34.7597C56.6584 34.7264 56.2054 34.6619 55.7584 34.5669C55.304 34.4954 54.8641 34.3669 54.4241 34.2311H54.4025L55.7151 34.074L57.0494 33.7882L58.3477 33.3739C58.7804 33.2167 59.2132 33.0167 59.6026 32.8239C60.0122 32.6267 60.4118 32.4097 60.7999 32.1738L61.9106 31.4594C62.2678 31.1854 62.6074 30.8895 62.9275 30.5736C63.2601 30.2719 63.5732 29.9498 63.8652 29.6093L64.7018 28.5377C64.7451 28.4806 64.7739 28.3949 64.8244 28.3377L65.4014 27.3948L66 26.1947L66.4761 24.9303C66.6203 24.5159 66.7141 24.073 66.815 23.6444L67.017 22.3229L67.0891 20.9799L67.053 20.0369L66.8944 18.7154L66.6059 17.3938L66.1731 16.1294C66.0145 15.7151 65.8125 15.3008 65.6178 14.915L64.9398 13.7506L64.2186 12.6648L63.3026 11.6647L62.7833 11.1647L60.0209 9.23592C59.8767 9.16449 59.7613 9.09305 59.6243 9.0359C58.9751 8.62158 58.3477 8.40727 57.7346 8.20726L57.6985 8.12153Z" fill="#848484"></path>
</svg>
