<?xml version="1.0" encoding="UTF-8"?>
<svg xmlns="http://www.w3.org/2000/svg" width="89" height="89" viewBox="0 0 89 89" fill="none">
  <path d="M23.6406 32.5191H38.5407V33.7119H25.0064V42.6888H37.7338V43.8815H25.0064V53.7374H38.696V54.93H23.6406V32.5191ZM39.8757 32.5191H41.4588L48.4742 42.3749L55.6449 32.5189L65.3981 20L49.3744 43.4108L57.6316 54.93H55.9863L48.4742 44.4465L40.931 54.93H39.3169L47.6361 43.4107L39.8757 32.5191ZM58.2213 33.7119V32.5189H75.2014V33.7118H67.3787V54.9299H66.0128V33.7119H58.2213ZM5 32.5189H6.70729L30.2499 68L20.521 54.9299L6.42786 34.214L6.36584 54.9302H5L5 32.5189ZM75.0637 53.3771C74.7846 53.3771 74.5754 53.1596 74.5754 52.878C74.5754 52.5967 74.7846 52.3789 75.0637 52.3789C75.3461 52.3789 75.5521 52.5966 75.5521 52.878C75.5521 53.1594 75.3461 53.3771 75.0637 53.3771ZM76.4058 52.064H77.1367C77.1466 52.4626 77.4356 52.7307 77.8608 52.7307C78.3359 52.7307 78.605 52.4426 78.605 51.9032V48.486H79.3492V51.9065C79.3492 52.878 78.7911 53.4376 77.8675 53.4376C77.0003 53.4376 76.4058 52.8948 76.4058 52.0639V52.064ZM80.3225 52.0205H81.06C81.1231 52.4794 81.5683 52.7708 82.2095 52.7708C82.8074 52.7708 83.246 52.4592 83.246 52.0305C83.246 51.662 82.9668 51.4409 82.3324 51.2901L81.7144 51.1394C80.8473 50.9349 80.4521 50.5128 80.4521 49.8027C80.4521 48.9418 81.1497 48.3688 82.1961 48.3688C83.1694 48.3688 83.8804 48.9416 83.9236 49.7557H83.1994C83.1296 49.3102 82.7442 49.032 82.1861 49.032C81.5982 49.032 81.2063 49.3169 81.2063 49.7523C81.2063 50.0973 81.4586 50.2951 82.0832 50.4424L82.6113 50.5731C83.5947 50.8044 84 51.2064 84 51.9333C84 52.858 83.2892 53.4376 82.1531 53.4376C81.09 53.4376 80.3756 52.8847 80.3225 52.0204V52.0205Z" fill="#848484"></path>
</svg>
