<?xml version="1.0" encoding="UTF-8"?>
<svg xmlns="http://www.w3.org/2000/svg" width="89" height="89" viewBox="0 0 89 89" fill="none">
  <g clip-path="url(#clip0_279_3621)">
    <path d="M43.5295 69.1464C43.2589 69.1464 42.9901 69.0755 42.7528 68.9391L40.2806 67.4776C39.9114 67.2714 40.0916 67.1985 40.2133 67.1565C40.7057 66.9844 40.8056 66.9455 41.3311 66.6475C41.3863 66.616 41.4586 66.6271 41.5152 66.6605L43.4144 67.7858C43.483 67.8228 43.5803 67.8228 43.6439 67.7858L51.0492 63.5176C51.1178 63.4788 51.1623 63.3992 51.1623 63.3177V54.7851C51.1623 54.7 51.1178 54.6241 51.0477 54.5815L43.6454 50.3171C43.5768 50.2763 43.486 50.2763 43.4174 50.3171L36.0165 54.5815C35.9448 54.6222 35.8992 54.7018 35.8992 54.7833V63.3159C35.8992 63.3973 35.9437 63.4751 36.0141 63.5139L38.042 64.6837C39.143 65.2334 39.8159 64.5856 39.8159 63.9341V55.5125C39.8159 55.3922 39.9105 55.2997 40.0309 55.2997H40.9689C41.0857 55.2997 41.1821 55.3922 41.1821 55.5125V63.9378C41.1821 65.4037 40.3813 66.2459 38.9892 66.2459C38.561 66.2459 38.2236 66.2459 37.282 65.7831L35.3394 64.6652C34.8593 64.3876 34.5627 63.8693 34.5627 63.3159V54.7833C34.5627 54.228 34.8593 53.7097 35.3394 53.4358L42.7521 49.1658C43.2211 48.9011 43.8439 48.9011 44.3092 49.1658L51.7126 53.4377C52.1909 53.7134 52.4893 54.2298 52.4893 54.7851V63.3177C52.4893 63.8712 52.1909 64.3876 51.7126 64.6652L44.3092 68.9352C44.0719 69.0722 43.8031 69.1425 43.5288 69.1425" fill="#7B7B7B"></path>
    <path d="M45.8169 63.2669C42.5768 63.2669 41.8974 61.7818 41.8974 60.5361C41.8974 60.4177 41.993 60.3233 42.1119 60.3233H43.0683C43.174 60.3233 43.263 60.4001 43.2797 60.5043C43.4242 61.4775 43.8543 61.9684 45.8136 61.9684C47.3744 61.9684 48.038 61.6163 48.038 60.7899C48.038 60.3142 47.8489 59.9607 45.4243 59.7238C43.3964 59.5239 42.1434 59.0778 42.1434 57.4583C42.1434 55.9665 43.4039 55.078 45.5152 55.078C47.886 55.078 49.0612 55.8998 49.2095 57.6656C49.215 57.7267 49.1928 57.7859 49.152 57.8303C49.1112 57.8729 49.0538 57.8988 48.9945 57.8988H48.0324C47.9323 57.8988 47.8452 57.8285 47.8248 57.7322C47.5931 56.7087 47.0333 56.3811 45.5115 56.3811C43.808 56.3811 43.6096 56.9733 43.6096 57.4176C43.6096 57.9562 43.8432 58.1135 46.1417 58.417C48.418 58.7187 49.4987 59.1444 49.4987 60.7418C49.4987 62.352 48.1529 63.2756 45.8062 63.2756M54.826 54.2266H55.0744C55.2783 54.2266 55.3173 54.0841 55.3173 54.0008C55.3173 53.7824 55.1671 53.7824 55.0837 53.7824H54.8279L54.826 54.2266ZM54.5239 53.527H55.0744C55.2635 53.527 55.6342 53.527 55.6342 53.949C55.6342 54.2433 55.4452 54.3043 55.3321 54.3414C55.5527 54.3562 55.5675 54.5005 55.5972 54.7041C55.612 54.8319 55.6361 55.0521 55.6806 55.1261H55.3413C55.3321 55.0521 55.2802 54.6449 55.2802 54.6227C55.2579 54.532 55.2264 54.4876 55.1134 54.4876H54.8334V55.128H54.5239V53.527ZM53.8621 54.3229C53.8621 54.9855 54.3978 55.5222 55.0559 55.5222C55.7195 55.5222 56.2552 54.9744 56.2552 54.3229C56.2552 53.6584 55.7121 53.1309 55.054 53.1309C54.4053 53.1309 53.8603 53.651 53.8603 54.321M56.485 54.3266C56.485 55.1113 55.8418 55.7517 55.0577 55.7517C54.2792 55.7517 53.6304 55.1187 53.6304 54.3266C53.6304 53.5196 54.294 52.9014 55.0577 52.9014C55.827 52.9014 56.4832 53.5214 56.4832 54.3266" fill="#7B7B7B"></path>
    <path fill-rule="evenodd" clip-rule="evenodd" d="M20.5979 35.7598C20.5979 35.4193 20.4181 35.1065 20.1237 34.9371L12.2724 30.4265C12.1399 30.3487 11.9914 30.308 11.8409 30.3025H11.7597C11.6092 30.308 11.4607 30.3487 11.326 30.4265L3.47503 34.9371C3.18252 35.1074 3.00012 35.4202 3.00012 35.7608L3.01736 47.91C3.01736 48.0785 3.10448 48.2358 3.25277 48.3191C3.39736 48.4079 3.57902 48.4079 3.7236 48.3191L8.39109 45.6501C8.68582 45.475 8.86562 45.1655 8.86562 44.8283V39.1525C8.86562 38.8138 9.04542 38.501 9.33923 38.3326L11.3263 37.1898C11.4739 37.1047 11.6359 37.0625 11.8009 37.0625C11.9632 37.0625 12.129 37.1043 12.2724 37.1896L14.2586 38.332C14.5526 38.5004 14.7332 38.8133 14.7332 39.152V44.8274C14.7332 45.1642 14.9154 45.4752 15.2086 45.6492L19.8731 48.3163C20.0196 48.4033 20.2018 48.4033 20.3477 48.3163C20.4915 48.233 20.5827 48.0757 20.5827 47.9073L20.5979 35.7598ZM57.6464 42.0854C57.6464 42.17 57.6013 42.2483 57.5278 42.2902L54.8311 43.8423C54.7579 43.8843 54.6674 43.8843 54.5944 43.8423L51.8973 42.2902C51.8232 42.2481 51.7787 42.1699 51.7787 42.0854V38.9767C51.7787 38.8919 51.8232 38.8138 51.8954 38.7712L54.5907 37.2165C54.6648 37.1739 54.7556 37.1739 54.8298 37.2165L57.5268 38.7712C57.601 38.8138 57.6455 38.8919 57.6455 38.9767L57.6464 42.0854ZM58.3749 19.0599C58.2277 18.9781 58.0486 18.9803 57.9033 19.0649C57.7587 19.1501 57.6694 19.3055 57.6694 19.474V31.5048C57.6694 31.6233 57.6064 31.7325 57.5037 31.7917C57.4017 31.8509 57.2747 31.8509 57.1719 31.7917L55.2051 30.6606C54.9123 30.4914 54.5515 30.4914 54.2576 30.6606L46.4036 35.1866C46.1102 35.355 45.9291 35.6678 45.9291 36.0047V45.0593C45.9291 45.398 46.1102 45.709 46.4036 45.8792L54.2576 50.4084C54.5508 50.5768 54.9119 50.5768 55.2061 50.4084L63.06 45.8774C63.3528 45.7071 63.5345 45.3961 63.5345 45.0574V22.4913C63.5345 22.1478 63.3473 21.8318 63.047 21.664L58.3749 19.0599ZM84.5285 38.8949C84.8203 38.7257 84.9999 38.4133 84.9999 38.0764V35.882C84.9999 35.5444 84.8201 35.2329 84.5278 35.063L76.7239 30.5394C76.4292 30.3691 76.0678 30.3691 75.773 30.5394L67.921 35.0648C67.6262 35.2351 67.4464 35.546 67.4464 35.8848V44.9356C67.4464 45.2762 67.63 45.5909 67.9247 45.7593L75.7267 50.1996C76.014 50.3643 76.3662 50.3662 76.6572 50.2051L81.3766 47.5861C81.5249 47.5028 81.6194 47.3455 81.6194 47.1752C81.6194 47.0049 81.5286 46.8458 81.3803 46.7625L73.4801 42.2352C73.3318 42.1519 73.2409 41.9946 73.2409 41.8261V38.9869C73.2409 38.8173 73.3299 38.6611 73.4782 38.5767L75.9361 37.1608C76.0826 37.0756 76.2624 37.0756 76.4088 37.1608L78.8686 38.5767C79.0151 38.66 79.1059 38.8173 79.1059 38.9858V41.2179C79.1059 41.3864 79.1967 41.5437 79.3432 41.6288C79.4896 41.7121 79.6712 41.7121 79.8177 41.627L84.5285 38.8949Z" fill="#7B7B7B"></path>
    <path fill-rule="evenodd" clip-rule="evenodd" d="M76.1335 38.4713C76.1891 38.4386 76.2588 38.4386 76.3152 38.4713L77.8222 39.3394C77.8786 39.372 77.913 39.432 77.913 39.4967V41.2347C77.913 41.2995 77.8786 41.3595 77.8222 41.3921L76.3152 42.2601C76.2588 42.2929 76.1891 42.2929 76.1335 42.2601L74.6274 41.3921C74.57 41.3595 74.5348 41.2995 74.5348 41.2347V39.4967C74.5348 39.432 74.5681 39.372 74.6256 39.3394L76.1335 38.4713Z" fill="#5C5C5C"></path>
    <mask id="mask0_279_3621" style="mask-type:luminance" maskUnits="userSpaceOnUse" x="24" y="30" width="19" height="21">
      <path d="M32.7926 30.5844L24.9832 35.0852C24.6907 35.2536 24.5113 35.5646 24.5113 35.9007V44.9086C24.5113 45.2449 24.6907 45.5557 24.9832 45.7241L32.7932 50.2285C33.0852 50.3964 33.4451 50.3964 33.7367 50.2285L41.5454 45.7241C41.8364 45.5557 42.0162 45.2448 42.0162 44.9086V35.9007C42.0162 35.5646 41.8364 35.2536 41.5435 35.0852L33.736 30.5844C33.5895 30.5005 33.4264 30.4585 33.2633 30.4585C33.1002 30.4585 32.937 30.5005 32.7906 30.5844" fill="white"></path>
    </mask>
    <g mask="url(#mask0_279_3621)">
      <path d="M49.9079 34.3211L27.9024 23.5508L16.6192 46.5341L38.6242 57.305L49.9079 34.3211Z" fill="#7B7B7B"></path>
    </g>
    <mask id="mask1_279_3621" style="mask-type:luminance" maskUnits="userSpaceOnUse" x="24" y="30" width="18" height="21">
      <path d="M24.7048 45.4808C24.7795 45.5776 24.873 45.6614 24.9829 45.7243L31.682 49.5881L32.7979 50.2285C32.9647 50.3247 33.1549 50.3655 33.3417 50.3516C33.404 50.3466 33.4663 50.3349 33.5271 50.3177L41.7636 35.2588C41.7006 35.1903 41.6268 35.133 41.5441 35.0848L36.4306 32.1364L33.7276 30.5834C33.6509 30.539 33.5677 30.5076 33.483 30.4854L24.7048 45.4808Z" fill="white"></path>
    </mask>
    <g mask="url(#mask1_279_3621)">
      <path d="M15.1904 37.5066L30.7286 58.5055L51.2782 43.3456L35.739 22.3472L15.1904 37.5066Z" fill="#7B7B7B"></path>
    </g>
    <path d="M33.1701 30.464C33.039 30.4769 32.9109 30.5176 32.7929 30.5846L25.0057 35.0725L33.4027 50.3443C33.5195 50.3276 33.6344 50.2887 33.7382 50.2288L41.5476 45.7244C41.7886 45.5849 41.9536 45.3487 42.0036 45.081L33.4435 30.4793C33.3805 30.4669 33.3174 30.4604 33.2526 30.4604C33.2266 30.4604 33.2007 30.4617 33.1747 30.4641" fill="#8E8E8E"></path>
  </g>
  <defs>
    <clipPath id="clip0_279_3621">
      <rect width="82" height="50.1462" fill="white" transform="translate(3 19)"></rect>
    </clipPath>
  </defs>
</svg>
