<?xml version="1.0" encoding="UTF-8"?>
<svg xmlns="http://www.w3.org/2000/svg" width="116" height="29" viewBox="0 0 116 29" fill="none">
  <g clip-path="url(#clip0_138_10606)">
    <path d="M46.8931 0.81214C46.8141 2.14997 46.7373 3.47437 46.6573 4.79876C46.6532 4.8608 46.6194 4.92076 46.5927 5.00037C46.4872 4.98279 46.3929 4.96418 46.2986 4.95281C46.0229 4.92179 45.7471 4.87941 45.4694 4.86907C44.9589 4.84942 44.4506 4.88147 43.9852 5.12133C43.3293 5.45837 42.991 6.02494 42.9428 6.74969C42.907 7.29247 42.9336 7.84042 42.9346 8.38528C42.9346 8.41733 42.948 8.44834 42.9613 8.51037C43.0771 8.52071 43.196 8.53932 43.3159 8.53932C44.2835 8.54139 45.2511 8.54036 46.2186 8.54036C46.315 8.54036 46.4113 8.54036 46.5405 8.54036C46.5107 8.71818 46.4943 8.86293 46.4636 9.00353C46.2053 10.1884 45.945 11.3721 45.6846 12.557C45.6754 12.5973 45.66 12.6366 45.6549 12.6769C45.6385 12.7989 45.5708 12.8402 45.452 12.8392C45.1158 12.8351 44.7796 12.8382 44.4434 12.8382C44.0252 12.8382 43.607 12.8361 43.1888 12.8392C42.9531 12.8413 42.9367 12.8609 42.9316 13.0925C42.9295 13.1669 42.9316 13.2414 42.9316 13.3158C42.9316 16.8951 42.9316 20.4744 42.9316 24.0526C42.9316 24.278 42.8195 24.3907 42.5954 24.3907C41.144 24.3907 39.6927 24.3907 38.2413 24.3907C38.1757 24.3907 38.1101 24.3907 38.0445 24.3897C37.9431 24.3897 37.8949 24.3349 37.8939 24.2356C37.8928 24.1529 37.8908 24.0702 37.8908 23.9875C37.8908 20.4165 37.8898 16.8455 37.8908 13.2755C37.8908 12.7596 37.8477 12.8402 37.4624 12.8392C35.7322 12.8371 34.0021 12.8382 32.2719 12.8392C32.0314 12.8392 31.9108 12.9633 31.9101 13.2114C31.9101 16.8238 31.9101 20.4361 31.9101 24.0474C31.9101 24.2763 31.7998 24.3907 31.5791 24.3907C30.1195 24.3907 28.66 24.3907 27.2004 24.3907C27.1512 24.3907 27.102 24.3886 27.0528 24.3907C26.9308 24.3969 26.8683 24.3411 26.8704 24.216C26.8704 24.1333 26.8693 24.0506 26.8693 23.9678C26.8693 20.4051 26.8693 16.8424 26.8693 13.2807C26.8693 12.7513 26.8304 12.8423 26.4214 12.8392C25.8639 12.8351 25.3063 12.8371 24.7487 12.8392C24.4996 12.8402 24.4863 12.8568 24.4781 13.1059C24.3879 15.6617 23.6376 17.99 22.1084 20.0443C21.0988 21.4007 19.8412 22.4677 18.3509 23.2555C17.3577 23.7807 16.3102 24.1529 15.2134 24.3783C14.6292 24.4982 14.0378 24.5861 13.4392 24.5985C13.1205 24.6047 12.8017 24.645 12.4829 24.6368C9.84981 24.5696 7.43397 23.8334 5.31844 22.2154C3.70207 20.9779 2.52746 19.3909 1.73722 17.5113C1.28623 16.4392 1.01564 15.3226 0.89162 14.1646C0.813723 13.4399 0.779899 12.7141 0.811673 11.9883C0.935694 9.09245 1.87559 6.51293 3.80047 4.33249C4.98225 2.99362 6.42028 2.01971 8.07252 1.36113C8.92837 1.01995 9.81291 0.78009 10.721 0.642585C11.4918 0.526791 12.2677 0.495775 13.0477 0.517486C13.7037 0.536096 14.3525 0.598128 14.9992 0.717024C16.1933 0.936205 17.3259 1.33115 18.396 1.90598C20.4777 3.02257 22.0633 4.63644 23.1323 6.75485C23.3875 7.26145 23.5936 7.79493 23.8057 8.32221C23.8682 8.47626 23.9482 8.54346 24.1101 8.54243C24.9383 8.53932 25.7665 8.54242 26.5947 8.53932C26.8365 8.53829 26.8642 8.50831 26.8663 8.26638C26.8714 7.71222 26.8622 7.15807 26.8775 6.60494C26.9114 5.39531 27.1902 4.25184 27.8246 3.2128C28.4181 2.24096 29.2442 1.53379 30.2763 1.07164C31.0092 0.742871 31.7779 0.580552 32.5784 0.515418C33.6116 0.430641 34.6191 0.573315 35.6246 0.775955C35.7025 0.791463 35.7773 0.823513 35.8716 0.853495C35.7937 2.17479 35.7168 3.48367 35.6369 4.79256C35.6328 4.85563 35.6 4.91559 35.5754 4.9952C35.4309 4.97659 35.2956 4.96212 35.1613 4.94144C34.5843 4.85356 34.0082 4.83185 33.4301 4.95074C32.7116 5.09962 32.0895 5.72305 31.9634 6.44883C31.9296 6.6432 31.9152 6.8417 31.9111 7.03917C31.9029 7.42791 31.9091 7.81561 31.9091 8.20435C31.9091 8.29429 31.9091 8.38321 31.9091 8.49693C32.0352 8.51348 32.1366 8.53726 32.2391 8.53829C34.0185 8.54036 35.7978 8.54036 37.5772 8.53932C37.61 8.53932 37.6427 8.53932 37.6755 8.53622C37.8477 8.51968 37.8734 8.49693 37.8857 8.32841C37.8908 8.25397 37.8877 8.17953 37.8887 8.1051C37.8939 7.52716 37.8713 6.94716 37.9082 6.37025C38.0025 4.88147 38.4402 3.51883 39.46 2.39397C40.3261 1.43867 41.4126 0.877275 42.661 0.631212C43.3938 0.48647 44.1359 0.450284 44.8851 0.511283C45.4571 0.557807 46.0249 0.618806 46.5876 0.726329C46.6819 0.743905 46.7742 0.776989 46.8931 0.810073V0.81214ZM12.6787 5.73959C12.1908 5.71995 11.7111 5.78611 11.2417 5.89881C9.12106 6.40437 7.59284 7.62744 6.76672 9.68796C6.51048 10.3279 6.37518 10.9968 6.31471 11.6833C6.22144 12.7379 6.26141 13.7821 6.55967 14.8005C7.32635 17.4172 9.38345 19.0859 12.198 19.3185C12.9196 19.3785 13.636 19.302 14.3412 19.1241C15.9801 18.7096 17.2398 17.7842 18.111 16.3192C18.7475 15.2481 19.0099 14.0768 19.0489 12.8454C19.0735 12.0504 19.0099 11.2605 18.81 10.4882C18.4493 9.09348 17.7461 7.91693 16.5961 7.03917C15.4389 6.15521 14.1178 5.7613 12.6777 5.73856L12.6787 5.73959Z" fill="#7B7B7B"></path>
    <path d="M82.8821 8.14606C82.8821 10.5023 82.8821 12.8574 82.8821 15.2136C82.8821 15.8288 82.9734 16.4315 83.1743 17.0136C83.5771 18.1788 84.3899 18.917 85.547 19.2654C86.4921 19.5497 87.4566 19.5611 88.4108 19.3109C89.8386 18.9345 90.7364 18.0144 91.0798 16.5618C91.1802 16.1358 91.2387 15.7027 91.2387 15.2622C91.2387 10.4681 91.2387 5.67303 91.2407 0.878952C91.2407 0.445758 91.2069 0.48091 91.6415 0.48091C93.142 0.48091 94.6426 0.48091 96.1431 0.48091C96.2087 0.48091 96.2743 0.482978 96.3399 0.48091C96.4496 0.477808 96.5111 0.523299 96.509 0.640127C96.508 0.689753 96.509 0.739379 96.509 0.789005C96.509 5.64925 96.5162 10.5095 96.5039 15.3708C96.5008 16.6631 96.3563 17.942 95.8828 19.162C94.9788 21.4893 93.3819 23.1228 91.0665 24.0285C90.2547 24.3459 89.4112 24.5382 88.5471 24.6529C87.8204 24.7491 87.0917 24.7728 86.365 24.7315C84.931 24.6488 83.5473 24.3365 82.2559 23.678C80.4642 22.7651 79.1851 21.3673 78.3846 19.5177C78.0043 18.6399 77.7788 17.7218 77.702 16.7675C77.6702 16.3726 77.6476 15.9766 77.6476 15.5807C77.6435 10.6873 77.6456 5.79399 77.6446 0.899629C77.6446 0.432318 77.6323 0.481944 78.0556 0.481944C79.5479 0.481944 81.0403 0.481944 82.5326 0.481944C82.5982 0.481944 82.6638 0.481944 82.7294 0.481944C82.8299 0.481944 82.8821 0.529502 82.8811 0.63289C82.8811 0.707329 82.8821 0.781768 82.8821 0.856207C82.8821 3.28685 82.8821 5.71645 82.8821 8.14709V8.14606Z" fill="#7B7B7B"></path>
    <path d="M103.122 8.22575C103.213 8.14097 103.267 8.09652 103.313 8.04482C104.135 7.10606 105.18 6.56018 106.376 6.28207C107.151 6.10217 107.939 6.08976 108.723 6.14249C110.402 6.25622 111.892 6.85483 113.144 8.00864C114.083 8.87502 114.723 9.94095 115.16 11.1382C115.452 11.9405 115.621 12.7707 115.709 13.6195C115.774 14.245 115.82 14.8705 115.795 15.498C115.73 17.1667 115.43 18.7795 114.598 20.2518C113.421 22.3319 111.668 23.6139 109.338 24.0864C108.676 24.2208 108.003 24.2188 107.331 24.195C106.231 24.1567 105.193 23.8931 104.253 23.3038C103.983 23.1353 103.748 22.913 103.499 22.7124C103.438 22.6638 103.385 22.6049 103.328 22.5511C103.31 22.5573 103.292 22.5625 103.272 22.5687C103.266 22.6617 103.254 22.7548 103.254 22.8468C103.253 24.624 103.254 26.4002 103.254 28.1775C103.254 28.3429 103.258 28.5083 103.253 28.6737C103.248 28.8371 103.228 28.8536 103.064 28.8629C103.015 28.866 102.966 28.864 102.916 28.864C101.465 28.864 100.014 28.864 98.5634 28.864C98.5224 28.864 98.4814 28.865 98.4404 28.864C98.2457 28.8567 98.2293 28.8412 98.2211 28.652C98.218 28.5858 98.2211 28.5197 98.2211 28.4535C98.2211 21.2795 98.2211 14.1064 98.2211 6.93237C98.2211 6.4847 98.1975 6.52916 98.6167 6.52916C99.9943 6.52916 101.372 6.52916 102.748 6.52916C102.806 6.52916 102.863 6.52709 102.921 6.52916C103.08 6.53847 103.102 6.55397 103.103 6.7225C103.107 7.12777 103.103 7.53202 103.105 7.9373C103.105 8.01587 103.115 8.09341 103.125 8.22472L103.122 8.22575ZM111.093 15.1568C111.05 14.764 111.026 14.368 110.96 13.9793C110.797 13.024 110.362 12.2186 109.594 11.6189C108.684 10.9066 107.638 10.7226 106.528 10.9014C104.973 11.1526 104.019 12.1028 103.596 13.605C103.342 14.5086 103.327 15.4339 103.518 16.351C103.732 17.3828 104.231 18.2471 105.129 18.8323C105.994 19.3957 106.945 19.5581 107.951 19.3761C109.26 19.1393 110.189 18.4094 110.706 17.1688C110.974 16.5278 111.069 15.8526 111.092 15.1579L111.093 15.1568Z" fill="#7B7B7B"></path>
    <path d="M51.9616 16.7541C51.9073 17.0147 51.9678 17.2153 52.019 17.4127C52.263 18.3391 52.8236 19.0245 53.6272 19.5167C54.1674 19.8475 54.7588 20.016 55.3891 20.0812C55.8852 20.1318 56.369 20.0822 56.8518 19.986C57.7558 19.8061 58.3953 19.2613 58.8679 18.49C58.9447 18.3639 59.0042 18.2274 59.0718 18.0951C59.1057 18.031 59.1405 17.9669 59.1835 17.8873C60.5775 18.2894 61.9581 18.6875 63.3623 19.0917C63.3367 19.2003 63.3234 19.2799 63.2988 19.3554C62.6223 21.3849 61.3278 22.8488 59.3773 23.7152C58.6003 24.0605 57.7896 24.2952 56.9471 24.3779C56.33 24.4389 55.7007 24.4762 55.0837 24.4286C52.8923 24.259 50.9685 23.4526 49.4177 21.848C48.3035 20.6953 47.5994 19.312 47.2519 17.7446C47.1392 17.237 47.0623 16.7231 47.0459 16.201C47.0357 15.8629 47.0029 15.5249 47.0111 15.1868C47.0572 13.1387 47.623 11.2622 48.8919 9.63902C50.1536 8.02514 51.8018 7.02951 53.7994 6.62217C54.6327 6.45261 55.4722 6.44951 56.3167 6.51568C57.0465 6.57254 57.7629 6.69144 58.4569 6.92199C60.7282 7.67465 62.2892 9.17687 63.1102 11.4473C63.3726 12.172 63.5263 12.9216 63.6063 13.6877C63.6708 14.3132 63.7067 14.9387 63.6903 15.5662C63.6831 15.8629 63.6626 16.1597 63.6401 16.4564C63.6196 16.7314 63.5899 16.7531 63.306 16.7531C59.6417 16.7531 55.9764 16.7531 52.3122 16.7531H51.9637L51.9616 16.7541ZM58.875 13.3175C58.8904 13.269 58.9017 13.2462 58.9027 13.2224C58.9048 13.1811 58.9027 13.1397 58.8976 13.0994C58.7315 11.9249 58.1012 11.1092 57.0137 10.6688C56.2142 10.3441 55.3799 10.309 54.5538 10.5219C53.5503 10.7804 52.4096 11.5558 52.1595 13.0994C52.1492 13.1614 52.1584 13.2266 52.1584 13.3165C52.2691 13.3289 52.3716 13.3517 52.4741 13.3517C54.5077 13.3537 56.5412 13.3537 58.5737 13.3517C58.6762 13.3517 58.7797 13.3289 58.875 13.3186V13.3175Z" fill="#7B7B7B"></path>
    <path d="M76.0216 6.81035C75.994 8.3684 75.9663 9.91714 75.9386 11.4855C75.8351 11.4855 75.7633 11.4928 75.6926 11.4845C74.6748 11.3646 73.6816 11.4587 72.7305 11.8619C71.9474 12.1948 71.397 12.7727 71.027 13.5357C70.7236 14.1602 70.5637 14.8218 70.5319 15.5145C70.5094 16.0005 70.4919 16.4885 70.4909 16.9744C70.4868 19.2468 70.4889 21.5203 70.4889 23.7928C70.4889 23.8507 70.4889 23.9086 70.4889 23.9665C70.4889 24.185 70.3812 24.2946 70.166 24.2952C68.6983 24.2952 67.2305 24.2952 65.7638 24.2952C65.7146 24.2952 65.6654 24.2932 65.6162 24.2952C65.5014 24.2983 65.4522 24.2404 65.4563 24.1278C65.4583 24.0616 65.4563 23.9954 65.4563 23.9293C65.4563 18.2843 65.4563 12.6393 65.4563 6.99438C65.4563 6.61185 65.4358 6.63046 65.8181 6.63149C67.2039 6.63149 68.5896 6.63149 69.9743 6.63149C70.0399 6.63149 70.1055 6.63356 70.1711 6.63149C70.2839 6.62839 70.3382 6.68112 70.3351 6.79588C70.3331 6.85377 70.3351 6.91167 70.3351 6.96957C70.3351 7.4162 70.3351 7.8618 70.3351 8.30843C70.3351 8.38598 70.3423 8.46455 70.3484 8.59275C70.4171 8.53175 70.454 8.51314 70.4704 8.48213C70.7851 7.90212 71.2781 7.51339 71.8316 7.19082C72.4383 6.83723 73.0953 6.65423 73.7944 6.62529C74.0885 6.61288 74.3848 6.56946 74.6769 6.58807C75.0756 6.61391 75.4712 6.68422 75.8669 6.74005C75.9202 6.74728 75.9694 6.78554 76.0206 6.80932L76.0216 6.81035Z" fill="#7B7B7B"></path>
  </g>
  <defs>
    <clipPath id="clip0_138_10606">
      <rect width="115" height="28.3861" fill="white" transform="translate(0.799805 0.47998)"></rect>
    </clipPath>
  </defs>
</svg>
