<?xml version="1.0" encoding="UTF-8"?>
<svg xmlns="http://www.w3.org/2000/svg" width="89" height="89" viewBox="0 0 89 89" fill="none">
  <path d="M63.9575 62.1855C64.4598 58.0085 64.3093 57.3958 67.4256 58.0724L68.2168 58.1418C70.6131 58.2506 73.7477 57.757 75.5893 56.9028C79.5536 55.0664 81.9043 52.0002 77.9953 52.8059C69.0788 54.6423 68.4657 51.628 68.4657 51.628C77.8811 37.6807 81.8171 19.9758 78.4197 15.642C69.1534 3.82102 53.1136 9.41108 52.8452 9.55621L52.7598 9.57214C50.998 9.20701 49.0263 8.98896 46.8114 8.9532C42.7764 8.88701 39.7146 10.0093 37.3921 11.7681C37.3921 11.7681 8.77801 -0.00143634 10.1092 26.5694C10.3923 32.2217 18.2244 69.3399 27.5658 58.1285C30.98 54.0289 34.2794 50.5625 34.2794 50.5625C35.9179 51.6492 37.8794 52.2036 39.9367 52.0045L40.0958 51.8691C40.0459 52.3781 40.0679 52.8761 40.1594 53.4655C37.7534 56.1498 38.4604 56.6213 33.6492 57.6097C28.7817 58.6115 31.6414 60.3945 33.5079 60.8605C35.7714 61.4257 41.0077 62.2262 44.5467 57.2811L44.4057 57.8453C45.3497 58.5993 45.2859 63.2648 45.4198 66.5978C45.5538 69.9313 45.7773 73.042 46.4579 74.8758C47.1385 76.7095 47.9416 81.4333 54.2645 80.0804C59.549 78.9498 63.5893 77.3226 63.9575 62.1855Z" fill="#7B7B7B" stroke="#7B7B7B" stroke-width="4"></path>
  <path d="M77.9962 52.8059C69.0788 54.6423 68.4657 51.628 68.4657 51.628C77.8811 37.6798 81.8171 19.9746 78.4204 15.6413C69.1541 3.82101 53.1136 9.41125 52.8459 9.55638L52.7598 9.57178C50.998 9.20665 49.0263 8.98912 46.8103 8.95302C42.7753 8.887 39.7146 10.0091 37.3921 11.7675C37.3921 11.7675 8.77749 -0.00144513 10.1083 26.5692C10.3914 32.2219 18.2234 69.3401 27.5651 58.1287C30.9794 54.0291 34.2784 50.5627 34.2784 50.5627C35.917 51.6494 37.8786 52.2038 39.935 52.0046L40.0947 51.8692C40.0451 52.3783 40.0678 52.8763 40.1587 53.4657C37.7522 56.1499 38.4593 56.6214 33.6485 57.6099C28.7806 58.6117 31.6403 60.3947 33.5074 60.8607C35.7709 61.4258 41.0075 62.2264 44.5458 57.2812L44.4047 57.8455C45.3476 58.5995 46.0098 62.7501 45.8988 66.5127C45.7878 70.2752 45.7137 72.8583 46.4567 74.876C47.1996 76.8937 47.9401 81.4335 54.2644 80.0806C59.5488 78.95 62.2872 76.0201 62.6682 71.1329C62.9386 67.6585 63.5503 68.172 63.589 65.0656L64.0797 63.595C64.6456 58.8853 64.1696 57.3657 67.4253 58.0724L68.2165 58.1418C70.6127 58.2506 73.749 57.757 75.5896 56.9028C79.5532 55.0664 81.9039 52.0002 77.9958 52.8059H77.9962Z" fill="#7B7B7B"></path>
  <path d="M44.9287 55.5055C44.6832 64.2694 44.9904 73.0943 45.8493 75.239C46.7088 77.3838 48.548 81.5555 54.8728 80.2027C60.1567 79.0718 62.0793 76.8831 62.9136 72.0523C63.528 68.4978 64.7126 58.6267 64.8645 56.6043M37.3479 11.5716C37.3479 11.5716 8.71384 -0.112581 10.045 26.4582C10.3281 32.1108 18.1606 69.2302 27.5021 58.0182C30.9158 53.9181 34.0031 50.7024 34.0031 50.7024M52.8146 9.43905C51.8234 9.74931 68.7426 3.26404 78.358 15.5305C81.7545 19.8639 77.8185 37.5693 68.4033 51.5179" stroke="#5C5C5C" stroke-width="4" stroke-linecap="round" stroke-linejoin="round"></path>
  <path d="M68.4032 51.5175C68.4032 51.5175 69.0167 54.5327 77.9343 52.695C81.8415 51.8893 79.4901 54.9559 75.5274 56.7932C72.2753 58.3001 64.984 58.6863 64.8649 56.604C64.5584 51.2315 68.7022 52.8637 68.4032 51.5175ZM68.4032 51.5175C68.1328 50.3051 66.2797 49.1152 65.0539 46.148C63.9836 43.5581 50.376 23.6969 68.8276 26.6467C69.5035 26.507 64.0152 9.12429 46.7471 8.84163C29.4829 8.55898 30.0493 30.0383 30.0493 30.0383" stroke="#5C5C5C" stroke-width="4" stroke-linecap="round" stroke-linejoin="bevel"></path>
  <path d="M40.0957 53.355C37.6888 56.0392 38.3967 56.5107 33.5856 57.4996C28.7177 58.5013 31.5777 60.2842 33.4443 60.75C35.7078 61.3155 40.9444 62.116 44.4827 57.1697C45.5602 55.6637 44.4763 53.2607 42.9962 52.6481C42.281 52.3525 41.3248 51.9817 40.0957 53.355Z" stroke="#5C5C5C" stroke-width="4" stroke-linecap="round" stroke-linejoin="round"></path>
  <path d="M39.9382 53.3088C39.6956 51.7304 40.4576 49.8523 41.2741 47.6552C42.5013 44.3585 45.3326 41.0614 43.0677 30.6041C41.3794 22.8114 30.0562 28.9823 30.0491 30.039C30.0422 31.0953 30.5612 35.3947 29.8599 40.4014C28.9448 46.9346 34.0238 52.4601 39.8724 51.8948" stroke="#5C5C5C" stroke-width="4" stroke-linecap="round" stroke-linejoin="round"></path>
  <path d="M37.2439 29.8801C37.1929 30.2412 37.9057 31.204 38.8352 31.3327C39.763 31.4619 40.5572 30.7093 40.6076 30.3488C40.6579 29.9879 39.946 29.5904 39.0162 29.4612C38.0878 29.332 37.2932 29.5201 37.2441 29.8801H37.2439Z" fill="#5C5C5C" stroke="#5C5C5C" stroke-width="4"></path>
  <path d="M65.5063 29.1443C65.5566 29.5053 64.8447 30.4682 63.915 30.5968C62.9865 30.726 62.1923 29.9735 62.1414 29.6129C62.0923 29.2521 62.8044 28.8545 63.7332 28.7253C64.6619 28.5961 65.4559 28.7843 65.5063 29.1445V29.1443Z" fill="#5C5C5C" stroke="#5C5C5C" stroke-width="4"></path>
  <path d="M68.8276 26.647C68.9805 29.4778 68.2168 31.4059 68.1206 34.4193C67.978 38.7995 70.2123 43.8129 66.8458 48.8325" stroke="#5C5C5C" stroke-width="4" stroke-linecap="round" stroke-linejoin="round"></path>
</svg>
