<?xml version="1.0" encoding="UTF-8"?>
<svg xmlns="http://www.w3.org/2000/svg" width="89" height="89" viewBox="0 0 89 89" fill="none">
  <path d="M40.2743 0.000674143C36.9129 0.0162929 33.7028 0.302971 30.8783 0.802768C22.5577 2.27276 21.047 5.34957 21.047 11.0237V18.5176H40.7097V21.0155H21.047H13.6677C7.95316 21.0155 2.94934 24.4503 1.38421 30.9844C-0.421147 38.474 -0.501225 43.1476 1.38421 50.968C2.78191 56.7892 6.1198 60.9369 11.8343 60.9369H18.5948V51.9534C18.5948 45.4634 24.2102 39.7387 30.8783 39.7387H50.5182C55.9852 39.7387 60.3495 35.2373 60.3495 29.7469V11.0237C60.3495 5.69501 55.8542 1.69211 50.5182 0.802768C47.1404 0.240495 43.6357 -0.0149448 40.2743 0.000674143ZM29.6408 6.02783C31.6718 6.02783 33.3304 7.71353 33.3304 9.78622C33.3304 11.8516 31.6718 13.5217 29.6408 13.5217C27.6025 13.5217 25.9512 11.8516 25.9512 9.78622C25.9512 7.71353 27.6025 6.02783 29.6408 6.02783Z" fill="#5C5C5C"></path>
  <path d="M63.3204 21.6182V30.3318C63.3204 37.0873 57.593 42.7733 51.0618 42.7733H31.4619C26.0932 42.7733 21.6505 47.3682 21.6505 52.7448V71.4299C21.6505 76.7478 26.2748 79.8757 31.4619 81.4014C37.6734 83.2278 43.6299 83.5579 51.0618 81.4014C56.002 79.9711 60.8732 77.0925 60.8732 71.4299V63.9513H41.2733V61.4584H60.8732H70.6847C76.3876 61.4584 78.5127 57.4805 80.496 51.5098C82.5447 45.363 82.4576 39.4519 80.496 31.5668C79.0867 25.8895 76.3948 21.6182 70.6847 21.6182H63.3204ZM52.2968 68.937C54.331 68.937 55.979 70.6038 55.979 72.6649C55.979 74.7334 54.331 76.4156 52.2968 76.4156C50.2699 76.4156 48.6147 74.7334 48.6147 72.6649C48.6147 70.6038 50.2699 68.937 52.2968 68.937Z" fill="#7B7B7B"></path>
</svg>
