<?xml version="1.0" encoding="UTF-8"?>
<svg xmlns="http://www.w3.org/2000/svg" width="89" height="89" viewBox="0 0 89 89" fill="none">
  <g clip-path="url(#clip0_279_3852)">
    <path d="M71.758 37.596H51.645C51.1623 37.596 50.6994 37.4042 50.3581 37.0629C50.0167 36.7216 49.825 36.2587 49.825 35.776V14.813C49.825 13.253 48.572 12.001 47.013 12.001H39.828C38.268 12.001 37.016 13.254 37.016 14.813V35.635C37.016 36.722 36.142 37.597 35.054 37.597L28.46 37.621C27.373 37.621 26.475 36.747 26.498 35.659L26.545 14.814C26.545 13.254 25.292 12.002 23.733 12.002H16.548C14.988 12.002 13.736 13.255 13.736 14.814V73.496C13.736 74.866 14.846 76.001 16.241 76.001H71.757C73.127 76.001 74.262 74.891 74.262 73.496V40.1C74.264 39.7705 74.2006 39.4438 74.0754 39.139C73.9502 38.8342 73.7657 38.5573 73.5327 38.3242C73.2997 38.0912 73.0228 37.9068 72.718 37.7816C72.4132 37.6564 72.0865 37.593 71.757 37.595L71.758 37.596ZM62.328 59.623C62.3256 60.4873 61.9812 61.3155 61.3699 61.9266C60.7586 62.5376 59.9303 62.8819 59.066 62.884H53.394C52.5299 62.8816 51.7018 62.5373 51.0907 61.9262C50.4797 61.3152 50.1354 60.4871 50.133 59.623V53.951C50.1354 53.0868 50.4797 52.2588 51.0907 51.6477C51.7018 51.0367 52.5299 50.6923 53.394 50.69H59.066C59.9303 50.6921 60.7586 51.0363 61.3699 51.6474C61.9812 52.2584 62.3256 53.0867 62.328 53.951V59.623Z" fill="#7B7B7B"></path>
  </g>
  <defs>
    <clipPath id="clip0_279_3852">
      <rect width="64" height="64" fill="white" transform="translate(12 12)"></rect>
    </clipPath>
  </defs>
</svg>
