<?xml version="1.0" encoding="UTF-8"?>
<svg xmlns="http://www.w3.org/2000/svg" width="89" height="89" viewBox="0 0 89 89" fill="none">
  <path d="M69.7451 31.7576C68.9063 31.4711 68.0614 31.2042 67.2105 30.957C67.3516 30.3828 67.4817 29.8054 67.601 29.2246C69.5204 19.89 68.2654 12.3698 63.982 9.89428C59.8806 7.51879 53.1545 9.99435 46.3692 15.9134C45.7021 16.4974 45.0486 17.0989 44.4088 17.718C43.9823 17.3067 43.5448 16.9043 43.0964 16.5105C35.9847 10.1814 28.8566 7.51551 24.5781 9.99927C20.4768 12.3797 19.2578 19.4487 20.9853 28.2961C21.1581 29.171 21.3522 30.0422 21.5677 30.9095C20.5588 31.1966 19.5843 31.5033 18.6525 31.8282C10.3252 34.7401 5 39.3057 5 44.0403C5 48.9323 10.7156 53.8375 19.3989 56.8118C20.1033 57.0513 20.8142 57.2739 21.5316 57.4795C21.2987 58.408 21.0925 59.3469 20.9131 60.2963C19.2726 68.9911 20.5522 75.8928 24.6453 78.2584C28.873 80.7012 35.965 78.1912 42.8782 72.1376C43.425 71.6586 43.9719 71.1527 44.5187 70.6201C45.2099 71.2884 45.9208 71.9369 46.6514 72.5658C53.3448 78.3372 59.9545 80.6684 64.041 78.2961C68.2654 75.8452 69.6385 68.43 67.8552 59.4087C67.7185 58.7197 67.561 58.0165 67.3828 57.299C67.8815 57.1514 68.3698 56.9988 68.8478 56.8413C77.8707 53.8441 83.7487 48.9979 83.7487 44.0452C83.7454 39.2876 78.2496 34.6925 69.7451 31.7576ZM48.5823 18.4562C54.3947 13.3853 59.8281 11.3839 62.3053 12.8144C64.9417 14.3385 65.967 20.4839 64.3101 28.5438C64.2007 29.0688 64.0826 29.5921 63.9557 30.1138C60.487 29.3248 56.9696 28.768 53.4268 28.447C51.3983 25.525 49.1747 22.7435 46.7712 20.1213C47.3596 19.5504 47.9622 18.9954 48.579 18.4562H48.5823ZM28.2512 48.0858C28.9632 49.4638 29.7075 50.8249 30.484 52.1691C31.2747 53.5406 32.0988 54.8918 32.9563 56.2228C30.5185 55.9578 28.0961 55.5674 25.6986 55.0531C26.3941 52.8023 27.2505 50.4646 28.2512 48.0858ZM28.2512 40.1571C27.2669 37.8292 26.4335 35.539 25.7494 33.3276C27.9969 32.824 30.3921 32.4122 32.889 32.1005C32.0523 33.4063 31.2474 34.7313 30.4741 36.0755C29.7009 37.4196 28.9583 38.7802 28.2463 40.1571H28.2512ZM30.0394 44.1223C31.0762 41.9601 32.1929 39.8394 33.3894 37.7603C34.5848 35.6823 35.8573 33.6519 37.2069 31.669C39.5495 31.4918 41.9513 31.3983 44.3776 31.3983C46.804 31.3983 49.2205 31.4918 51.5615 31.6707C52.8969 33.6491 54.1617 35.6725 55.356 37.7406C56.5504 39.8088 57.6818 41.9196 58.7503 44.0731C57.696 46.2429 56.5673 48.3723 55.3643 50.4613C54.171 52.5393 52.9133 54.5757 51.591 56.5706C49.2533 56.7347 46.8335 56.8249 44.3727 56.8249C41.9119 56.8249 39.5381 56.7478 37.243 56.5985C35.8835 54.6091 34.6006 52.5699 33.3943 50.481C32.1879 48.392 31.068 46.2725 30.0345 44.1223H30.0394ZM58.2762 52.1461C59.0691 50.7703 59.8303 49.3764 60.5598 47.9644C61.5598 50.2318 62.4425 52.5491 63.2043 54.9071C60.7786 55.4533 58.3259 55.8723 55.8564 56.1621C56.6898 54.8399 57.4964 53.5012 58.2762 52.1461ZM60.527 40.1588C59.8008 38.7752 59.0456 37.4081 58.2614 36.0574C57.4958 34.7253 56.698 33.4096 55.8679 32.1103C58.3795 32.4286 60.7895 32.8518 63.0485 33.3686C62.3222 35.6728 61.4806 37.939 60.527 40.1588ZM44.4104 22.5313C46.0486 24.3213 47.5954 26.1927 49.0449 28.1386C45.9443 27.991 42.8415 27.991 39.7366 28.1386C41.2672 26.1142 42.8339 24.2358 44.4104 22.5313ZM26.2711 12.9145C28.9058 11.3855 34.7313 13.5707 40.8718 19.0287C41.2639 19.3782 41.6593 19.744 42.053 20.123C39.6371 22.7447 37.3978 25.5239 35.3498 28.4421C31.8149 28.7606 28.3044 29.3086 24.8406 30.0826C24.6404 29.2777 24.46 28.4673 24.2992 27.6514C22.8145 20.0672 23.7972 14.35 26.2711 12.9145ZM22.4306 54.2312C21.7744 54.0442 21.1264 53.8413 20.4866 53.6226C16.6478 52.3102 13.4766 50.5974 11.2996 48.7322C9.35068 47.0605 8.36309 45.392 8.36309 44.0403C8.36309 41.1677 12.6383 37.5027 19.768 35.0173C20.6638 34.7056 21.5672 34.4207 22.4782 34.1626C23.5371 37.5656 24.8195 40.8949 26.317 44.1288C24.8016 47.4075 23.5034 50.7823 22.4306 54.2312ZM40.6618 69.5981C37.6055 72.2754 34.5443 74.1735 31.8456 75.1299C29.4209 75.9879 27.49 76.0125 26.3236 75.3383C23.8398 73.9028 22.8063 68.3595 24.2155 60.9246C24.3829 60.0496 24.5742 59.1747 24.7897 58.2997C28.2882 59.0534 31.8339 59.568 35.4023 59.8402C37.4703 62.7736 39.7281 65.5685 42.1613 68.2069C41.6724 68.6876 41.172 69.1502 40.6618 69.5981ZM44.5039 65.7888C42.9093 64.0646 41.318 62.1566 39.7661 60.106C41.2743 60.165 42.8098 60.1945 44.3727 60.1945C45.9771 60.1945 47.5652 60.1601 49.1302 60.0896C47.6859 62.0666 46.1418 63.9688 44.5039 65.7888ZM64.9318 70.479C64.4626 73.012 63.5193 74.7017 62.3529 75.3776C59.8708 76.818 54.5637 74.9462 48.8415 70.0098C48.1853 69.4455 47.5291 68.8401 46.8614 68.2053C49.2472 65.5566 51.4521 62.7504 53.4612 59.8057C57.0494 59.5017 60.6123 58.9509 64.1247 58.157C64.2854 58.8067 64.4276 59.4432 64.5512 60.0666C65.3403 64.0531 65.4535 67.659 64.9318 70.479ZM67.7863 53.6406C67.3565 53.7834 66.9136 53.9212 66.4641 54.0557C65.3627 50.6367 64.0303 47.2966 62.4759 44.0583C63.972 40.8632 65.2523 37.5715 66.3082 34.2053C67.1137 34.4399 67.8963 34.686 68.6493 34.9468C75.9365 37.4601 80.3823 41.1808 80.3823 44.0403C80.3823 47.0916 75.5805 51.0519 67.7863 53.6406Z" fill="#7B7B7B"></path>
  <path d="M44.3727 51.088C45.7689 51.0926 47.135 50.6827 48.2981 49.9103C49.4612 49.138 50.3689 48.0378 50.9063 46.7492C51.4438 45.4606 51.5868 44.0416 51.3172 42.6716C51.0476 41.3017 50.3776 40.0426 49.3919 39.0538C48.4063 38.0649 47.1494 37.3908 45.7804 37.1167C44.4113 36.8427 42.9918 36.981 41.7014 37.5143C40.4111 38.0475 39.308 38.9516 38.5319 40.1122C37.7557 41.2728 37.3414 42.6376 37.3414 44.0337C37.3394 44.9587 37.5198 45.875 37.8722 46.7303C38.2246 47.5855 38.7421 48.3629 39.3951 49.0181C40.0481 49.6732 40.8238 50.1932 41.6779 50.5484C42.532 50.9036 43.4477 51.0869 44.3727 51.088Z" fill="#7B7B7B"></path>
</svg>
