<?xml version="1.0" encoding="UTF-8"?>
<svg xmlns="http://www.w3.org/2000/svg" width="87" height="49" viewBox="0 0 87 49" fill="none">
  <g clip-path="url(#clip0_138_10598)">
    <path d="M69.1637 37.2014C69.2447 39.5917 70.7281 41.3895 73.16 41.913C75.3894 42.3934 78.0757 42.5315 80.0738 38.956C82.0922 39.5227 84.1424 40.1009 86.2533 40.6934C85.5043 43.2621 84.0498 45.0944 81.9823 46.4694C76.7861 49.927 68.6635 48.7303 64.6123 43.9928C59.2107 37.676 60.7144 24.1018 72.4833 22.3903C79.4724 21.3749 86.3892 24.772 86.7535 34.253C86.8807 37.6041 86.9183 37.1899 83.8243 37.2014C79.536 37.2157 75.2506 37.2042 70.9623 37.2042H69.1608L69.1637 37.2014ZM79.3567 32.343C79.0126 29.3399 76.9451 27.8988 73.6024 28.1318C71.2341 28.2957 69.3459 30.1482 69.3806 32.343H79.3567Z" fill="#7B7B7B"></path>
    <path d="M41.8986 37.325C42.1125 39.7384 43.6249 41.3837 46.0481 41.9792C48.8876 42.6782 51.0679 41.7404 52.8521 38.9617C54.8617 39.5255 56.9148 40.1008 59.0575 40.6991C57.6088 45.0081 54.616 47.3899 50.3913 48.1809C47.1093 48.7936 43.8446 48.5059 40.872 46.8088C35.9331 43.987 34.1259 39.5399 34.4844 34.089C35.1264 24.3779 45.0186 19.4217 53.7514 23.8141C57.149 25.5228 58.7828 28.5805 59.3062 32.2365C59.4739 33.4101 59.4247 34.6154 59.497 35.8062C59.5664 36.9798 58.9274 37.2272 57.8835 37.2186C53.1615 37.1841 48.4423 37.1985 43.7203 37.21C43.113 37.21 42.5087 37.2847 41.9015 37.325H41.8986ZM52.0829 32.3113C51.8805 29.5441 49.998 28.0771 46.8751 28.126C44.2032 28.1663 42.2253 29.872 42.1125 32.3113H52.0829Z" fill="#7B7B7B"></path>
    <path d="M12.2422 40.8112C14.1304 40.4602 15.8249 40.1668 17.5107 39.8188C18.3233 39.6519 18.5633 40.0834 18.8496 40.7191C19.7951 42.8046 22.3802 43.7337 24.309 42.5888C24.9075 42.235 25.5061 41.3635 25.5206 40.7162C25.5321 40.164 24.8179 39.3154 24.2309 39.0824C22.8603 38.5416 21.3682 38.3144 19.9339 37.9232C19.0578 37.6844 18.17 37.4399 17.3401 37.0804C14.7319 35.9499 13.0143 34.1032 12.7829 31.149C12.54 28.0453 13.7834 25.6406 16.3512 23.9348C19.8414 21.6163 25.4859 21.648 28.95 23.9722C30.873 25.2637 32.0412 27.0529 32.3766 29.4778C30.5954 29.8028 28.8546 30.1049 27.1225 30.4443C26.31 30.6025 26.0815 30.1221 25.7779 29.5123C24.9191 27.7922 22.8429 27.0932 21.1108 27.8583C20.1971 28.261 19.4308 28.9543 19.7604 29.938C19.9889 30.6226 20.7233 31.3935 21.4058 31.6265C22.8429 32.1213 24.4131 32.222 25.8965 32.6074C28.8604 33.3783 31.379 34.7964 32.3997 37.903C33.7848 42.12 31.3096 46.5239 26.764 47.873C23.7856 48.756 20.7609 48.6755 17.8288 47.6371C15.3565 46.7626 13.5434 45.1029 12.6094 42.6147C12.4041 42.0682 12.3694 41.4555 12.2422 40.8112Z" fill="#7B7B7B"></path>
    <path d="M4.83652 35.9903C4.83652 20.2213 17.9212 7.43534 34.0651 7.43534C44.5733 7.43534 53.7832 12.8546 58.9332 20.9836C55.2059 9.11233 43.8938 0.47998 30.52 0.47998C14.1042 0.47998 0.799805 13.4788 0.799805 29.5153C0.799805 36.462 3.29817 42.8392 7.46212 47.8357C5.7763 44.2285 4.83652 40.2187 4.83652 35.9931V35.9903Z" fill="#7B7B7B"></path>
  </g>
  <defs>
    <clipPath id="clip0_138_10598">
      <rect width="86" height="48" fill="white" transform="translate(0.799805 0.47998)"></rect>
    </clipPath>
  </defs>
</svg>
