<?xml version="1.0" encoding="UTF-8"?>
<svg xmlns="http://www.w3.org/2000/svg" width="89" height="89" viewBox="0 0 89 89" fill="none">
  <path d="M12.6631 46.6089C12.6631 47.1462 12.5494 47.6454 12.3222 48.1071C12.0949 48.5623 11.7728 48.9541 11.3687 49.2703C10.9582 49.5927 10.4721 49.8392 9.90994 50.0161C9.34802 50.1931 8.72929 50.2816 8.0599 50.2816C7.25784 50.2816 6.53819 50.1741 5.90699 49.9529C5.27559 49.738 4.6379 49.3713 4 48.8654L5.05468 47.1521C5.55977 47.5756 6.0142 47.8851 6.42495 48.0815C6.82906 48.2775 7.24577 48.3723 7.67528 48.3723C8.19934 48.3723 8.61605 48.2395 8.93835 47.9677C9.26038 47.6958 9.41188 47.3355 9.41188 46.8741C9.41188 46.6782 9.38031 46.4949 9.3235 46.3242C9.26667 46.1535 9.15933 45.9765 9.00783 45.7932C8.85627 45.6162 8.64165 45.4139 8.37014 45.2054C8.10493 44.9967 7.7577 44.7312 7.32819 44.4214C7.00616 44.1938 6.6842 43.9536 6.3747 43.7131C6.06533 43.4666 5.78752 43.2074 5.52841 42.9292C5.27586 42.651 5.07384 42.3413 4.91597 41.9938C4.76441 41.6524 4.68239 41.254 4.68239 40.8178C4.68239 40.3121 4.78973 39.8442 4.99806 39.4268C5.20638 39.0093 5.49685 38.6555 5.8631 38.3587C6.22929 38.0616 6.66517 37.834 7.18245 37.6699C7.69384 37.5055 8.24919 37.4233 8.8556 37.4233C9.49329 37.4233 10.1059 37.5055 10.6989 37.6762C11.2924 37.8469 11.8421 38.0934 12.3533 38.422L11.3998 39.9645C10.7495 39.5093 10.061 39.2757 9.34139 39.2757C8.90572 39.2757 8.53933 39.3894 8.25522 39.617C7.97112 39.8445 7.82585 40.129 7.82585 40.4767C7.82585 40.8054 7.95215 41.1025 8.2047 41.3618C8.45724 41.6273 8.89285 41.9877 9.51199 42.4681C10.1371 42.9233 10.6551 43.3278 11.0592 43.6688C11.4696 44.0102 11.7915 44.3389 12.0314 44.6424C12.2714 44.9459 12.4292 45.2493 12.5239 45.5651C12.6186 45.8875 12.6631 46.2293 12.6631 46.6089ZM23.4913 43.7202C23.4913 44.1943 23.4407 44.7066 23.3398 45.256C23.245 45.806 23.0746 46.312 22.8347 46.7797C22.5947 47.2475 22.2854 47.6334 21.8999 47.9302C21.5148 48.2336 21.0222 48.3853 20.4352 48.3853C19.4502 48.3853 18.6736 47.9934 18.1054 47.2033C17.5371 46.4194 17.2531 45.3386 17.2531 43.967C17.2531 42.5571 17.5372 41.4448 18.1181 40.6166C18.6927 39.7885 19.4757 39.3777 20.4606 39.3777C21.3954 39.3777 22.1338 39.7696 22.6765 40.5409C23.2196 41.3182 23.4913 42.3801 23.4913 43.7202ZM26.9133 43.6001C26.9133 42.6834 26.7807 41.8492 26.5218 41.1034C26.2566 40.351 25.8904 39.7064 25.4042 39.1629C24.918 38.6193 24.3495 38.2021 23.6868 37.8985C23.0241 37.595 22.2917 37.4434 21.4897 37.4434C20.6059 37.4434 19.8292 37.6141 19.1599 37.9428C18.4906 38.2779 17.8653 38.8025 17.2971 39.5228L17.2782 37.7338H14.1276V56.1202H17.2722V48.3542C17.5815 48.7145 17.8782 49.0179 18.1687 49.2642C18.4528 49.5107 18.7433 49.713 19.0398 49.8647C19.3365 50.0164 19.6459 50.1302 19.9738 50.1934C20.3022 50.2566 20.656 50.2882 21.0285 50.2882C21.8621 50.2882 22.6447 50.1175 23.3644 49.7888C24.084 49.4538 24.7092 48.9861 25.2332 48.379C25.7571 47.772 26.1679 47.0644 26.4647 46.2616C26.7678 45.4522 26.9133 44.561 26.9133 43.6001ZM28.315 49.9911H31.5474V32H28.315V49.9911ZM45.3346 49.9974V37.7219H42.1022V44.3274C42.1022 44.9153 42.0769 45.3707 42.0264 45.693C41.9759 46.0153 41.8938 46.2998 41.7802 46.5654C41.3256 47.5765 40.4856 48.0891 39.2674 48.0891C38.3139 48.0891 37.6513 47.7478 37.272 47.0585C37.1205 46.7994 37.0195 46.5023 36.9626 46.1734C36.9058 45.8447 36.8743 45.3707 36.8743 44.7448V37.7226H33.6419V44.6979C33.6419 45.172 33.6482 45.5764 33.6545 45.8987C33.6608 46.221 33.6861 46.5181 33.7177 46.7711C33.7492 47.024 33.7871 47.2515 33.8313 47.4478C33.8692 47.6438 33.9324 47.8334 34.0144 48.0104C34.3111 48.7629 34.785 49.3318 35.4477 49.7171C36.1107 50.1026 36.9252 50.2923 37.8847 50.2923C38.7498 50.2923 39.5136 50.1406 40.1703 49.8372C40.8269 49.5337 41.4648 49.0404 42.0833 48.3516L42.0896 49.9953L45.3347 50.0016L45.3346 49.9974ZM59.2651 49.9911V43.0292C59.2651 42.5551 59.2588 42.1508 59.2525 41.8157C59.2462 41.4807 59.2273 41.19 59.1894 40.9433C59.1578 40.6967 59.1136 40.4818 59.0694 40.2985C59.0189 40.1089 58.9621 39.9255 58.899 39.7485C58.6022 39.0155 58.1284 38.4466 57.4657 38.0479C56.803 37.6492 55.9882 37.4474 55.022 37.4474C54.1569 37.4474 53.3931 37.5991 52.7364 37.9025C52.0797 38.2059 51.4419 38.7052 50.8234 39.388L50.8171 37.7444H47.5653V49.9931H50.8231V43.3809C50.8231 42.812 50.8421 42.3631 50.8862 42.0468C50.9241 41.7308 51.0062 41.4337 51.1199 41.1489C51.3282 40.6558 51.6565 40.2893 52.0921 40.0366C52.5278 39.784 53.0456 39.6574 53.6514 39.6574C54.6049 39.6574 55.2676 39.9987 55.6468 40.6879C55.7921 40.9471 55.8931 41.2442 55.9499 41.5664C56.0067 41.8888 56.0383 42.3691 56.0383 42.9889V49.9777L59.2646 49.984L59.2651 49.9911ZM72.6396 49.1817L67.7153 43.056L71.8757 38.5934L69.4259 37.5381L65.0947 42.5635H64.7537V32.0034H61.4959V49.9945H64.7537V43.4775L69.6278 50.2384L72.639 49.1824L72.6396 49.1817ZM85.23 44.7821V42.7779L75.4337 37.8597V40.0655L83.0255 43.7636L75.4337 47.5119V49.6675L85.23 44.7821ZM76.3852 34.6776C75.7855 34.6776 75.299 35.1706 75.299 35.7778C75.299 36.3973 75.7855 36.8841 76.3852 36.8841C76.9916 36.8841 77.4714 36.3973 77.4714 35.7778C77.4714 35.1646 76.9916 34.6776 76.3852 34.6776ZM76.3919 34.8482C76.8777 34.8482 77.269 35.2654 77.269 35.7836C77.269 36.302 76.8777 36.719 76.3919 36.713C75.8994 36.713 75.5074 36.3021 75.5074 35.7776C75.5074 35.2655 75.8994 34.8482 76.3919 34.8482ZM76.1835 35.8915H76.3155C76.4737 35.8915 76.5494 35.9484 76.5809 36.1065C76.6063 36.2708 76.6378 36.3783 76.6633 36.4162H76.8717C76.8522 36.3783 76.8207 36.3025 76.7959 36.1128C76.7705 35.9295 76.7008 35.8347 76.5876 35.8157V35.8031C76.7202 35.7652 76.8274 35.664 76.8274 35.506C76.8274 35.3922 76.7892 35.3037 76.7135 35.2531C76.6378 35.1962 76.5179 35.1583 76.335 35.1583C76.1895 35.1583 76.0884 35.1709 75.9879 35.1899V36.4161H76.1835V35.8915ZM76.1835 35.3226C76.215 35.3162 76.2592 35.3099 76.3222 35.3099C76.5433 35.3099 76.6191 35.4174 76.6191 35.5249C76.6191 35.6766 76.4797 35.7335 76.3222 35.7335H76.1835V35.3226Z" fill="#7B7B7B"></path>
</svg>
