<?xml version="1.0" encoding="UTF-8"?>
<svg xmlns="http://www.w3.org/2000/svg" width="89" height="89" viewBox="0 0 89 89" fill="none">
  <path fill-rule="evenodd" clip-rule="evenodd" d="M12.2157 12.2158V45.7158V79.2158H79.2157V12.2158H12.2157ZM26.9054 48.5631V45.8329L26.9556 45.8496V43.1026L38.6806 43.0524C45.1294 43.0524 50.4391 43.0691 50.4391 43.1194C50.5061 43.1529 50.5061 44.3756 50.5061 45.8831V48.5631H41.7961V73.3531H35.6154V48.5631H26.9054ZM70.2376 45.4309C69.0651 44.2081 67.7586 43.4376 66.0501 43.0356L66.0836 43.0021C64.9279 42.7006 62.1642 42.6001 60.9916 42.8346C57.3736 43.5046 54.8444 45.8496 54.1241 49.1996C53.8896 50.1544 53.9734 52.5329 54.2246 53.5044C54.5596 54.6266 55.2799 55.9834 56.0671 56.8544C57.4406 58.2949 58.9146 59.2329 62.3819 60.7069C65.3969 62.0469 66.4689 62.6499 67.0049 63.3869C67.3901 63.9731 67.5074 64.3249 67.5074 65.0954C67.5074 65.9329 67.2394 66.5359 66.6196 67.1054C65.1791 68.4119 62.2646 68.5626 60.0871 67.4404C59.3669 67.0384 58.1274 65.8659 57.5746 64.9949L57.1391 64.4086L55.2464 65.5141L52.7339 66.9714L52.0974 67.3734C52.0304 67.4906 53.2196 69.2829 53.8394 69.9529C55.4139 71.6781 57.9766 73.0181 60.6567 73.5206C61.9129 73.7384 64.5929 73.7719 65.7654 73.5709C69.5006 72.9511 72.1136 71.0584 73.1856 68.2611C74.1404 65.6984 73.8221 62.2814 72.3984 60.1039C71.1421 58.1609 69.0651 56.8041 64.2746 54.7439C61.6784 53.6049 60.8409 53.0521 60.3886 52.1309C60.1876 51.6954 60.0871 51.3939 60.0871 50.8579C60.0871 49.0991 61.4271 48.0439 63.4371 48.1779C64.8274 48.2784 65.7151 48.8144 66.5861 50.0539C66.8541 50.4894 67.1222 50.7741 67.1891 50.7239C68.9479 49.6351 71.8456 47.6754 71.8456 47.5749C71.7786 47.2734 70.8574 46.1009 70.2376 45.4309Z" fill="#7B7B7B"></path>
</svg>
